<svg width="24" height="24" viewBox="0 0 24 24" fill="none" xmlns="http://www.w3.org/2000/svg">
<g clip-path="url(#clip0_4082_1466)">
<path d="M11.829 11.5609C13.4172 11.5609 14.7925 10.9913 15.9163 9.86737C17.04 8.74365 17.6096 7.36871 17.6096 5.78027C17.6096 4.19238 17.04 2.81726 15.9161 1.69318C14.7922 0.569641 13.4171 0 11.829 0C10.2405 0 8.8656 0.569641 7.74188 1.69336C6.61816 2.81708 6.04834 4.1922 6.04834 5.78027C6.04834 7.36871 6.61816 8.74384 7.74207 9.86755C8.86597 10.9911 10.2411 11.5609 11.829 11.5609Z" fill="#383838"/>
<path d="M21.9435 18.4547C21.9111 17.987 21.8456 17.4769 21.7491 16.9382C21.6517 16.3954 21.5262 15.8824 21.3761 15.4135C21.221 14.9288 21.0101 14.4501 20.7493 13.9915C20.4787 13.5154 20.1608 13.1008 19.8041 12.7597C19.4312 12.4028 18.9745 12.1159 18.4464 11.9066C17.9202 11.6984 17.337 11.593 16.7131 11.593C16.4681 11.593 16.2312 11.6935 15.7736 11.9914C15.492 12.175 15.1626 12.3875 14.7949 12.6224C14.4805 12.8227 14.0546 13.0104 13.5286 13.1803C13.0153 13.3464 12.4942 13.4306 11.9799 13.4306C11.4655 13.4306 10.9446 13.3464 10.4308 13.1803C9.90527 13.0106 9.47937 12.8229 9.16534 12.6226C8.80115 12.3898 8.47156 12.1774 8.18573 11.9912C7.7287 11.6933 7.49158 11.5928 7.24658 11.5928C6.62256 11.5928 6.03955 11.6984 5.51349 11.9068C4.98578 12.1157 4.52893 12.4026 4.15558 12.7599C3.79907 13.1012 3.48102 13.5156 3.21075 13.9915C2.9502 14.4501 2.73926 14.9286 2.58398 15.4136C2.43402 15.8826 2.30859 16.3954 2.21118 16.9382C2.11469 17.4761 2.04913 17.9865 2.01672 18.4552C1.98486 18.9144 1.96875 19.3911 1.96875 19.8724C1.96875 21.1252 2.367 22.1395 3.15234 22.8875C3.92798 23.6256 4.95428 24 6.20233 24H17.7585C19.0065 24 20.0325 23.6257 20.8083 22.8875C21.5938 22.14 21.9921 21.1256 21.9921 19.8723C21.9919 19.3887 21.9756 18.9117 21.9435 18.4547Z" fill="#383838"/>
</g>
<defs>
<clipPath id="clip0_4082_1466">
<rect width="24" height="24.0001" fill="white"/>
</clipPath>
</defs>
</svg>
