<svg width="24" height="10" viewBox="0 0 24 10" fill="none" xmlns="http://www.w3.org/2000/svg">
<path d="M23.4461 5.48924H0.553831C0.281523 5.48924 0.0615234 5.26924 0.0615234 4.99693C0.0615234 4.72463 0.281523 4.50463 0.553831 4.50463H22.2569L19.2692 1.51693C19.0769 1.32463 19.0769 1.01232 19.2692 0.820012C19.4615 0.627704 19.7738 0.627704 19.9661 0.820012L23.7954 4.64924C23.9369 4.79078 23.9784 5.00155 23.9015 5.18617C23.8246 5.36924 23.6446 5.48924 23.4461 5.48924Z" fill="black"/>
<path d="M19.6123 9.32352C19.4861 9.32352 19.36 9.27583 19.2646 9.17891C19.0723 8.9866 19.0723 8.67429 19.2646 8.48198L23.0984 4.64814C23.2907 4.45583 23.6031 4.45583 23.7954 4.64814C23.9877 4.84044 23.9877 5.15275 23.7954 5.34506L19.9615 9.17891C19.8646 9.27583 19.7384 9.32352 19.6123 9.32352Z" fill="black"/>
</svg>
