<svg width="24" height="24" viewBox="0 0 24 24" fill="none" xmlns="http://www.w3.org/2000/svg">
<g clip-path="url(#clip0_3965_7742)">
<path d="M22.5159 12.0605C22.5159 17.8505 17.8059 22.5605 12.0159 22.5605C7.73194 22.5605 3.91594 19.9985 2.29369 16.034C2.13694 15.65 2.32069 15.212 2.70394 15.0553C3.08644 14.8993 3.52519 15.083 3.68194 15.4655C5.07244 18.8645 8.34319 21.0605 12.0152 21.0605C16.9779 21.0605 21.0152 17.0233 21.0152 12.0605C21.0152 7.0978 16.9779 3.06055 12.0152 3.06055C8.33644 3.06055 5.07844 5.2663 3.69619 8.6188L4.06369 8.28205C4.36894 8.0023 4.84369 8.0233 5.12344 8.32855C5.40319 8.6338 5.38294 9.10855 5.07694 9.3883L3.08344 11.216C2.94394 11.3435 2.76244 11.4133 2.57644 11.4133C2.53219 11.4133 2.48869 11.4095 2.44444 11.4013C2.21419 11.36 2.01619 11.2145 1.90969 11.0068L0.823694 8.8978C0.633944 8.52955 0.778694 8.0773 1.14694 7.88755C1.51594 7.6948 1.96744 7.8418 2.15719 8.2108L2.21044 8.3143C3.75919 4.2553 7.62844 1.56055 12.0159 1.56055C17.8059 1.56055 22.5159 6.27055 22.5159 12.0605ZM5.25019 11.9998C5.25019 8.27155 8.27194 5.2498 12.0002 5.2498C15.7284 5.2498 18.7502 8.27155 18.7502 11.9998C18.7502 15.728 15.7284 18.7498 12.0002 18.7498C8.27194 18.7498 5.25019 15.728 5.25019 11.9998ZM11.2502 11.9998C11.2502 12.2353 11.3612 12.458 11.5502 12.5998L14.5502 14.8498C14.6852 14.951 14.8434 14.9998 14.9994 14.9998C15.2274 14.9998 15.4524 14.8963 15.6002 14.6998C15.8492 14.369 15.7817 13.8988 15.4502 13.6505L12.7502 11.6255V8.25055C12.7502 7.8358 12.4142 7.50055 12.0002 7.50055C11.5862 7.50055 11.2502 7.8358 11.2502 8.25055V11.9998Z" fill="#0D6B68"/>
</g>
<defs>
<clipPath id="clip0_3965_7742">
<rect width="24" height="24" fill="white"/>
</clipPath>
</defs>
</svg>
