<svg width="24" height="24" viewBox="0 0 24 24" fill="none" xmlns="http://www.w3.org/2000/svg">
<path d="M21 4.00008C20.7215 3.68873 20.3811 3.43895 20.0006 3.26676C19.62 3.09456 19.2077 3.00373 18.79 3.00008H5.18L5 1.84008C4.96167 1.60346 4.83961 1.38847 4.65606 1.2343C4.47251 1.08012 4.23969 0.996998 4 1.00008H1V3.00008H3.15L3.34 4.15008L4.82 13.0001C4.02435 13.024 3.27077 13.3629 2.72504 13.9424C2.17931 14.5219 1.88613 15.2944 1.91 16.0901C1.93387 16.8857 2.27283 17.6393 2.85232 18.185C3.43181 18.7308 4.20435 19.024 5 19.0001H5.18C5.01554 19.4532 4.96269 19.9393 5.02593 20.4172C5.08917 20.8951 5.26665 21.3507 5.54332 21.7454C5.81999 22.1402 6.18772 22.4625 6.61535 22.6849C7.04299 22.9074 7.51795 23.0236 8 23.0236C8.48205 23.0236 8.95701 22.9074 9.38465 22.6849C9.81228 22.4625 10.18 22.1402 10.4567 21.7454C10.7334 21.3507 10.9108 20.8951 10.9741 20.4172C11.0373 19.9393 10.9845 19.4532 10.82 19.0001H13.18C13.0155 19.4532 12.9627 19.9393 13.0259 20.4172C13.0892 20.8951 13.2666 21.3507 13.5433 21.7454C13.82 22.1402 14.1877 22.4625 14.6154 22.6849C15.043 22.9074 15.5179 23.0236 16 23.0236C16.4821 23.0236 16.957 22.9074 17.3846 22.6849C17.8123 22.4625 18.18 22.1402 18.4567 21.7454C18.7334 21.3507 18.9108 20.8951 18.9741 20.4172C19.0373 19.9393 18.9845 19.4532 18.82 19.0001H21V17.0001H5C4.73478 17.0001 4.48043 16.8947 4.29289 16.7072C4.10536 16.5197 4 16.2653 4 16.0001C4 15.7349 4.10536 15.4805 4.29289 15.293C4.48043 15.1054 4.73478 15.0001 5 15.0001H18.16C18.9094 15.0034 19.6329 14.726 20.1882 14.2226C20.7434 13.7192 21.0901 13.0263 21.16 12.2801L21.83 6.28008C21.8581 5.8632 21.7987 5.44505 21.6558 5.05243C21.5129 4.65981 21.2895 4.30137 21 4.00008ZM10 7.00008H12V11.0001H10V7.00008ZM16 11.0001H14V7.00008H16V11.0001Z" fill="#383838"/>
</svg>
