<svg width="24" height="24" viewBox="0 0 24 24" fill="none" xmlns="http://www.w3.org/2000/svg">
<g clip-path="url(#clip0_3965_7770)">
<g clip-path="url(#clip1_3965_7770)">
<path d="M22.185 4.96527C21.4639 3.70096 20.4211 2.64993 19.1625 1.91887C17.9039 1.18781 16.4743 0.802734 15.0187 0.802734C13.5632 0.802734 12.1336 1.18781 10.875 1.91887C9.61642 2.64993 8.57364 3.70096 7.8525 4.96527V5.01027C7.42079 5.73705 7.10452 6.52645 6.915 7.35027C6.80532 7.89342 6.75005 8.44615 6.75 9.00027C6.75063 10.4147 7.11754 11.8048 7.815 13.0353C8.94036 14.8312 10.7138 16.1252 12.7675 16.6489C14.8212 17.1726 16.9977 16.8858 18.8456 15.848C20.6936 14.8102 22.0713 13.1011 22.693 11.0749C23.3147 9.04869 23.1328 6.86095 22.185 4.96527ZM21.045 12.0003H19.2C19.3589 11.2593 19.4592 10.507 19.5 9.75027H21.75C21.6488 10.5358 21.4102 11.2974 21.045 12.0003ZM8.385 7.65027C8.50204 7.07771 8.69367 6.52298 8.955 6.00027H10.8C10.6411 6.74124 10.5408 7.49356 10.5 8.25027H8.25C8.3175 8.04777 8.3475 7.84527 8.385 7.65027ZM15.75 4.50027V2.49777C16.4128 3.01266 16.9129 3.70802 17.19 4.50027H15.75ZM17.67 6.00027C17.8468 6.73894 17.9572 7.49194 18 8.25027H15.75V6.00027H17.67ZM14.25 2.49777V4.50027H12.81C13.0871 3.70802 13.5872 3.01266 14.25 2.49777ZM14.25 6.00027V8.25027H12C12.0378 7.49239 12.1433 6.7394 12.315 6.00027H14.25ZM8.295 9.75027H10.545C10.5784 10.5064 10.6712 11.2587 10.8225 12.0003H8.9625C8.60916 11.2955 8.38318 10.5337 8.295 9.75027ZM12.045 9.75027H14.295V12.0003H12.33C12.1532 11.2616 12.0428 10.5086 12 9.75027H12.045ZM14.295 13.5003V15.5028C13.6155 14.9941 13.0994 14.2981 12.81 13.5003H14.295ZM15.795 15.5028V13.5003H17.235C16.9456 14.2981 16.4295 14.9941 15.75 15.5028H15.795ZM15.75 12.0003V9.75027H18C17.9622 10.5082 17.8567 11.2611 17.685 12.0003H15.75ZM19.5 8.25027C19.4666 7.49416 19.3738 6.74184 19.2225 6.00027H21.06C21.4133 6.70508 21.6393 7.4668 21.7275 8.25027H19.5ZM20.04 4.50027H18.7875C18.6138 3.98115 18.3929 3.47905 18.1275 3.00027C18.8425 3.3827 19.4827 3.89081 20.0175 4.50027H20.04ZM11.8725 3.00027C11.6073 3.47916 11.3864 3.98124 11.2125 4.50027H9.9825C10.5183 3.89187 11.1583 3.38392 11.8725 3.00027ZM9.9825 13.5003H11.2125C11.3862 14.0194 11.6071 14.5215 11.8725 15.0003C11.1575 14.6178 10.5173 14.1097 9.9825 13.5003ZM18.12 15.0003C18.388 14.5218 18.6114 14.0197 18.7875 13.5003H20.0325C19.491 14.1119 18.843 14.6201 18.12 15.0003Z" fill="#0D6B68"/>
<path d="M17.7 17.5875C16.3519 18.0115 14.9228 18.112 13.5285 17.8809C12.1343 17.6499 10.814 17.0937 9.67472 16.2575C8.53541 15.4212 7.60903 14.3285 6.97062 13.0676C6.33221 11.8067 5.9997 10.4133 6.00002 9C6.00032 8.39552 6.06061 7.79257 6.18002 7.2C6.18002 7.05 6.25502 6.9 6.29252 6.75H3.00002C2.40328 6.75 1.83099 6.98705 1.40903 7.40901C0.987074 7.83097 0.750021 8.40326 0.750021 9V18C0.747568 18.5621 0.955582 19.1047 1.33312 19.5211C1.71067 19.9375 2.23039 20.1975 2.79002 20.25L2.25002 22.32C2.20976 22.466 2.21467 22.6208 2.2641 22.764C2.31352 22.9072 2.40515 23.0321 2.52692 23.1222C2.64869 23.2123 2.79489 23.2634 2.94627 23.2688C3.09766 23.2742 3.24713 23.2337 3.37502 23.1525L8.45252 20.25H15.75C16.3468 20.25 16.9191 20.0129 17.341 19.591C17.763 19.169 18 18.5967 18 18V17.475L17.7 17.5875Z" fill="#0D6B68"/>
</g>
</g>
<defs>
<clipPath id="clip0_3965_7770">
<rect width="24" height="24" fill="white"/>
</clipPath>
<clipPath id="clip1_3965_7770">
<rect width="24" height="24" fill="white"/>
</clipPath>
</defs>
</svg>
