<svg width="277" height="66" viewBox="0 0 277 66" fill="none" xmlns="http://www.w3.org/2000/svg">
<g clip-path="url(#clip0_4103_8501)">
<path d="M25.0342 43.1717C25.3263 42.3575 25.6175 41.5447 25.9079 40.7331C26.4973 39.0806 27.0894 37.428 27.6647 35.7704C27.7071 35.6489 27.6808 35.4426 27.6006 35.3487C25.8873 33.3433 25.1382 31.0088 25.1523 28.389C25.1715 24.8873 25.1523 21.383 25.1657 17.8832C25.1831 14.3191 26.6673 11.4678 29.6044 9.50743C33.1226 7.15945 36.8435 7.06497 40.4605 9.24648C43.6561 11.1747 45.2501 14.1545 45.2982 17.8954C45.3437 21.5038 45.311 25.1135 45.3078 28.7226C45.3078 31.5803 44.2815 34.0311 42.2386 36.0043C40.3444 37.8355 38.0513 38.8164 35.3913 38.8588C34.4389 38.8771 33.489 38.752 32.5736 38.4879C32.4789 38.4559 32.3779 38.4476 32.2793 38.464C32.1807 38.4804 32.0877 38.5208 32.0085 38.5818C29.8037 40.0717 27.5961 41.5577 25.3857 43.0399C25.2902 43.1042 25.1933 43.1627 25.0933 43.2244L25.0342 43.1717ZM35.2207 22.3529H42.9127C43.1051 22.3529 43.3033 22.3959 43.2976 22.0823C43.2783 20.5088 43.3668 18.9276 43.2411 17.3632C42.9627 13.8968 41.1591 11.471 37.9038 10.2607C35.3105 9.29661 32.8077 9.69255 30.5608 11.2891C28.4441 12.7977 27.2895 14.904 27.1798 17.5239C27.1195 18.9881 27.1708 20.4574 27.1721 21.9242C27.1721 22.3516 27.1721 22.3529 27.5884 22.3529H35.2207ZM33.4741 28.4905L33.5293 28.4166C33.4883 28.4075 33.4467 28.4015 33.4049 28.3986C31.4169 28.3986 29.4284 28.3967 27.4396 28.3928C27.2196 28.3928 27.1728 28.4905 27.1715 28.6859C27.1544 30.3708 27.6641 32.0187 28.6292 33.3986C29.5942 34.7784 30.9661 35.8209 32.5524 36.3797C34.6903 37.1459 36.8185 37.0225 38.8294 35.9651C41.7158 34.4444 43.1911 32.0013 43.2995 28.7316C43.3085 28.4545 43.2014 28.3896 42.9454 28.3909C41.0536 28.399 39.1621 28.399 37.2707 28.3909C36.9975 28.3909 36.8859 28.4629 36.8326 28.7451C36.7108 29.3602 36.3195 29.7735 35.723 29.9663C35.1143 30.1591 34.5299 30.0556 34.1046 29.5736C33.8359 29.2631 33.6807 28.8537 33.4741 28.4905Z" fill="#CFE9BC"/>
<path d="M37.9839 42.6837C38.1007 42.8084 38.1892 42.8926 38.2655 42.9864C38.6639 43.473 39.1186 43.9261 39.4425 44.4583C40.2309 45.7528 40.0198 47.0357 38.9249 48.0912C38.1167 48.8702 37.1488 49.3934 36.118 49.7906C34.9333 50.2476 33.7191 50.6262 32.5337 51.0832C31.7461 51.3859 30.9943 51.7722 30.417 52.4272C29.5909 53.3701 29.9931 54.2751 30.7377 54.9898C30.807 55.0541 30.9558 55.0644 31.0649 55.0586C31.7589 55.0213 32.451 54.9622 33.1444 54.93C33.3958 54.9191 33.4734 54.824 33.4728 54.5797C33.4696 53.6381 33.4869 52.6965 33.4863 51.7516C33.4863 51.5749 33.5382 51.4945 33.7101 51.4303C34.7524 51.051 35.7896 50.6589 36.8287 50.2688C36.8849 50.2534 36.9418 50.2412 36.9994 50.2322V56.7523L37.0866 56.7748C37.1366 56.6899 37.1905 56.6076 37.2354 56.5177C37.4644 56.0677 37.6844 55.6178 37.9269 55.1769C37.9801 55.0805 38.134 54.9738 38.2347 54.9802C40.3053 55.1158 42.37 55.3016 44.3443 56.0086C44.5334 56.0824 44.7171 56.1694 44.894 56.2689C45.2981 56.4829 45.5027 56.8005 45.4796 57.2825C45.4521 57.87 45.4598 58.4607 45.4796 59.0488C45.4925 59.4499 45.327 59.7199 44.9928 59.9185C44.1962 60.3915 43.3116 60.5998 42.4181 60.7656C39.0025 61.4007 35.5549 61.4636 32.1001 61.2618C30.4324 61.1648 28.7763 60.9835 27.1612 60.5599C26.5973 60.4121 26.0534 60.1743 25.5185 59.939C25.1445 59.7745 24.9835 59.457 25.0002 59.027C25.0252 58.3964 25.0169 57.7633 25.0002 57.1315C24.9925 56.8101 25.099 56.5312 25.378 56.4065C25.9961 56.1232 26.6298 55.8754 27.276 55.6641C27.7821 55.504 28.3189 55.4398 28.8417 55.3305C28.9234 55.3087 29.0039 55.2826 29.0829 55.2521C28.9745 55.0239 28.8635 54.8208 28.7782 54.6093C28.2894 53.3842 28.6024 52.3166 29.4658 51.391C30.2496 50.551 31.2618 50.056 32.3131 49.6473C32.6114 49.5316 32.9154 49.4294 33.2214 49.3349C33.4035 49.279 33.4779 49.1768 33.4741 48.9852C33.4683 47.0255 33.4632 45.0644 33.4741 43.1053C33.4741 42.7724 33.2489 42.7839 33.0501 42.7563C31.878 42.5697 30.7342 42.2352 29.646 41.7607C29.5986 41.7407 29.5543 41.7125 29.4677 41.6668C29.5282 41.6048 29.5925 41.5466 29.6602 41.4926C30.537 40.9 31.4112 40.3029 32.2977 39.7257C32.4387 39.6405 32.6052 39.6079 32.7679 39.6338C36.8396 40.4411 40.3585 39.3767 43.2622 36.4245C45.3898 34.2604 46.3584 31.5929 46.3411 28.5617C46.3411 28.187 46.3507 27.8116 46.3411 27.4375C46.3347 27.2216 46.3995 27.1303 46.6304 27.1329C47.4533 27.1431 48.2763 27.1387 49.0992 27.1361C49.2538 27.1361 49.3616 27.1489 49.366 27.354C49.4109 29.3002 49.3404 31.2336 48.6913 33.0963C47.0999 37.6599 44.0313 40.7361 39.4547 42.2807C38.9916 42.4349 38.5125 42.5397 37.9839 42.6837ZM37.0398 43.8689V47.7897C37.3701 47.5326 37.6318 47.3571 37.8666 47.1469C38.1873 46.8609 38.397 46.5042 38.4259 46.0613C38.4708 45.3916 37.6966 44.1607 37.0398 43.8689Z" fill="white"/>
<path d="M24.1248 20.9442C24.1248 22.3049 24.1177 23.665 24.1305 25.0257C24.1337 25.304 24.0593 25.3959 23.772 25.3914C22.6392 25.3721 21.5064 25.3837 20.3724 25.3721C19.1717 25.3593 18.1916 24.4273 18.1717 23.224C18.1441 21.6814 18.1479 20.1388 18.1717 18.5962C18.1884 17.4566 19.1306 16.5343 20.3006 16.4751C20.8015 16.4507 21.3057 16.4539 21.8073 16.4751C22.0786 16.4848 22.1921 16.4231 22.2319 16.1222C22.53 13.7273 23.5008 11.4665 25.0311 9.60279C27.0753 7.09284 29.6878 5.47374 32.877 4.93383C37.5767 4.1381 41.6004 5.51616 44.8826 8.98318C45.7979 9.95374 46.5035 11.0644 47.0756 12.2805C47.6474 13.501 48.0315 14.8013 48.2148 16.137C48.2488 16.38 48.336 16.4893 48.5997 16.477C49.0794 16.4552 49.5618 16.4591 50.0422 16.4713C51.3206 16.5053 52.2526 17.3666 52.2872 18.6393C52.33 20.1819 52.33 21.7245 52.2872 23.2671C52.2571 24.4176 51.3142 25.3278 50.1654 25.3599C48.98 25.394 47.7921 25.3715 46.6067 25.3875C46.3239 25.3914 46.3361 25.2281 46.3361 25.0353C46.3361 22.5607 46.3835 20.0861 46.3142 17.6128C46.2193 14.255 44.8813 11.4571 42.2931 9.29363C39.9904 7.36537 37.3221 6.54007 34.3446 6.75539C32.2377 6.89895 30.2213 7.66876 28.5532 8.96647C26.0465 10.8947 24.5359 13.424 24.1998 16.5773C24.058 17.902 24.144 19.2518 24.1267 20.59C24.1267 20.7077 24.1267 20.8253 24.1267 20.9429L24.1248 20.9442ZM48.3463 20.9121C48.3463 21.6287 48.3521 22.346 48.3424 23.0627C48.3424 23.3005 48.4245 23.3892 48.6632 23.3751C48.9614 23.3577 49.261 23.3699 49.5611 23.3616C49.996 23.3487 50.2834 23.1006 50.2885 22.6706C50.3035 21.5137 50.3035 20.3582 50.2885 19.2043C50.2828 18.7788 49.996 18.5191 49.5682 18.4972C49.302 18.4844 49.0345 18.4914 48.7677 18.4895C48.3533 18.4857 48.354 18.4857 48.354 18.8887C48.3493 19.5657 48.3467 20.2402 48.3463 20.9121ZM22.1164 20.9365H22.1126C22.1126 20.2204 22.1075 19.5038 22.1126 18.7878C22.1126 18.5679 22.0363 18.4773 21.8131 18.4876C21.5257 18.5011 21.2358 18.4876 20.9491 18.4953C20.4673 18.5114 20.1979 18.7749 20.1793 19.2563C20.1665 19.5983 20.1742 19.9409 20.1742 20.2847C20.1742 21.056 20.1665 21.8273 20.1793 22.5941C20.1877 23.091 20.4558 23.3481 20.933 23.3564C21.2108 23.3616 21.4891 23.3494 21.7669 23.368C22.0286 23.386 22.1261 23.2935 22.1203 23.0235C22.1068 22.3293 22.1164 21.6345 22.1164 20.939V20.9365Z" fill="white"/>
<path d="M16.9511 26.5381C16.9511 28.8199 16.9511 31.1017 16.9511 33.3834C16.9511 33.9812 16.5387 34.487 15.9935 34.5886C15.3796 34.703 14.8267 34.4356 14.6022 33.8816C14.5214 33.6797 14.5099 33.4451 14.4945 33.2234C14.4707 32.8718 14.4913 32.5164 14.4566 32.1654C14.4262 31.8798 14.2915 31.6155 14.0784 31.4234C13.8652 31.2313 13.5887 31.1249 13.3021 31.1248C13.0106 31.1289 12.7309 31.2406 12.5163 31.4384C12.3018 31.6361 12.1675 31.9062 12.1392 32.1969C12.1116 32.5183 12.1295 32.8397 12.1225 33.161C12.1071 33.8912 11.6036 34.4189 10.9095 34.435C10.2264 34.4517 9.69084 33.9291 9.66069 33.2015C9.64658 32.8917 9.66069 32.5794 9.64016 32.2702C9.59013 31.6075 9.09303 31.1254 8.48175 31.1254C8.16726 31.127 7.86605 31.2526 7.64343 31.4752C7.42081 31.6978 7.29473 31.9994 7.29254 32.3145C7.27138 33.5673 7.29832 34.8213 7.27458 36.074C7.27486 36.4011 7.20302 36.7241 7.0642 37.0201C6.83392 37.4701 6.25792 37.6706 5.79417 37.5517C5.25986 37.4084 4.88912 36.9983 4.84165 36.4674C4.82369 36.2649 4.82754 36.0605 4.82754 35.8574C4.82754 33.7254 4.84294 31.594 4.82113 29.462C4.81407 29.1239 4.7178 28.7937 4.54211 28.5049C4.26758 28.073 3.79741 27.9875 3.31442 28.1013C2.85772 28.2099 2.52161 28.6251 2.48441 29.1329C2.44593 29.6709 2.27659 30.1144 1.76281 30.3638C0.964873 30.7494 0.0309566 30.2024 0.0117138 29.3129C-0.00881183 28.2633 0.0040167 27.2136 0.00337527 26.1634C0.00337527 25.3818 -0.00303899 24.5996 0.00337527 23.818C0.00267516 23.499 0.124667 23.1921 0.343993 22.9609C0.563319 22.7298 0.863105 22.5922 1.18103 22.5768C1.48897 22.5654 1.78978 22.6713 2.02292 22.8732C2.25606 23.0751 2.40423 23.358 2.43759 23.665C2.48505 24.1432 2.46004 24.6291 2.47094 25.1093C2.48313 25.6235 2.69416 26.0155 3.181 26.2309C3.33252 26.2991 3.49702 26.3336 3.66313 26.3319C3.82924 26.3302 3.99301 26.2924 4.14311 26.221C4.29321 26.1497 4.42606 26.0466 4.53249 25.9188C4.63893 25.791 4.7164 25.6415 4.75955 25.4808C4.806 25.2829 4.82755 25.0799 4.82369 24.8766C4.82754 22.2304 4.83267 19.5848 4.82369 16.9386C4.82369 16.4044 4.96032 15.9642 5.43048 15.6801C6.23034 15.1974 7.25406 15.7379 7.27202 16.6744C7.29832 18.0666 7.28741 19.4595 7.28741 20.8523C7.28741 23.2517 7.28356 25.6511 7.28741 28.0512C7.28741 28.7961 7.65559 29.2782 8.28419 29.3849C8.91279 29.4916 9.53112 29.1027 9.6036 28.4657C9.67544 27.8416 9.64658 27.2059 9.66133 26.5747C9.68186 25.6749 10.4342 25.1221 11.288 25.3741C11.519 25.447 11.722 25.5893 11.8695 25.7818C12.0169 25.9743 12.1017 26.2076 12.1122 26.4501C12.1366 27.0285 12.1122 27.607 12.1321 28.1855C12.159 29.0005 12.7819 29.5205 13.5362 29.3784C13.7699 29.3395 13.985 29.2264 14.1497 29.0557C14.3144 28.885 14.42 28.6658 14.4509 28.4304C14.4791 28.229 14.4926 28.0257 14.4913 27.8223C14.4913 25.1768 14.4861 22.5312 14.4913 19.885C14.4831 19.6508 14.5193 19.4173 14.5977 19.1966C14.8332 18.6258 15.3982 18.3648 16.0224 18.4953C16.5477 18.6052 16.9486 19.1072 16.9499 19.6947C16.9541 21.9765 16.9541 24.258 16.9499 26.5394L16.9511 26.5381Z" fill="#CFE9BC"/>
<path d="M53.5168 27.8225C53.5168 25.2086 53.5168 22.5948 53.5168 19.9809C53.5168 19.2211 54.0171 18.6909 54.7246 18.678C55.3885 18.6658 55.9433 19.1466 55.9543 19.8125C55.9786 21.4399 55.9696 23.068 55.9735 24.6974C55.9735 25.0188 55.9677 25.3402 55.9735 25.6615C55.9921 26.4258 56.4757 26.9336 57.1742 26.9303C57.8554 26.9271 58.3288 26.4206 58.3468 25.6699C58.3545 25.3595 58.3468 25.049 58.3532 24.7386C58.3613 24.4281 58.4865 24.1322 58.7038 23.9107C58.921 23.6891 59.2139 23.5583 59.5236 23.5447C59.8332 23.5311 60.1365 23.6357 60.3722 23.8373C60.608 24.0389 60.7586 24.3226 60.7938 24.6312C60.8278 24.9597 60.8143 25.2939 60.8188 25.6256C60.8297 26.4129 61.28 26.922 61.9734 26.9291C62.6835 26.9368 63.1748 26.4258 63.1774 25.6346C63.185 23.2679 63.1774 20.9013 63.1774 18.5347C63.1774 18.1381 63.1883 17.7415 63.1774 17.3456C63.1523 16.5332 63.8643 16.0723 64.3909 16.0742C65.0882 16.0742 65.6276 16.6096 65.634 17.3527C65.6456 18.7024 65.634 20.0522 65.6424 21.402C65.6475 22.1418 66.1099 22.6509 66.7706 22.6721C67.4063 22.6927 67.9098 22.2672 67.9842 21.6347C68.0066 21.4419 67.9957 21.249 68.0028 21.0562C68.0265 20.3974 68.5442 19.8671 69.1817 19.8478C69.845 19.8273 70.387 20.2868 70.4511 20.9527C70.4832 21.2818 70.4716 21.6161 70.4716 21.9477C70.4716 23.4578 70.4716 24.9678 70.4716 26.4778C70.4716 26.992 70.2484 27.3867 69.7795 27.6181C69.337 27.8366 68.9072 27.791 68.5089 27.5069C68.1824 27.2736 68.0259 26.94 68.0105 26.5428C67.999 26.2432 68.0105 25.9431 68.0015 25.6429C67.9765 24.9211 67.4884 24.4062 66.8264 24.4152C66.2895 24.423 65.6391 24.8388 65.6411 25.6738C65.6466 28.0614 65.6466 30.4494 65.6411 32.8379C65.6411 33.5398 65.262 34.0116 64.6315 34.1273C63.9022 34.2622 63.2261 33.768 63.2017 33.0262C63.169 32.0312 63.1902 31.0337 63.1844 30.0387C63.1844 29.5451 63.0613 29.1074 62.5975 28.8323C62.4332 28.7297 62.2459 28.6703 62.0527 28.6593C61.8595 28.6483 61.6666 28.6861 61.4918 28.7693C61.317 28.8525 61.1659 28.9784 61.0524 29.1354C60.9388 29.2924 60.8664 29.4755 60.8419 29.6678C60.8137 29.8684 60.8291 30.0747 60.8131 30.2772C60.7617 30.9476 60.205 31.4733 59.5636 31.4618C58.9106 31.4502 58.3891 30.9199 58.3564 30.2405C58.3554 30.0056 58.334 29.7711 58.2923 29.5399C58.235 29.2869 58.0927 29.0613 57.8894 28.9008C57.686 28.7403 57.4338 28.6546 57.1749 28.6581C56.9162 28.656 56.6642 28.7401 56.4585 28.8974C56.2529 29.0546 56.1053 29.2759 56.0389 29.5264C55.9963 29.7142 55.9767 29.9066 55.9805 30.0991C55.9754 31.9417 55.9754 33.7842 55.9805 35.6268C55.9805 36.1507 55.8202 36.5736 55.3443 36.8313C54.5232 37.2761 53.5572 36.7548 53.5322 35.8196C53.4982 34.5341 53.5168 33.2486 53.5149 31.9631C53.5149 30.5812 53.5149 29.1997 53.5149 27.8186L53.5168 27.8225Z" fill="#CFE9BC"/>
<path d="M25.3757 38.8811C24.6492 38.179 24.001 37.4 23.4425 36.5575C22.1533 34.639 21.3705 32.4243 21.1673 30.1203C21.0859 29.2057 21.1237 28.2808 21.1032 27.3603C21.1 27.1939 21.1757 27.1367 21.3367 27.1373C22.1808 27.1405 23.0243 27.1431 23.8684 27.1328C24.1019 27.1328 24.1198 27.2524 24.1249 27.4355C24.1493 28.2486 24.1615 29.063 24.2199 29.8742C24.3687 31.949 25.0736 33.8175 26.3642 35.4539C26.4989 35.6249 26.5271 35.7714 26.4501 35.9784C26.1134 36.8815 25.7933 37.7903 25.4662 38.696C25.4394 38.7593 25.4092 38.8211 25.3757 38.8811Z" fill="white"/>
<path d="M35.238 12.2033C35.302 12.202 35.3656 12.2138 35.425 12.2379C35.4844 12.262 35.5382 12.2979 35.5834 12.3434C35.6285 12.3889 35.664 12.4432 35.6876 12.5028C35.7113 12.5625 35.7226 12.6263 35.721 12.6905C35.7243 12.7564 35.7143 12.8223 35.6917 12.8842C35.6692 12.9462 35.6344 13.003 35.5895 13.0513C35.5446 13.0996 35.4905 13.1383 35.4304 13.1652C35.3703 13.1922 35.3054 13.2067 35.2396 13.2081C35.1737 13.2094 35.1083 13.1975 35.0471 13.173C34.986 13.1485 34.9304 13.112 34.8836 13.0656C34.8368 13.0192 34.7997 12.9638 34.7747 12.9028C34.7496 12.8418 34.737 12.7764 34.7377 12.7104C34.7354 12.6437 34.7467 12.5772 34.771 12.515C34.7952 12.4528 34.8319 12.3962 34.8787 12.3488C34.9256 12.3013 34.9816 12.2639 35.0434 12.2389C35.1051 12.2138 35.1714 12.2017 35.238 12.2033Z" fill="#CFE9BC"/>
<path d="M29.6801 12.6899C29.6807 12.6233 29.6948 12.5576 29.7215 12.4967C29.7482 12.4357 29.787 12.3808 29.8355 12.3354C29.8841 12.29 29.9413 12.2549 30.0038 12.2323C30.0663 12.2097 30.1327 12.2001 30.199 12.204C30.3252 12.2144 30.4426 12.2728 30.5272 12.3672C30.6118 12.4616 30.6572 12.5849 30.654 12.7117C30.6508 12.8385 30.5993 12.9593 30.51 13.0493C30.4208 13.1393 30.3006 13.1917 30.174 13.1957C30.1077 13.1978 30.0416 13.186 29.98 13.1612C29.9185 13.1363 29.8627 13.099 29.8163 13.0514C29.7699 13.0039 29.7338 12.9472 29.7104 12.885C29.6869 12.8227 29.6766 12.7563 29.6801 12.6899Z" fill="#CFE9BC"/>
<path d="M36.9112 14.9466C36.8468 14.95 36.7825 14.9398 36.7223 14.9167C36.6621 14.8936 36.6075 14.8581 36.5619 14.8124C36.5163 14.7668 36.4807 14.7121 36.4576 14.6518C36.4345 14.5915 36.4242 14.5271 36.4276 14.4626C36.4258 14.3954 36.4381 14.3285 36.4635 14.2663C36.4889 14.2041 36.5269 14.1479 36.5752 14.1011C36.6234 14.0544 36.6808 14.0183 36.7437 13.995C36.8067 13.9716 36.8737 13.9617 36.9407 13.9657C37.0652 13.9679 37.1839 14.0188 37.2714 14.1076C37.3589 14.1964 37.4083 14.3159 37.4089 14.4407C37.4139 14.5078 37.4045 14.5752 37.3813 14.6383C37.3582 14.7015 37.3218 14.759 37.2747 14.8069C37.2275 14.8548 37.1707 14.892 37.108 14.9161C37.0453 14.9402 36.9782 14.9506 36.9112 14.9466Z" fill="#CFE9BC"/>
<path d="M38.584 20.2255C38.3114 20.2223 38.1196 20.0153 38.1215 19.7274C38.1235 19.4394 38.3178 19.2363 38.5917 19.2344C38.8912 19.2344 39.0927 19.4343 39.0894 19.7325C39.0922 19.7992 39.0809 19.8656 39.0563 19.9276C39.0317 19.9896 38.9944 20.0457 38.9467 20.0922C38.899 20.1387 38.842 20.1746 38.7795 20.1976C38.717 20.2206 38.6504 20.2301 38.584 20.2255Z" fill="#CFE9BC"/>
<path d="M39.0882 21.4751C39.0921 21.7778 38.8958 21.9816 38.5911 21.9822C38.3146 21.9822 38.1197 21.7778 38.1197 21.4873C38.1166 21.423 38.1269 21.3587 38.1497 21.2986C38.1725 21.2384 38.2075 21.1836 38.2524 21.1375C38.2972 21.0914 38.3511 21.0551 38.4106 21.0308C38.4701 21.0065 38.5339 20.9947 38.5982 20.9962C38.8874 20.9975 39.0844 21.1897 39.0882 21.4751Z" fill="#CFE9BC"/>
<path d="M35.7205 14.4453C35.7256 14.7454 35.528 14.9479 35.2279 14.9466C35.1641 14.9503 35.1002 14.9407 35.0403 14.9184C34.9804 14.8962 34.9257 14.8618 34.8797 14.8173C34.8337 14.7729 34.7974 14.7195 34.7729 14.6603C34.7485 14.6011 34.7366 14.5376 34.7378 14.4736C34.735 14.407 34.7458 14.3406 34.7696 14.2784C34.7933 14.2162 34.8296 14.1596 34.876 14.1119C34.9225 14.0643 34.9782 14.0267 35.0397 14.0015C35.1012 13.9762 35.1672 13.9639 35.2336 13.9651C35.2975 13.9629 35.3612 13.9737 35.4208 13.9969C35.4804 14.0201 35.5346 14.0553 35.5802 14.1002C35.6258 14.1451 35.6617 14.1989 35.6858 14.2582C35.7099 14.3176 35.7217 14.3812 35.7205 14.4453Z" fill="#CFE9BC"/>
<path d="M41.9905 19.2345C42.0543 19.2333 42.1176 19.2451 42.1766 19.2693C42.2356 19.2934 42.2891 19.3293 42.3338 19.3749C42.3785 19.4204 42.4135 19.4746 42.4366 19.5341C42.4598 19.5936 42.4706 19.6572 42.4684 19.721C42.4713 19.7874 42.4604 19.8536 42.4365 19.9156C42.4126 19.9775 42.3761 20.0339 42.3294 20.081C42.2827 20.1282 42.2268 20.1651 42.1652 20.1896C42.1035 20.214 42.0375 20.2254 41.9713 20.223C41.8405 20.2205 41.716 20.1659 41.6253 20.0714C41.5346 19.9769 41.4851 19.8502 41.4876 19.7191C41.4902 19.588 41.5446 19.4633 41.6389 19.3724C41.7332 19.2815 41.8597 19.2319 41.9905 19.2345Z" fill="#CFE9BC"/>
<path d="M36.9348 19.2344C36.9986 19.2344 37.0616 19.2472 37.1203 19.2721C37.179 19.297 37.2321 19.3334 37.2765 19.3793C37.3208 19.4252 37.3555 19.4795 37.3785 19.5391C37.4014 19.5987 37.4122 19.6623 37.4101 19.7261C37.412 19.7927 37.4002 19.8589 37.3755 19.9207C37.3507 19.9825 37.3136 20.0386 37.2663 20.0853C37.219 20.1321 37.1626 20.1687 37.1006 20.1927C37.0386 20.2167 36.9724 20.2276 36.906 20.2249C36.7768 20.2184 36.6553 20.1614 36.5675 20.0662C36.4798 19.9709 36.4327 19.845 36.4365 19.7155C36.4403 19.5859 36.4946 19.463 36.5877 19.373C36.6809 19.2831 36.8055 19.2333 36.9348 19.2344Z" fill="#CFE9BC"/>
<path d="M38.6142 15.7251C38.6808 15.7234 38.7469 15.736 38.8082 15.762C38.8695 15.788 38.9246 15.8267 38.9698 15.8756C39.015 15.9246 39.0493 15.9826 39.0704 16.0459C39.0914 16.1091 39.0989 16.1761 39.0921 16.2425C39.0786 16.5426 38.8798 16.7194 38.5674 16.7085C38.2922 16.6988 38.1133 16.4925 38.1242 16.1981C38.1238 16.1344 38.1363 16.0712 38.161 16.0124C38.1857 15.9536 38.2221 15.9005 38.268 15.8563C38.3138 15.812 38.3681 15.7776 38.4277 15.755C38.4872 15.7325 38.5507 15.7223 38.6142 15.7251Z" fill="#CFE9BC"/>
<path d="M42.4685 16.2027C42.4756 16.5035 42.2799 16.7059 41.981 16.7079C41.6821 16.7098 41.5 16.526 41.491 16.238C41.4867 16.1715 41.4963 16.1049 41.5191 16.0423C41.5419 15.9797 41.5774 15.9226 41.6234 15.8746C41.6695 15.8265 41.725 15.7886 41.7864 15.7632C41.8479 15.7378 41.9139 15.7255 41.9804 15.727C42.0441 15.7242 42.1077 15.7345 42.1673 15.7572C42.2269 15.7799 42.2813 15.8147 42.327 15.8592C42.3727 15.9038 42.4088 15.9572 42.4332 16.0163C42.4575 16.0753 42.4696 16.1388 42.4685 16.2027Z" fill="#CFE9BC"/>
<path d="M36.8862 13.1948C36.7889 13.1893 36.6954 13.1551 36.6174 13.0966C36.5393 13.0381 36.4803 12.9578 36.4476 12.8658C36.4149 12.7738 36.41 12.6742 36.4336 12.5794C36.4571 12.4847 36.508 12.399 36.58 12.3331C36.6519 12.2672 36.7416 12.224 36.8379 12.209C36.9342 12.194 37.0328 12.2078 37.1213 12.2487C37.2098 12.2895 37.2843 12.3557 37.3355 12.4388C37.3867 12.5219 37.4122 12.6183 37.409 12.7159C37.4085 12.7825 37.3943 12.8483 37.3673 12.9092C37.3402 12.9701 37.3009 13.0247 37.2519 13.0696C37.2028 13.1146 37.145 13.1489 37.0821 13.1704C37.0191 13.192 36.9525 13.2002 36.8862 13.1948Z" fill="#CFE9BC"/>
<path d="M32.3481 14.4472C32.3528 14.5115 32.3441 14.5761 32.3226 14.6369C32.3011 14.6976 32.2673 14.7532 32.2232 14.8002C32.1791 14.8472 32.1257 14.8844 32.0665 14.9096C32.0073 14.9348 31.9435 14.9474 31.8792 14.9466C31.5739 14.9563 31.3661 14.7583 31.3718 14.4562C31.3704 14.3918 31.3819 14.3277 31.4056 14.2678C31.4294 14.2079 31.465 14.1534 31.5103 14.1075C31.5555 14.0617 31.6095 14.0255 31.669 14.001C31.7286 13.9766 31.7924 13.9644 31.8567 13.9652C31.921 13.9628 31.9851 13.9736 32.0451 13.9968C32.1051 14.0201 32.1598 14.0553 32.2057 14.1004C32.2517 14.1455 32.288 14.1995 32.3125 14.2592C32.337 14.3188 32.3491 14.3828 32.3481 14.4472Z" fill="#CFE9BC"/>
<path d="M39.09 14.4573C39.09 14.7626 38.8976 14.947 38.5884 14.947C38.3068 14.947 38.1221 14.7542 38.1215 14.4605C38.1208 14.1667 38.3139 13.9688 38.5884 13.9649C38.8893 13.9604 39.0913 14.1629 39.09 14.4573Z" fill="#CFE9BC"/>
<path d="M30.1846 13.9652C30.2489 13.9647 30.3127 13.9775 30.3719 14.0026C30.4311 14.0277 30.4846 14.0647 30.529 14.1113C30.5735 14.1579 30.608 14.2131 30.6304 14.2735C30.6528 14.3339 30.6626 14.3983 30.6593 14.4627C30.6622 14.5271 30.6517 14.5915 30.6283 14.6517C30.605 14.7118 30.5693 14.7664 30.5236 14.8119C30.478 14.8574 30.4233 14.8929 30.3631 14.916C30.303 14.9391 30.2387 14.9493 30.1744 14.946C30.1075 14.95 30.0405 14.9396 29.978 14.9154C29.9156 14.8912 29.859 14.8538 29.8122 14.8057C29.7654 14.7577 29.7295 14.7001 29.7069 14.6369C29.6842 14.5737 29.6755 14.5064 29.6811 14.4395C29.6828 14.3751 29.6971 14.3117 29.7234 14.2529C29.7497 14.1942 29.7873 14.1412 29.8341 14.0971C29.8809 14.053 29.936 14.0186 29.9962 13.996C30.0563 13.9733 30.1204 13.9628 30.1846 13.9652Z" fill="#CFE9BC"/>
<path d="M40.3025 12.2034C40.3664 12.2026 40.4298 12.2149 40.4888 12.2396C40.5477 12.2642 40.601 12.3007 40.6454 12.3468C40.6898 12.3928 40.7243 12.4474 40.7469 12.5073C40.7694 12.5672 40.7795 12.6311 40.7766 12.6951C40.7772 12.7593 40.7652 12.823 40.7412 12.8826C40.7173 12.9422 40.6819 12.9965 40.637 13.0424C40.5921 13.0882 40.5386 13.1248 40.4797 13.15C40.4207 13.1751 40.3573 13.1884 40.2932 13.189C40.2291 13.1897 40.1655 13.1776 40.1061 13.1537C40.0466 13.1297 39.9924 13.0942 39.9467 13.0492C39.9009 13.0042 39.8644 12.9506 39.8393 12.8915C39.8142 12.8324 39.8009 12.769 39.8003 12.7047C39.7984 12.6382 39.8102 12.572 39.8348 12.5102C39.8594 12.4484 39.8963 12.3923 39.9434 12.3454C39.9904 12.2984 40.0465 12.2616 40.1083 12.2372C40.1701 12.2127 40.2362 12.2012 40.3025 12.2034Z" fill="#CFE9BC"/>
<path d="M35.2415 16.7091C34.9394 16.7149 34.7355 16.5163 34.7374 16.2193C34.7364 16.0903 34.7864 15.9661 34.8766 15.8739C34.9667 15.7817 35.0897 15.7291 35.2184 15.7276C35.2823 15.7233 35.3463 15.7321 35.4066 15.7535C35.4669 15.7749 35.5222 15.8084 35.5691 15.852C35.616 15.8956 35.6535 15.9483 35.6794 16.0069C35.7052 16.0656 35.7188 16.1289 35.7194 16.193C35.7329 16.4925 35.5379 16.7033 35.2415 16.7091Z" fill="#CFE9BC"/>
<path d="M35.7198 19.7469C35.7181 19.8119 35.7035 19.8758 35.6769 19.9351C35.6504 19.9944 35.6123 20.0478 35.5651 20.0923C35.5178 20.1368 35.4622 20.1715 35.4015 20.1943C35.3408 20.2172 35.2762 20.2278 35.2114 20.2255C35.1466 20.2232 35.0829 20.2081 35.0239 20.181C34.965 20.1539 34.9119 20.1154 34.8679 20.0677C34.8239 20.0199 34.7897 19.964 34.7674 19.903C34.7451 19.8419 34.735 19.7771 34.7378 19.7122C34.7394 19.6456 34.7546 19.5801 34.7823 19.5196C34.8101 19.4591 34.8498 19.4049 34.8992 19.3604C34.9485 19.3158 35.0064 19.2818 35.0693 19.2604C35.1322 19.239 35.1988 19.2306 35.2651 19.2359C35.329 19.2379 35.3918 19.2528 35.4497 19.2799C35.5077 19.307 35.5595 19.3456 35.6021 19.3935C35.6446 19.4413 35.677 19.4973 35.6972 19.558C35.7175 19.6188 35.7252 19.6831 35.7198 19.7469Z" fill="#CFE9BC"/>
<path d="M33.5432 20.2251C33.4788 20.2273 33.4146 20.2161 33.3547 20.1923C33.2947 20.1685 33.2404 20.1325 33.195 20.0867C33.1496 20.0408 33.1141 19.986 33.0908 19.9258C33.0675 19.8656 33.0569 19.8012 33.0595 19.7366C33.0559 19.6695 33.0664 19.6024 33.0905 19.5396C33.1146 19.4769 33.1517 19.4199 33.1993 19.3726C33.247 19.3252 33.3041 19.2885 33.3669 19.2648C33.4297 19.2412 33.4967 19.2311 33.5637 19.2353C33.8466 19.2417 34.0345 19.4448 34.0287 19.7379C34.0312 19.8025 34.0203 19.8669 33.9967 19.9271C33.9732 19.9872 33.9375 20.0419 33.892 20.0876C33.8464 20.1333 33.7919 20.1692 33.7319 20.1928C33.6719 20.2165 33.6076 20.2275 33.5432 20.2251Z" fill="#CFE9BC"/>
<path d="M31.8556 20.2242C31.7574 20.225 31.6613 20.1964 31.5794 20.1421C31.4975 20.0879 31.4336 20.0104 31.3959 19.9195C31.3581 19.8287 31.3482 19.7287 31.3675 19.6322C31.3868 19.5358 31.4343 19.4472 31.504 19.378C31.5736 19.3087 31.6624 19.2618 31.7588 19.2432C31.8552 19.2247 31.9549 19.2354 32.0453 19.2739C32.1356 19.3124 32.2124 19.3771 32.2659 19.4596C32.3194 19.542 32.3472 19.6386 32.3456 19.737C32.3462 19.8014 32.3338 19.8654 32.3093 19.925C32.2848 19.9846 32.2487 20.0386 32.203 20.084C32.1574 20.1294 32.1031 20.1652 32.0434 20.1893C31.9838 20.2134 31.9199 20.2252 31.8556 20.2242Z" fill="#CFE9BC"/>
<path d="M30.6599 19.7151C30.6619 19.8124 30.635 19.9081 30.5826 19.9901C30.5302 20.072 30.4546 20.1364 30.3655 20.1752C30.2765 20.214 30.1779 20.2253 30.0824 20.2078C29.9868 20.1903 29.8987 20.1446 29.8291 20.0767C29.7595 20.0088 29.7117 19.9217 29.6917 19.8265C29.6716 19.7313 29.6804 19.6322 29.7167 19.542C29.753 19.4517 29.8153 19.3743 29.8957 19.3197C29.976 19.265 30.0708 19.2355 30.1679 19.235C30.2323 19.2317 30.2966 19.2418 30.357 19.2646C30.4173 19.2873 30.4723 19.3224 30.5185 19.3675C30.5646 19.4125 30.601 19.4667 30.6254 19.5265C30.6497 19.5863 30.6614 19.6505 30.6599 19.7151Z" fill="#CFE9BC"/>
<path d="M33.5353 17.4738C33.5996 17.4693 33.6641 17.4783 33.7248 17.5004C33.7854 17.5224 33.8407 17.557 33.8871 17.6018C33.9336 17.6467 33.9701 17.7008 33.9943 17.7607C34.0186 17.8205 34.03 17.8848 34.0279 17.9494C34.0336 18.2438 33.8508 18.4495 33.5705 18.4636C33.5055 18.4663 33.4406 18.456 33.3796 18.4335C33.3186 18.4109 33.2626 18.3765 33.2149 18.3322C33.1671 18.2879 33.1286 18.2345 33.1015 18.1753C33.0744 18.116 33.0593 18.0519 33.057 17.9868C33.0546 17.9216 33.0652 17.8567 33.088 17.7956C33.1108 17.7346 33.1454 17.6786 33.1899 17.631C33.2343 17.5834 33.2877 17.5451 33.347 17.5182C33.4062 17.4913 33.4702 17.4765 33.5353 17.4744V17.4738Z" fill="#CFE9BC"/>
<path d="M35.7202 21.4988C35.7222 21.5635 35.7108 21.6279 35.6869 21.688C35.663 21.7481 35.627 21.8026 35.5812 21.8482C35.5353 21.8938 35.4806 21.9294 35.4205 21.9529C35.3603 21.9764 35.2959 21.9872 35.2314 21.9847C35.1643 21.9872 35.0974 21.9754 35.0351 21.9502C34.9729 21.9249 34.9167 21.8868 34.8701 21.8382C34.8236 21.7896 34.7879 21.7318 34.7652 21.6684C34.7426 21.6051 34.7336 21.5376 34.7388 21.4705C34.7405 21.406 34.7551 21.3425 34.7817 21.2838C34.8083 21.225 34.8463 21.1722 34.8936 21.1284C34.9409 21.0846 34.9964 21.0507 35.057 21.0288C35.1175 21.0069 35.1819 20.9973 35.2462 21.0007C35.3106 20.9998 35.3745 21.0123 35.434 21.0374C35.4934 21.0624 35.547 21.0995 35.5915 21.1462C35.636 21.193 35.6703 21.2484 35.6925 21.3091C35.7146 21.3697 35.7241 21.4343 35.7202 21.4988Z" fill="#CFE9BC"/>
<path d="M35.2201 18.4616C35.1535 18.4621 35.0876 18.4487 35.0265 18.4222C34.9653 18.3957 34.9104 18.3568 34.8651 18.3079C34.8199 18.259 34.7853 18.2011 34.7636 18.1381C34.7418 18.075 34.7335 18.0081 34.739 17.9416C34.7413 17.8777 34.7561 17.8148 34.7826 17.7566C34.8091 17.6984 34.8469 17.646 34.8937 17.6025C34.9404 17.559 34.9953 17.5251 35.0552 17.5029C35.1151 17.4807 35.1787 17.4705 35.2425 17.473C35.3064 17.4721 35.3698 17.4842 35.4288 17.5086C35.4879 17.5329 35.5414 17.569 35.5861 17.6147C35.6308 17.6603 35.6659 17.7146 35.6891 17.7742C35.7122 17.8338 35.7231 17.8976 35.721 17.9615C35.7242 18.0282 35.7133 18.0948 35.6892 18.157C35.6652 18.2192 35.6283 18.2757 35.5811 18.3228C35.534 18.3699 35.4775 18.4066 35.4153 18.4305C35.3531 18.4544 35.2866 18.465 35.2201 18.4616Z" fill="#CFE9BC"/>
<path d="M28.4757 20.2263C28.4113 20.2271 28.3475 20.2147 28.2882 20.1898C28.2288 20.1649 28.1752 20.1282 28.1305 20.0817C28.0859 20.0353 28.0512 19.9802 28.0286 19.9199C28.006 19.8595 27.9959 19.7951 27.9991 19.7308C27.9967 19.6635 28.0086 19.5966 28.0338 19.5343C28.059 19.472 28.0971 19.4157 28.1456 19.3692C28.194 19.3226 28.2517 19.2869 28.3149 19.2642C28.3781 19.2416 28.4453 19.2326 28.5122 19.2378C28.7925 19.248 28.9786 19.4557 28.9683 19.7468C28.9694 19.8113 28.9573 19.8753 28.9328 19.935C28.9082 19.9946 28.8718 20.0485 28.8256 20.0935C28.7794 20.1384 28.7246 20.1734 28.6644 20.1962C28.6042 20.2191 28.54 20.2293 28.4757 20.2263Z" fill="#CFE9BC"/>
<path d="M30.66 17.9595C30.6607 18.0568 30.6326 18.1521 30.5791 18.2333C30.5257 18.3145 30.4493 18.378 30.3598 18.4156C30.2702 18.4532 30.1715 18.4633 30.0763 18.4445C29.981 18.4258 29.8934 18.3791 29.8247 18.3103C29.756 18.2416 29.7093 18.1539 29.6904 18.0584C29.6716 17.963 29.6815 17.8641 29.719 17.7743C29.7564 17.6845 29.8196 17.6079 29.9006 17.5543C29.9816 17.5006 30.0767 17.4723 30.1738 17.4729C30.2381 17.4708 30.3022 17.482 30.3621 17.5057C30.4219 17.5295 30.4763 17.5652 30.5219 17.6108C30.5674 17.6564 30.6032 17.7108 30.6269 17.7708C30.6507 17.8308 30.6619 17.895 30.66 17.9595Z" fill="#CFE9BC"/>
<path d="M33.565 15.7256C33.8466 15.734 34.0358 15.9397 34.0282 16.2308C34.0205 16.522 33.8357 16.7097 33.5413 16.7077C33.2469 16.7058 33.0461 16.5027 33.0596 16.1935C33.0605 16.129 33.0745 16.0654 33.1007 16.0065C33.1269 15.9476 33.1648 15.8947 33.2121 15.8509C33.2594 15.8071 33.3151 15.7734 33.3757 15.7519C33.4364 15.7304 33.5008 15.7214 33.565 15.7256Z" fill="#CFE9BC"/>
<path d="M30.6608 16.2121C30.6651 16.2766 30.656 16.3412 30.6339 16.4018C30.6119 16.4625 30.5775 16.5179 30.5329 16.5645C30.4883 16.6111 30.4344 16.6478 30.3748 16.6724C30.3153 16.6969 30.2512 16.7087 30.1868 16.7071C29.8834 16.7141 29.6737 16.511 29.6814 16.2121C29.6814 16.1478 29.6943 16.0841 29.7191 16.0247C29.744 15.9654 29.7803 15.9116 29.8261 15.8664C29.8719 15.8213 29.9261 15.7857 29.9857 15.7617C30.0453 15.7378 30.1091 15.7259 30.1733 15.7269C30.2377 15.7246 30.3019 15.7355 30.3618 15.759C30.4218 15.7826 30.4763 15.8182 30.522 15.8636C30.5677 15.9091 30.6036 15.9635 30.6275 16.0235C30.6514 16.0834 30.6627 16.1476 30.6608 16.2121Z" fill="#CFE9BC"/>
<path d="M30.6597 21.4825C30.6614 21.5799 30.6341 21.6755 30.5813 21.7573C30.5285 21.839 30.4526 21.9032 30.3633 21.9416C30.274 21.9799 30.1753 21.9908 30.0798 21.9728C29.9843 21.9548 29.8963 21.9087 29.8271 21.8404C29.7578 21.7721 29.7104 21.6846 29.6909 21.5892C29.6714 21.4939 29.6807 21.3948 29.7176 21.3047C29.7545 21.2146 29.8173 21.1376 29.898 21.0834C29.9788 21.0292 30.0738 21.0003 30.1709 21.0004C30.2352 20.9977 30.2994 21.0082 30.3594 21.0313C30.4194 21.0545 30.4741 21.0898 30.5199 21.135C30.5658 21.1802 30.6018 21.2344 30.6259 21.2942C30.6499 21.354 30.6614 21.4181 30.6597 21.4825Z" fill="#CFE9BC"/>
<path d="M33.5582 21.0008C33.8417 21.0047 34.0323 21.2058 34.0278 21.4964C34.0233 21.7869 33.8289 21.9849 33.548 21.9855C33.2516 21.9855 33.0509 21.7753 33.0592 21.4713C33.0594 21.407 33.0726 21.3435 33.0981 21.2845C33.1236 21.2255 33.1609 21.1724 33.2076 21.1284C33.2543 21.0843 33.3095 21.0503 33.3698 21.0284C33.4301 21.0064 33.4942 20.997 33.5582 21.0008Z" fill="#CFE9BC"/>
<path d="M34.0289 14.4392C34.036 14.7374 33.8577 14.9334 33.5703 14.945C33.2605 14.9579 33.061 14.7682 33.0572 14.461C33.0541 14.3966 33.0642 14.3322 33.0868 14.2718C33.1095 14.2114 33.1441 14.1563 33.1887 14.1098C33.2333 14.0633 33.2869 14.0264 33.3463 14.0013C33.4056 13.9763 33.4694 13.9637 33.5338 13.9642C33.5982 13.9594 33.663 13.9682 33.7238 13.9901C33.7846 14.012 33.8402 14.0464 33.8869 14.0912C33.9336 14.136 33.9703 14.1901 33.9948 14.25C34.0193 14.31 34.0309 14.3744 34.0289 14.4392Z" fill="#CFE9BC"/>
<path d="M41.9925 21.0004C42.0566 20.9992 42.1204 21.0112 42.1797 21.0357C42.2391 21.0602 42.2928 21.0967 42.3375 21.1429C42.3822 21.189 42.4169 21.2439 42.4396 21.3041C42.4622 21.3643 42.4722 21.4285 42.469 21.4928C42.4712 21.5572 42.4603 21.6213 42.4369 21.6814C42.4136 21.7414 42.3782 21.796 42.3331 21.8419C42.288 21.8878 42.234 21.924 42.1744 21.9483C42.1149 21.9726 42.051 21.9845 41.9867 21.9832C41.9208 21.9852 41.8552 21.9738 41.7938 21.9498C41.7324 21.9258 41.6764 21.8897 41.6293 21.8435C41.5821 21.7974 41.5447 21.7422 41.5193 21.6813C41.4939 21.6203 41.481 21.5549 41.4814 21.4888C41.4818 21.4228 41.4954 21.3575 41.5216 21.2968C41.5477 21.2362 41.5857 21.1815 41.6334 21.1359C41.6811 21.0903 41.7375 21.0548 41.7992 21.0315C41.8609 21.0083 41.9266 20.9977 41.9925 21.0004Z" fill="#CFE9BC"/>
<path d="M39.0901 12.6885C39.0901 12.9919 38.8977 13.1931 38.5975 13.1963C38.3178 13.1963 38.1267 13.0035 38.1216 12.7097C38.1164 12.416 38.3255 12.1955 38.611 12.2013C38.6749 12.1998 38.7385 12.2114 38.7978 12.2354C38.8571 12.2594 38.9108 12.2954 38.9557 12.341C39.0006 12.3867 39.0357 12.4411 39.0588 12.5008C39.0819 12.5606 39.0926 12.6245 39.0901 12.6885Z" fill="#CFE9BC"/>
<path d="M33.5555 13.1973C33.4917 13.2019 33.4276 13.1932 33.3674 13.1718C33.3071 13.1504 33.2519 13.1168 33.2053 13.0729C33.1586 13.0291 33.1216 12.976 33.0964 12.9171C33.0712 12.8582 33.0585 12.7947 33.059 12.7307C33.0524 12.6642 33.0597 12.5971 33.0805 12.5337C33.1013 12.4703 33.1351 12.4119 33.1797 12.3623C33.2244 12.3127 33.2788 12.2731 33.3397 12.2458C33.4005 12.2186 33.4664 12.2045 33.533 12.2042C33.5968 12.1998 33.6608 12.2087 33.721 12.2303C33.7812 12.2519 33.8362 12.2858 33.8827 12.3298C33.9291 12.3739 33.9659 12.4271 33.9907 12.4862C34.0155 12.5452 34.0279 12.6088 34.0269 12.6728C34.0378 12.9775 33.8492 13.187 33.5555 13.1973Z" fill="#CFE9BC"/>
<path d="M38.6133 17.4713C38.6798 17.4696 38.746 17.4822 38.8073 17.5083C38.8686 17.5343 38.9237 17.5732 38.9688 17.6224C39.0138 17.6715 39.0479 17.7297 39.0687 17.7931C39.0894 17.8565 39.0964 17.9237 39.0892 17.99C39.0751 18.285 38.8615 18.4766 38.5632 18.4611C38.2945 18.4477 38.111 18.233 38.1219 17.9431C38.1214 17.8792 38.1339 17.8159 38.1587 17.7571C38.1835 17.6983 38.22 17.6451 38.266 17.601C38.312 17.5568 38.3665 17.5225 38.4263 17.5002C38.486 17.4779 38.5496 17.4681 38.6133 17.4713Z" fill="#CFE9BC"/>
<path d="M42.468 17.9727C42.4695 18.0395 42.4569 18.1058 42.4313 18.1674C42.4057 18.229 42.3675 18.2845 42.3192 18.3304C42.2708 18.3764 42.2135 18.4117 42.1507 18.4341C42.088 18.4565 42.0213 18.4655 41.9549 18.4606C41.891 18.4603 41.8278 18.4469 41.7693 18.4213C41.7107 18.3956 41.658 18.3583 41.6143 18.3116C41.5707 18.2648 41.537 18.2096 41.5154 18.1494C41.4938 18.0891 41.4846 18.0251 41.4886 17.9612C41.4872 17.8945 41.4998 17.8283 41.5255 17.7668C41.5511 17.7052 41.5893 17.6498 41.6377 17.6039C41.686 17.558 41.7433 17.5228 41.806 17.5004C41.8687 17.478 41.9353 17.469 42.0017 17.474C42.0655 17.4746 42.1284 17.4881 42.1868 17.5138C42.2452 17.5395 42.2978 17.5768 42.3414 17.6234C42.3849 17.67 42.4186 17.725 42.4404 17.7851C42.4622 17.8451 42.4716 17.909 42.468 17.9727Z" fill="#CFE9BC"/>
<path d="M36.428 17.9554C36.4278 17.8888 36.4414 17.8228 36.4679 17.7616C36.4943 17.7004 36.5332 17.6454 36.5819 17.6C36.6307 17.5546 36.6882 17.5198 36.7511 17.4978C36.8139 17.4758 36.8805 17.467 36.9469 17.4721C37.0107 17.4735 37.0735 17.4879 37.1316 17.5142C37.1897 17.5406 37.2419 17.5784 37.2851 17.6254C37.3283 17.6725 37.3616 17.7278 37.3829 17.788C37.4043 17.8483 37.4133 17.9122 37.4094 17.976C37.4095 18.0426 37.396 18.1086 37.3695 18.1697C37.3431 18.2308 37.3043 18.2858 37.2556 18.3312C37.207 18.3766 37.1494 18.4114 37.0867 18.4334C37.024 18.4555 36.9574 18.4643 36.8911 18.4594C36.8272 18.4582 36.7642 18.4441 36.7059 18.4178C36.6476 18.3916 36.5953 18.3537 36.552 18.3066C36.5087 18.2595 36.4754 18.2041 36.4541 18.1438C36.4328 18.0834 36.4239 18.0193 36.428 17.9554Z" fill="#CFE9BC"/>
<path d="M40.3064 15.727C40.3708 15.7267 40.4345 15.7395 40.4938 15.7648C40.553 15.79 40.6065 15.8271 40.6509 15.8739C40.6953 15.9206 40.7297 15.9759 40.7519 16.0364C40.7742 16.0969 40.7839 16.1614 40.7804 16.2258C40.7746 16.5273 40.5655 16.7207 40.2615 16.7072C40.1971 16.7071 40.1335 16.6935 40.0747 16.6673C40.0158 16.641 39.9631 16.6028 39.9199 16.555C39.8767 16.5072 39.8439 16.4509 39.8236 16.3897C39.8034 16.3285 39.7961 16.2637 39.8022 16.1995C39.8037 16.1351 39.818 16.0716 39.8443 16.0128C39.8705 15.954 39.9082 15.901 39.9552 15.857C40.0022 15.813 40.0574 15.7789 40.1177 15.7566C40.178 15.7342 40.2422 15.7242 40.3064 15.727Z" fill="#CFE9BC"/>
<path d="M31.8498 12.2037C31.9136 12.2005 31.9774 12.2103 32.0373 12.2325C32.0972 12.2547 32.152 12.2889 32.1984 12.3329C32.2447 12.377 32.2817 12.43 32.307 12.4888C32.3323 12.5475 32.3455 12.6108 32.3456 12.6749C32.3507 12.7412 32.3422 12.8078 32.3204 12.8706C32.2987 12.9335 32.2643 12.9911 32.2193 13.04C32.1744 13.089 32.1198 13.1281 32.0591 13.1549C31.9984 13.1818 31.9328 13.1958 31.8665 13.1961C31.8028 13.1997 31.739 13.1902 31.679 13.1683C31.6191 13.1463 31.5642 13.1124 31.5178 13.0684C31.4714 13.0245 31.4344 12.9716 31.4091 12.9129C31.3838 12.8542 31.3707 12.7909 31.3707 12.7269C31.3652 12.6605 31.3735 12.5936 31.395 12.5305C31.4166 12.4674 31.451 12.4094 31.496 12.3603C31.541 12.3111 31.5957 12.2718 31.6566 12.2449C31.7174 12.218 31.7832 12.2039 31.8498 12.2037Z" fill="#CFE9BC"/>
<path d="M37.4096 10.9419C37.4105 11.0091 37.3973 11.0758 37.371 11.1376C37.3446 11.1994 37.3057 11.255 37.2567 11.3009C37.2077 11.3467 37.1496 11.3818 37.0863 11.4039C37.0229 11.426 36.9557 11.4346 36.8888 11.4291C36.7929 11.4233 36.7008 11.3895 36.6238 11.3318C36.5469 11.274 36.4886 11.195 36.456 11.1044C36.4235 11.0138 36.4182 10.9156 36.4408 10.822C36.4633 10.7284 36.5128 10.6435 36.5831 10.5778C36.6533 10.512 36.7412 10.4684 36.836 10.4523C36.9307 10.4361 37.0281 10.4482 37.1161 10.4869C37.2041 10.5257 37.2788 10.5895 37.3309 10.6703C37.3831 10.7512 37.4105 10.8456 37.4096 10.9419Z" fill="#CFE9BC"/>
<path d="M35.2153 11.4307C35.1509 11.4303 35.0872 11.4168 35.0282 11.391C34.9691 11.3652 34.9159 11.3277 34.8717 11.2807C34.8275 11.2337 34.7933 11.1782 34.7711 11.1176C34.7489 11.057 34.7392 10.9925 34.7426 10.9281C34.7429 10.8609 34.7571 10.7945 34.7843 10.7331C34.8115 10.6718 34.8512 10.6167 34.9007 10.5715C34.9503 10.5263 35.0087 10.4919 35.0723 10.4705C35.1358 10.4491 35.2031 10.4412 35.2699 10.4473C35.334 10.4491 35.3971 10.4641 35.4551 10.4914C35.5132 10.5187 35.5651 10.5576 35.6075 10.6059C35.6499 10.6541 35.682 10.7106 35.7017 10.7717C35.7214 10.8329 35.7283 10.8975 35.7221 10.9615C35.7217 11.0263 35.7081 11.0904 35.682 11.1497C35.6559 11.209 35.6179 11.2624 35.5704 11.3064C35.5228 11.3504 35.4668 11.3841 35.4057 11.4055C35.3447 11.4269 35.2799 11.4355 35.2153 11.4307Z" fill="#CFE9BC"/>
<path d="M34.028 10.9461C34.0203 11.2347 33.8234 11.4308 33.5424 11.4301C33.2474 11.4301 33.0466 11.2141 33.0594 10.9159C33.0598 10.8515 33.0733 10.7879 33.0993 10.729C33.1252 10.6701 33.163 10.6172 33.2102 10.5735C33.2574 10.5299 33.3131 10.4964 33.3738 10.4753C33.4345 10.4541 33.4989 10.4457 33.5629 10.4506C33.8471 10.4538 34.035 10.6556 34.028 10.9461Z" fill="#CFE9BC"/>
<path d="M40.3006 17.4748C40.4313 17.4748 40.5566 17.5268 40.6489 17.6194C40.7413 17.7119 40.7932 17.8375 40.7932 17.9684C40.7932 18.0993 40.7413 18.2249 40.6489 18.3175C40.5566 18.41 40.4313 18.4621 40.3006 18.4621C40.2336 18.4651 40.1667 18.4539 40.1042 18.4293C40.0418 18.4046 39.9853 18.367 39.9384 18.319C39.8915 18.2709 39.8552 18.2135 39.8319 18.1504C39.8087 18.0873 39.799 18.0201 39.8035 17.953C39.8044 17.8888 39.818 17.8254 39.8436 17.7664C39.8691 17.7075 39.9061 17.6543 39.9523 17.6098C39.9986 17.5653 40.0532 17.5305 40.113 17.5073C40.1727 17.4841 40.2365 17.4731 40.3006 17.4748Z" fill="#CFE9BC"/>
<path d="M36.9356 15.7252C36.9994 15.7255 37.0625 15.7386 37.1212 15.7638C37.1798 15.7889 37.2329 15.8255 37.2772 15.8716C37.3215 15.9176 37.3561 15.972 37.3791 16.0316C37.4021 16.0913 37.4129 16.1549 37.4109 16.2188C37.4109 16.5151 37.2018 16.7131 36.9029 16.7073C36.839 16.7094 36.7755 16.6981 36.7162 16.6742C36.6569 16.6504 36.6032 16.6144 36.5586 16.5687C36.5139 16.523 36.4792 16.4684 36.4566 16.4085C36.4341 16.3486 36.4242 16.2847 36.4276 16.2208C36.4261 16.1541 36.4383 16.0879 36.4635 16.0262C36.4887 15.9645 36.5263 15.9087 36.574 15.8622C36.6216 15.8157 36.6783 15.7795 36.7405 15.7559C36.8028 15.7324 36.8692 15.7219 36.9356 15.7252Z" fill="#CFE9BC"/>
<path d="M40.7786 19.7367C40.776 19.8336 40.7447 19.9276 40.6887 20.0067C40.6327 20.0857 40.5545 20.1463 40.464 20.1808C40.3735 20.2152 40.2749 20.2219 40.1806 20.2001C40.0864 20.1782 40.0007 20.1288 39.9345 20.058C39.8684 19.9873 39.8247 19.8984 39.809 19.8027C39.7933 19.707 39.8064 19.6088 39.8465 19.5206C39.8867 19.4324 39.9521 19.3581 40.0344 19.3072C40.1168 19.2563 40.2124 19.2311 40.3091 19.2347C40.3735 19.2345 40.4373 19.2476 40.4965 19.2731C40.5556 19.2987 40.6089 19.3362 40.653 19.3833C40.697 19.4304 40.7309 19.4861 40.7525 19.5469C40.7741 19.6077 40.783 19.6723 40.7786 19.7367Z" fill="#CFE9BC"/>
<path d="M40.7772 14.4687C40.7695 14.7695 40.5604 14.9604 40.2551 14.9456C40.1907 14.9443 40.1273 14.9297 40.0688 14.9026C40.0103 14.8756 39.958 14.8366 39.9153 14.7883C39.8726 14.74 39.8403 14.6834 39.8205 14.6219C39.8007 14.5605 39.7939 14.4956 39.8003 14.4314C39.8028 14.367 39.818 14.3038 39.845 14.2454C39.872 14.187 39.9102 14.1345 39.9576 14.091C40.005 14.0475 40.0605 14.0138 40.1209 13.9919C40.1813 13.97 40.2455 13.9604 40.3096 13.9635C40.3741 13.9636 40.4379 13.9771 40.497 14.0031C40.556 14.029 40.6092 14.0668 40.653 14.1142C40.6969 14.1616 40.7305 14.2175 40.7519 14.2785C40.7733 14.3395 40.7819 14.4042 40.7772 14.4687Z" fill="#CFE9BC"/>
<path d="M36.9092 20.997C36.9734 20.993 37.0378 21.0022 37.0983 21.024C37.1589 21.0459 37.2144 21.0799 37.2613 21.124C37.3082 21.1682 37.3457 21.2215 37.3712 21.2807C37.3968 21.3399 37.4101 21.4037 37.4101 21.4682C37.4148 21.5327 37.4065 21.5974 37.3855 21.6586C37.3646 21.7198 37.3315 21.7761 37.2883 21.8241C37.2451 21.8721 37.1927 21.9109 37.1341 21.9381C37.0756 21.9653 37.0121 21.9804 36.9476 21.9824C36.8808 21.9889 36.8133 21.981 36.7497 21.9594C36.6861 21.9377 36.6279 21.9026 36.5789 21.8566C36.5299 21.8105 36.4912 21.7545 36.4656 21.6923C36.4399 21.6301 36.4278 21.5631 36.43 21.4958C36.4274 21.4312 36.4379 21.3667 36.4608 21.3062C36.4837 21.2458 36.5186 21.1906 36.5634 21.144C36.6082 21.0974 36.6619 21.0603 36.7213 21.0351C36.7807 21.0098 36.8446 20.9969 36.9092 20.997Z" fill="#CFE9BC"/>
<path d="M40.779 21.4927C40.7806 21.5585 40.7689 21.624 40.7447 21.6852C40.7205 21.7464 40.6843 21.8021 40.6381 21.8489C40.592 21.8958 40.5369 21.9329 40.4762 21.958C40.4154 21.9831 40.3503 21.9956 40.2846 21.9949C40.2189 21.9942 40.154 21.9803 40.0938 21.9539C40.0336 21.9276 39.9793 21.8894 39.9341 21.8415C39.889 21.7937 39.8539 21.7373 39.831 21.6756C39.8081 21.6139 39.7978 21.5482 39.8008 21.4824C39.8011 21.4181 39.8143 21.3544 39.8396 21.2953C39.8649 21.2361 39.9018 21.1827 39.9481 21.1381C39.9944 21.0935 40.0491 21.0586 40.1091 21.0357C40.1691 21.0127 40.2331 21.002 40.2973 21.0042C40.3615 21.0024 40.4254 21.0138 40.4851 21.0378C40.5447 21.0618 40.5988 21.0978 40.644 21.1436C40.6892 21.1894 40.7244 21.244 40.7477 21.3041C40.7709 21.3641 40.7815 21.4283 40.779 21.4927Z" fill="#CFE9BC"/>
<path d="M31.8532 17.4731C31.9176 17.4702 31.9818 17.4805 32.042 17.5034C32.1022 17.5263 32.1571 17.5612 32.2034 17.6061C32.2496 17.651 32.2862 17.7049 32.3109 17.7645C32.3357 17.8241 32.348 17.8881 32.3471 17.9526C32.3508 18.017 32.3414 18.0815 32.3197 18.1422C32.2979 18.2029 32.2642 18.2587 32.2205 18.306C32.1768 18.3534 32.124 18.3915 32.0653 18.418C32.0067 18.4445 31.9432 18.459 31.8789 18.4604C31.812 18.4658 31.7447 18.4568 31.6815 18.4341C31.6183 18.4113 31.5607 18.3753 31.5125 18.3285C31.4642 18.2816 31.4266 18.225 31.4019 18.1624C31.3773 18.0998 31.3663 18.0327 31.3696 17.9655C31.368 17.901 31.3793 17.8369 31.4029 17.7769C31.4265 17.717 31.462 17.6624 31.5071 17.6164C31.5522 17.5705 31.6062 17.5341 31.6656 17.5095C31.7251 17.4849 31.7889 17.4725 31.8532 17.4731Z" fill="#CFE9BC"/>
<path d="M28.9676 17.9462C28.974 18.2386 28.7906 18.4449 28.5116 18.4604C28.381 18.4651 28.2539 18.4177 28.1582 18.3286C28.0625 18.2395 28.0061 18.1159 28.0013 17.9851C27.9965 17.8542 28.0438 17.7268 28.1328 17.631C28.2217 17.5351 28.3451 17.4785 28.4756 17.4737C28.5396 17.4693 28.6039 17.4784 28.6642 17.5003C28.7245 17.5222 28.7796 17.5565 28.8259 17.6009C28.8722 17.6454 28.9087 17.6991 28.9331 17.7586C28.9575 17.818 28.9693 17.8819 28.9676 17.9462Z" fill="#CFE9BC"/>
<path d="M31.8442 16.7083C31.7799 16.7106 31.7157 16.6994 31.656 16.6752C31.5963 16.6511 31.5423 16.6146 31.4976 16.5681C31.4529 16.5217 31.4184 16.4663 31.3965 16.4056C31.3745 16.345 31.3656 16.2803 31.3702 16.216C31.3691 16.1488 31.382 16.0822 31.4081 16.0204C31.4342 15.9585 31.473 15.9028 31.5219 15.8569C31.5707 15.8109 31.6286 15.7758 31.6919 15.7536C31.7551 15.7314 31.8223 15.7227 31.8891 15.7281C31.9534 15.7301 32.0166 15.7451 32.0749 15.7724C32.1332 15.7996 32.1854 15.8385 32.2282 15.8866C32.271 15.9348 32.3035 15.9911 32.3239 16.0523C32.3442 16.1134 32.3519 16.1781 32.3465 16.2423C32.3317 16.5322 32.1361 16.7141 31.8442 16.7083Z" fill="#CFE9BC"/>
<path d="M28.4869 16.708C28.1957 16.708 28.0052 16.5229 27.9994 16.2324C27.9954 16.1654 28.0054 16.0983 28.029 16.0356C28.0526 15.9728 28.0891 15.9157 28.1362 15.868C28.1833 15.8203 28.2399 15.7831 28.3023 15.7588C28.3648 15.7346 28.4316 15.7238 28.4984 15.7272C28.7787 15.731 28.9718 15.9361 28.9673 16.2253C28.9628 16.5145 28.7775 16.7061 28.4869 16.708Z" fill="#CFE9BC"/>
<path d="M28.9679 21.4944C28.9627 21.7842 28.7697 21.9809 28.4881 21.9822C28.1937 21.9822 27.991 21.7707 28.0012 21.468C28.0013 21.4037 28.0145 21.3402 28.0399 21.2812C28.0653 21.2222 28.1025 21.169 28.1492 21.1249C28.1958 21.0808 28.251 21.0467 28.3112 21.0247C28.3715 21.0027 28.4356 20.9932 28.4996 20.9969C28.7818 21.0033 28.973 21.2051 28.9679 21.4944Z" fill="#CFE9BC"/>
<path d="M31.8785 20.9971C31.9761 21.0001 32.0705 21.0323 32.1498 21.0894C32.2291 21.1465 32.2896 21.2259 32.3236 21.3176C32.3576 21.4093 32.3636 21.5091 32.3408 21.6042C32.3179 21.6994 32.2674 21.7855 32.1955 21.8517C32.1236 21.9179 32.0337 21.9611 31.9371 21.9759C31.8406 21.9906 31.7419 21.9762 31.6536 21.9345C31.5653 21.8928 31.4914 21.8257 31.4413 21.7417C31.3912 21.6578 31.3672 21.5607 31.3724 21.4631C31.3737 21.3987 31.3881 21.3353 31.4145 21.2767C31.4409 21.2181 31.4789 21.1654 31.5262 21.1218C31.5735 21.0783 31.6291 21.0448 31.6896 21.0234C31.7502 21.0019 31.8144 20.993 31.8785 20.9971Z" fill="#CFE9BC"/>
<path d="M42.3419 29.3751C42.3034 29.6155 42.2835 29.8147 42.2373 30.0076C41.2219 34.2729 36.705 36.6922 32.6326 35.0853C30.2029 34.127 28.7199 32.2964 28.1779 29.7202C28.1195 29.4407 28.192 29.3526 28.4704 29.3706C28.8001 29.3912 29.2125 29.2652 29.4396 29.4207C29.6544 29.5692 29.6795 29.9992 29.7827 30.3064C30.9687 33.8249 35.3388 35.2968 38.4029 33.2194C39.6857 32.351 40.5099 31.1767 40.8602 29.6708C40.9102 29.4561 40.9885 29.359 41.2174 29.3699C41.5766 29.3873 41.9371 29.3751 42.3419 29.3751Z" fill="#CFE9BC"/>
<path d="M31.0593 29.3798C31.4871 29.3798 31.9117 29.3702 32.3344 29.3894C32.4075 29.3927 32.4999 29.5058 32.541 29.5893C33.2504 31.0426 34.7327 31.6757 36.2465 31.1532C36.6079 31.0318 36.9401 30.8361 37.2218 30.5787C37.5035 30.3212 37.7284 30.0077 37.8821 29.6581C37.9854 29.4344 38.1092 29.3592 38.342 29.3702C38.6916 29.3862 39.0431 29.374 39.3959 29.374C39.2772 30.7701 37.6756 32.6701 35.3549 32.7388C33.0342 32.8076 31.2716 30.9867 31.0593 29.3798Z" fill="#CFE9BC"/>
</g>
<path fill-rule="evenodd" clip-rule="evenodd" d="M113.744 28.3089C114.213 28.9285 114.448 29.9112 114.448 31.2572V40.6786H118.733V30.1996C118.733 29.3878 118.659 28.5867 118.509 27.7962C118.381 27.0057 118.136 26.3007 117.774 25.6812C117.433 25.0403 116.921 24.5382 116.239 24.175C115.578 23.7905 114.725 23.5982 113.68 23.5982C112.721 23.5982 111.804 23.7371 110.93 24.0148C110.077 24.2712 109.321 24.6557 108.66 25.1684C107.999 25.6598 107.455 26.2687 107.029 26.9951V23.8866H103.159V40.6786H107.444V30.8726C107.658 30.189 107.999 29.5908 108.468 29.078C108.937 28.5439 109.459 28.1273 110.035 27.8283C110.632 27.5292 111.218 27.3796 111.794 27.3796C112.625 27.3796 113.275 27.6894 113.744 28.3089ZM125.945 40.1339C126.883 40.5611 127.907 40.7748 129.015 40.7748C130.145 40.7748 131.211 40.5184 132.213 40.0057C133.237 39.4716 134.025 38.7239 134.58 37.7625V39.8775C134.58 40.9671 134.345 41.8537 133.876 42.5373C133.428 43.2423 132.821 43.7551 132.053 44.0755C131.307 44.4173 130.476 44.5882 129.559 44.5882C128.472 44.5882 127.438 44.3639 126.457 43.9153C125.497 43.4666 124.698 42.8471 124.058 42.0566L121.724 44.3319C122.619 45.4428 123.696 46.2974 124.954 46.8955C126.212 47.5151 127.747 47.8249 129.559 47.8249C131.35 47.8249 132.949 47.5044 134.356 46.8635C135.763 46.2439 136.861 45.336 137.65 44.1396C138.46 42.9646 138.865 41.5439 138.865 39.8775V23.8866H135.123V26.8348C134.484 25.8521 133.674 25.0723 132.693 24.4955C131.712 23.8973 130.572 23.5982 129.271 23.5982C128.12 23.5982 127.064 23.8225 126.105 24.2712C125.167 24.6984 124.346 25.318 123.643 26.1298C122.96 26.9203 122.427 27.8389 122.044 28.8858C121.66 29.9326 121.468 31.0649 121.468 32.2826C121.468 33.4363 121.649 34.5258 122.012 35.5513C122.374 36.5768 122.886 37.4847 123.547 38.2752C124.229 39.0657 125.028 39.6852 125.945 40.1339ZM131.797 37.1216C131.371 37.2711 130.923 37.3459 130.454 37.3459C129.815 37.3459 129.207 37.2177 128.631 36.9613C128.077 36.705 127.587 36.3525 127.16 35.9038C126.755 35.4552 126.436 34.9318 126.201 34.3336C125.966 33.7354 125.849 33.0945 125.849 32.4108C125.849 31.7485 125.945 31.1183 126.137 30.5201C126.35 29.9006 126.649 29.3451 127.032 28.8537C127.416 28.341 127.875 27.9458 128.408 27.668C128.941 27.3903 129.538 27.2514 130.198 27.2514C130.817 27.2514 131.403 27.3903 131.957 27.668C132.533 27.9244 133.045 28.2983 133.492 28.7896C133.961 29.281 134.324 29.8578 134.58 30.5201V34.5258C134.43 34.889 134.217 35.2522 133.94 35.6154C133.663 35.9572 133.343 36.2563 132.981 36.5127C132.618 36.7691 132.224 36.972 131.797 37.1216ZM146.789 40.3261C147.877 40.7748 149.102 40.9991 150.467 40.9991C151.831 40.9991 153.057 40.7748 154.145 40.3261C155.232 39.8561 156.149 39.2152 156.895 38.4034C157.662 37.5916 158.238 36.6622 158.622 35.6154C159.027 34.5686 159.229 33.4683 159.229 32.3147C159.229 31.1397 159.027 30.0287 158.622 28.9819C158.238 27.9351 157.662 27.0057 156.895 26.1939C156.127 25.3821 155.2 24.7518 154.113 24.3032C153.047 23.8332 151.831 23.5982 150.467 23.5982C149.102 23.5982 147.877 23.8332 146.789 24.3032C145.702 24.7518 144.775 25.3821 144.007 26.1939C143.261 27.0057 142.685 27.9351 142.28 28.9819C141.875 30.0287 141.673 31.1397 141.673 32.3147C141.673 33.4683 141.875 34.5686 142.28 35.6154C142.685 36.6622 143.261 37.5916 144.007 38.4034C144.775 39.2152 145.702 39.8561 146.789 40.3261ZM146.661 34.9424C146.278 34.1733 146.086 33.2974 146.086 32.3147C146.086 31.3319 146.278 30.4667 146.661 29.719C147.045 28.9499 147.567 28.3517 148.228 27.9244C148.889 27.4757 149.635 27.2514 150.467 27.2514C151.277 27.2514 152.013 27.4651 152.674 27.8923C153.334 28.3196 153.857 28.9178 154.241 29.6869C154.646 30.456 154.848 31.3213 154.848 32.2826C154.848 33.2654 154.646 34.1413 154.241 34.9104C153.857 35.6581 153.334 36.2563 152.674 36.705C152.013 37.1322 151.277 37.3459 150.467 37.3459C149.635 37.3459 148.889 37.1322 148.228 36.705C147.567 36.2777 147.045 35.6902 146.661 34.9424ZM182.916 23.2777C183.321 23.5341 183.598 23.7371 183.747 23.8866L185.698 20.2975C185.037 19.8488 184.291 19.4322 183.46 19.0477C182.628 18.6631 181.733 18.3534 180.773 18.1183C179.835 17.8833 178.833 17.7658 177.767 17.7658C176.232 17.7658 174.836 18.0436 173.578 18.599C172.32 19.1331 171.318 19.9343 170.572 21.0025C169.847 22.0493 169.484 23.3525 169.484 24.9121C169.484 26.0657 169.719 27.0271 170.188 27.7962C170.657 28.5653 171.371 29.2062 172.331 29.719C173.29 30.2103 174.484 30.659 175.912 31.0649C177.106 31.4067 178.14 31.7272 179.014 32.0263C179.888 32.304 180.571 32.6351 181.061 33.0197C181.551 33.4042 181.797 33.9383 181.797 34.622C181.797 35.3697 181.487 35.9465 180.869 36.3525C180.251 36.7584 179.345 36.9613 178.151 36.9613C177.298 36.9613 176.456 36.8545 175.625 36.6409C174.793 36.4272 174.026 36.1709 173.322 35.8718C172.618 35.5513 172.021 35.2415 171.531 34.9424C171.041 34.622 170.7 34.3656 170.508 34.1733L168.557 37.9868C169.431 38.6063 170.391 39.1404 171.435 39.5891C172.48 40.0164 173.567 40.3475 174.697 40.5825C175.827 40.8175 176.957 40.935 178.087 40.935C179.217 40.935 180.283 40.8175 181.285 40.5825C182.287 40.3261 183.182 39.9309 183.971 39.3968C184.76 38.8627 185.378 38.1684 185.826 37.3138C186.274 36.4379 186.498 35.3911 186.498 34.1733C186.498 32.7847 186.199 31.6738 185.602 30.8406C185.027 29.986 184.184 29.3024 183.076 28.7896C181.988 28.2555 180.699 27.8069 179.206 27.4437C178.055 27.1446 177.096 26.8669 176.328 26.6105C175.561 26.3541 174.985 26.0444 174.601 25.6812C174.217 25.318 174.026 24.8266 174.026 24.2071C174.026 23.3952 174.324 22.765 174.921 22.3164C175.539 21.8677 176.445 21.6434 177.639 21.6434C178.321 21.6434 178.993 21.7395 179.654 21.9318C180.315 22.1027 180.922 22.3057 181.477 22.5407C182.052 22.7757 182.532 23.0214 182.916 23.2777ZM195.911 40.1339C196.913 40.7107 198.064 40.9991 199.365 40.9991C200.793 40.9991 202.051 40.6146 203.138 39.8455C204.247 39.055 205.11 37.9975 205.729 36.6729C206.368 35.3484 206.688 33.8742 206.688 32.2506C206.688 31.0542 206.485 29.9433 206.08 28.9178C205.697 27.871 205.153 26.9523 204.449 26.1619C203.746 25.35 202.914 24.7198 201.955 24.2712C201.017 23.8225 199.983 23.5982 198.853 23.5982C197.595 23.5982 196.476 23.8866 195.495 24.4634C194.514 25.0189 193.704 25.788 193.065 26.7707V23.8866H189.323V47.5044H193.608V37.7304C194.163 38.7345 194.93 39.5357 195.911 40.1339ZM199.716 36.9293C199.183 37.207 198.586 37.3459 197.926 37.3459C197.329 37.3459 196.742 37.207 196.167 36.9293C195.591 36.6302 195.079 36.2243 194.632 35.7115C194.205 35.1988 193.864 34.6327 193.608 34.0131V30.0715C193.736 29.6655 193.939 29.2917 194.216 28.9499C194.514 28.608 194.855 28.3089 195.239 28.0526C195.623 27.7962 196.017 27.6039 196.422 27.4757C196.849 27.3262 197.265 27.2514 197.67 27.2514C198.331 27.2514 198.938 27.3796 199.493 27.636C200.068 27.8923 200.569 28.2555 200.996 28.7255C201.422 29.1742 201.742 29.6976 201.955 30.2958C202.189 30.894 202.307 31.5456 202.307 32.2506C202.307 32.9129 202.2 33.5538 201.987 34.1733C201.795 34.7715 201.497 35.3163 201.092 35.8077C200.708 36.2777 200.249 36.6516 199.716 36.9293ZM220.113 28.341C220.624 28.9819 220.88 29.954 220.88 31.2572V40.6786H225.166V30.1996C225.166 29.3665 225.091 28.5653 224.942 27.7962C224.792 27.0057 224.526 26.3007 224.142 25.6812C223.758 25.0403 223.225 24.5382 222.543 24.175C221.861 23.7905 220.976 23.5982 219.889 23.5982C218.631 23.5982 217.469 23.8973 216.403 24.4955C215.337 25.0937 214.495 25.9269 213.877 26.9951V17.2852H209.591V40.6786H213.877V30.8726C214.09 30.189 214.42 29.5908 214.868 29.078C215.337 28.5439 215.859 28.1273 216.435 27.8283C217.011 27.5292 217.554 27.3796 218.066 27.3796C218.94 27.3796 219.622 27.7001 220.113 28.341ZM233.017 40.3261C234.104 40.7748 235.32 40.9991 236.663 40.9991C237.899 40.9991 239.029 40.8175 240.053 40.4543C241.076 40.0698 241.961 39.5464 242.707 38.8841C243.474 38.2218 244.061 37.4634 244.466 36.6088L240.788 35.5834C240.511 36.267 239.989 36.8225 239.221 37.2497C238.475 37.6557 237.675 37.8586 236.823 37.8586C236.076 37.8586 235.373 37.6984 234.712 37.3779C234.072 37.0361 233.539 36.5447 233.113 35.9038C232.708 35.2629 232.463 34.5152 232.378 33.6606H245.329C245.351 33.4897 245.372 33.2761 245.393 33.0197C245.415 32.742 245.425 32.4749 245.425 32.2185C245.425 30.7017 245.073 29.2917 244.37 27.9885C243.688 26.6639 242.696 25.6064 241.396 24.8159C240.095 24.0041 238.528 23.5982 236.695 23.5982C234.883 23.5982 233.305 24.0041 231.962 24.8159C230.64 25.6064 229.617 26.6639 228.892 27.9885C228.188 29.313 227.836 30.7765 227.836 32.3788C227.836 33.5324 228.039 34.6327 228.444 35.6795C228.87 36.705 229.467 37.6236 230.235 38.4354C231.002 39.2259 231.93 39.8561 233.017 40.3261ZM240.308 28.7255C240.714 29.3451 240.959 30.0821 241.044 30.9367H232.282C232.367 30.0821 232.601 29.3451 232.985 28.7255C233.39 28.0846 233.902 27.5932 234.52 27.2514C235.16 26.8882 235.863 26.7066 236.631 26.7066C237.42 26.7066 238.134 26.8882 238.773 27.2514C239.413 27.5932 239.925 28.0846 240.308 28.7255ZM254.528 28.373C255.551 27.8603 256.713 27.6039 258.013 27.6039V23.6943C257.928 23.673 257.822 23.6623 257.694 23.6623H257.15C256.127 23.7264 255.157 24.0896 254.24 24.7518C253.323 25.4141 252.566 26.3221 251.969 27.4757V23.8866H248.036V40.6786H252.321V30.5201C252.769 29.5801 253.504 28.8644 254.528 28.373ZM264.31 40.3261C265.397 40.7748 266.612 40.9991 267.955 40.9991C269.192 40.9991 270.322 40.8175 271.345 40.4543C272.369 40.0698 273.253 39.5464 274 38.8841C274.767 38.2218 275.353 37.4634 275.758 36.6088L272.081 35.5834C271.804 36.267 271.281 36.8225 270.514 37.2497C269.768 37.6557 268.968 37.8586 268.115 37.8586C267.369 37.8586 266.666 37.6984 266.005 37.3779C265.365 37.0361 264.832 36.5447 264.406 35.9038C264.001 35.2629 263.755 34.5152 263.67 33.6606H276.622C276.643 33.4897 276.665 33.2761 276.686 33.0197C276.707 32.742 276.718 32.4749 276.718 32.2185C276.718 30.7017 276.366 29.2917 275.663 27.9885C274.98 26.6639 273.989 25.6064 272.688 24.8159C271.388 24.0041 269.821 23.5982 267.987 23.5982C266.175 23.5982 264.598 24.0041 263.254 24.8159C261.933 25.6064 260.909 26.6639 260.184 27.9885C259.481 29.313 259.129 30.7765 259.129 32.3788C259.129 33.5324 259.332 34.6327 259.737 35.6795C260.163 36.705 260.76 37.6236 261.528 38.4354C262.295 39.2259 263.222 39.8561 264.31 40.3261ZM271.601 28.7255C272.006 29.3451 272.251 30.0821 272.337 30.9367H263.574C263.659 30.0821 263.894 29.3451 264.278 28.7255C264.683 28.0846 265.195 27.5932 265.813 27.2514C266.452 26.8882 267.156 26.7066 267.923 26.7066C268.712 26.7066 269.426 26.8882 270.066 27.2514C270.706 27.5932 271.217 28.0846 271.601 28.7255ZM76.7482 17.9261V40.6786H92.738V36.8011H81.1614V17.9261H76.7482ZM95.0081 23.8866V40.6786H99.2933V23.8866H95.0081ZM95.0081 17.2852V21.5473H99.2933V17.2852H95.0081Z" fill="white"/>
<defs>
<clipPath id="clip0_4103_8501">
<rect width="70.4754" height="56.6498" fill="white" transform="translate(0 4.71484)"/>
</clipPath>
</defs>
</svg>
