<svg width="283" height="53" viewBox="0 0 283 53" fill="none" xmlns="http://www.w3.org/2000/svg">
<g clip-path="url(#clip0_4103_8231)">
<path d="M65.964 28.4067C66.1502 27.8886 66.3359 27.3713 66.5211 26.8548C66.897 25.8032 67.2745 24.7516 67.6414 23.6967C67.6684 23.6194 67.6516 23.4881 67.6005 23.4284C66.508 22.1523 66.0303 20.6667 66.0392 18.9995C66.0515 16.7711 66.0393 14.5411 66.0478 12.314C66.0589 10.0459 67.0054 8.23148 68.8783 6.98396C71.1218 5.48979 73.4946 5.42966 75.8011 6.81789C77.8388 8.04497 78.8552 9.94121 78.8859 12.3217C78.915 14.618 78.8941 16.9151 78.8921 19.2118C78.8921 21.0303 78.2376 22.5899 76.9349 23.8456C75.727 25.0109 74.2648 25.6351 72.5685 25.6621C71.9611 25.6737 71.3555 25.5942 70.7717 25.4261C70.7113 25.4057 70.6469 25.4004 70.584 25.4109C70.5212 25.4213 70.4619 25.447 70.4113 25.4858C69.0054 26.4339 67.5976 27.3796 66.1881 28.3228C66.1272 28.3637 66.0654 28.4009 66.0016 28.4402L65.964 28.4067ZM72.4597 15.1583H77.3648C77.4875 15.1583 77.6139 15.1857 77.6102 14.9861C77.5979 13.9848 77.6543 12.9786 77.5742 11.9831C77.3967 9.77719 76.2465 8.23353 74.1707 7.46333C72.517 6.8498 70.921 7.10176 69.4882 8.11777C68.1384 9.07776 67.4021 10.4181 67.3322 12.0853C67.2937 13.0171 67.3265 13.9521 67.3273 14.8855C67.3273 15.1575 67.3273 15.1583 67.5927 15.1583H72.4597ZM71.3459 19.0641L71.3811 19.0171C71.355 19.0113 71.3285 19.0074 71.3018 19.0056C70.0341 19.0056 68.7661 19.0044 67.4978 19.0019C67.3575 19.0019 67.3277 19.0641 67.3269 19.1885C67.316 20.2606 67.641 21.3093 68.2564 22.1874C68.8718 23.0655 69.7466 23.7289 70.7582 24.0845C72.1215 24.572 73.4786 24.4935 74.7609 23.8207C76.6015 22.8529 77.5423 21.2982 77.6114 19.2175C77.6171 19.0412 77.5488 18.9999 77.3856 19.0007C76.1793 19.0059 74.973 19.0059 73.767 19.0007C73.5927 19.0007 73.5216 19.0465 73.4876 19.2261C73.4099 19.6175 73.1604 19.8805 72.78 20.0032C72.3918 20.1259 72.0192 20.0601 71.748 19.7533C71.5766 19.5558 71.4777 19.2952 71.3459 19.0641Z" fill="#CFE9BC"/>
<path d="M74.2217 28.0952C74.2961 28.1746 74.3526 28.2281 74.4012 28.2879C74.6552 28.5975 74.9452 28.8859 75.1518 29.2245C75.6545 30.0483 75.5199 30.8647 74.8217 31.5363C74.3063 32.0321 73.6891 32.365 73.0318 32.6178C72.2764 32.9086 71.5021 33.1495 70.7462 33.4404C70.2439 33.633 69.7645 33.8788 69.3964 34.2956C68.8696 34.8957 69.126 35.4716 69.6009 35.9264C69.6451 35.9673 69.74 35.9739 69.8095 35.9702C70.2521 35.9465 70.6934 35.9088 71.1356 35.8884C71.2959 35.8814 71.3454 35.8209 71.345 35.6655C71.343 35.0662 71.354 34.467 71.3536 33.8657C71.3536 33.7533 71.3867 33.7021 71.4963 33.6612C72.161 33.4199 72.8224 33.1704 73.485 32.9221C73.5208 32.9123 73.5571 32.9046 73.5938 32.8988V37.048L73.6494 37.0623C73.6814 37.0083 73.7157 36.9559 73.7443 36.8987C73.8904 36.6123 74.0307 36.326 74.1853 36.0454C74.2192 35.9841 74.3174 35.9162 74.3816 35.9203C75.7019 36.0066 77.0186 36.1248 78.2776 36.5747C78.3981 36.6217 78.5153 36.677 78.6281 36.7404C78.8858 36.8766 79.0163 37.0786 79.0015 37.3854C78.984 37.7593 78.9889 38.1351 79.0015 38.5094C79.0097 38.7646 78.9042 38.9364 78.6911 39.0628C78.1831 39.3639 77.619 39.4964 77.0493 39.6019C74.8712 40.006 72.6727 40.0461 70.4697 39.9177C69.4062 39.8559 68.3501 39.7406 67.3202 39.471C66.9607 39.377 66.6138 39.2256 66.2727 39.0759C66.0342 38.9712 65.9315 38.7691 65.9422 38.4955C65.9581 38.0942 65.9528 37.6914 65.9422 37.2893C65.9373 37.0848 66.0052 36.9073 66.1831 36.8279C66.5773 36.6477 66.9814 36.4899 67.3934 36.3555C67.7161 36.2536 68.0585 36.2127 68.3918 36.1432C68.444 36.1293 68.4953 36.1127 68.5456 36.0933C68.4765 35.9481 68.4057 35.8188 68.3513 35.6843C68.0397 34.9047 68.2393 34.2253 68.7898 33.6363C69.2896 33.1017 69.9351 32.7867 70.6055 32.5266C70.7957 32.453 70.9896 32.3879 71.1847 32.3278C71.3008 32.2922 71.3483 32.2272 71.3458 32.1053C71.3421 30.8582 71.3389 29.6102 71.3458 28.3635C71.3458 28.1517 71.2022 28.159 71.0755 28.1414C70.328 28.0227 69.5987 27.8098 68.9048 27.5079C68.8745 27.4952 68.8463 27.4772 68.791 27.4481C68.8296 27.4087 68.8706 27.3716 68.9138 27.3373C69.4729 26.9602 70.0304 26.5802 70.5957 26.2129C70.6856 26.1587 70.7918 26.1379 70.8955 26.1544C73.492 26.6681 75.7359 25.9908 77.5875 24.1121C78.9443 22.7349 79.5619 21.0375 79.5509 19.1085C79.5509 18.8701 79.557 18.6312 79.5509 18.3931C79.5468 18.2557 79.5881 18.1976 79.7353 18.1993C80.2601 18.2058 80.7849 18.2029 81.3097 18.2013C81.4082 18.2013 81.477 18.2095 81.4798 18.34C81.5085 19.5785 81.4635 20.8088 81.0495 21.9942C80.0347 24.8983 78.078 26.8559 75.1596 27.8388C74.8643 27.9369 74.5587 28.0036 74.2217 28.0952ZM73.6196 28.8495V31.3445C73.8302 31.1809 73.9971 31.0692 74.1468 30.9355C74.3513 30.7535 74.4851 30.5265 74.5035 30.2446C74.5321 29.8184 74.0384 29.0352 73.6196 28.8495Z" fill="white"/>
<path d="M65.3839 14.2614C65.3839 15.1273 65.3794 15.9928 65.3876 16.8587C65.3897 17.0358 65.3422 17.0943 65.159 17.0914C64.4366 17.0791 63.7143 17.0865 62.9911 17.0791C62.2254 17.071 61.6004 16.4779 61.5878 15.7122C61.5702 14.7305 61.5726 13.7489 61.5878 12.7672C61.5984 12.042 62.1993 11.455 62.9453 11.4174C63.2648 11.4019 63.5863 11.4039 63.9061 11.4174C64.0791 11.4235 64.1515 11.3843 64.1769 11.1929C64.367 9.66881 64.986 8.23009 65.9619 7.04411C67.2654 5.44686 68.9314 4.41653 70.9651 4.07295C73.962 3.56657 76.5278 4.44352 78.6208 6.64981C79.2045 7.26744 79.6544 7.97423 80.0193 8.74811C80.3839 9.5248 80.6288 10.3522 80.7457 11.2023C80.7674 11.3569 80.823 11.4264 80.9911 11.4186C81.2971 11.4047 81.6046 11.4072 81.911 11.415C82.7262 11.4366 83.3205 11.9847 83.3426 12.7946C83.3699 13.7763 83.3699 14.7579 83.3426 15.7396C83.3234 16.4717 82.7221 17.0509 81.9895 17.0714C81.2337 17.093 80.4761 17.0787 79.7203 17.089C79.5399 17.0914 79.5477 16.9875 79.5477 16.8648C79.5477 15.2901 79.5779 13.7153 79.5337 12.1414C79.4732 10.0046 78.62 8.22415 76.9696 6.84737C75.5012 5.62029 73.7996 5.0951 71.9009 5.23213C70.5574 5.32348 69.2716 5.81336 68.2078 6.63917C66.6094 7.86625 65.6461 9.47576 65.4318 11.4824C65.3414 12.3254 65.3962 13.1844 65.3852 14.036C65.3852 14.1108 65.3852 14.1857 65.3852 14.2605L65.3839 14.2614ZM80.8295 14.2409C80.8295 14.697 80.8332 15.1534 80.8271 15.6095C80.8271 15.7608 80.8794 15.8173 81.0316 15.8083C81.2218 15.7972 81.4128 15.805 81.6042 15.7997C81.8816 15.7915 82.0648 15.6336 82.0681 15.36C82.0776 14.6238 82.0776 13.8885 82.0681 13.1541C82.0644 12.8834 81.8816 12.7181 81.6087 12.7042C81.439 12.696 81.2684 12.7005 81.0983 12.6993C80.834 12.6968 80.8344 12.6968 80.8344 12.9533C80.8314 13.3841 80.8298 13.8133 80.8295 14.2409ZM64.1033 14.2565H64.1008C64.1008 13.8008 64.0975 13.3447 64.1008 12.8891C64.1008 12.7492 64.0521 12.6915 63.9098 12.6981C63.7266 12.7067 63.5417 12.6981 63.3588 12.703C63.0517 12.7132 62.8799 12.8809 62.868 13.1873C62.8598 13.4049 62.8647 13.6229 62.8647 13.8417C62.8647 14.3325 62.8598 14.8234 62.868 15.3113C62.8733 15.6275 63.0443 15.7911 63.3486 15.7964C63.5257 15.7997 63.7032 15.7919 63.8803 15.8038C64.0472 15.8152 64.1094 15.7563 64.1057 15.5846C64.0971 15.1428 64.1033 14.7007 64.1033 14.2581V14.2565Z" fill="white"/>
<path d="M60.8095 17.8211C60.8095 19.2732 60.8095 20.7252 60.8095 22.1772C60.8095 22.5576 60.5464 22.8795 60.1988 22.9442C59.8073 23.017 59.4548 22.8468 59.3116 22.4942C59.2601 22.3658 59.2527 22.2165 59.2429 22.0754C59.2278 21.8517 59.2408 21.6255 59.2188 21.4021C59.1994 21.2204 59.1135 21.0522 58.9775 20.9299C58.8416 20.8077 58.6653 20.74 58.4825 20.7399C58.2966 20.7426 58.1183 20.8136 57.9815 20.9395C57.8447 21.0653 57.759 21.2372 57.7409 21.4222C57.7234 21.6267 57.7348 21.8312 57.7303 22.0357C57.7205 22.5004 57.3994 22.8362 56.9568 22.8464C56.5212 22.857 56.1797 22.5245 56.1605 22.0615C56.1515 21.8643 56.1605 21.6656 56.1474 21.4688C56.1155 21.0471 55.7985 20.7403 55.4087 20.7403C55.2081 20.7413 55.0161 20.8213 54.8741 20.9629C54.7321 21.1046 54.6517 21.2965 54.6503 21.497C54.6369 22.2942 54.654 23.0922 54.6389 23.8894C54.6391 24.0976 54.5933 24.3032 54.5047 24.4915C54.3579 24.7778 53.9906 24.9054 53.6949 24.8298C53.3541 24.7386 53.1177 24.4776 53.0875 24.1398C53.076 24.0109 53.0785 23.8808 53.0785 23.7516C53.0785 22.3948 53.0883 21.0385 53.0744 19.6818C53.0699 19.4666 53.0085 19.2565 52.8964 19.0727C52.7214 18.7979 52.4216 18.7435 52.1136 18.8159C51.8223 18.885 51.608 19.1492 51.5843 19.4724C51.5598 19.8147 51.4518 20.0969 51.1241 20.2556C50.6153 20.5011 50.0198 20.153 50.0075 19.5869C49.9944 18.919 50.0026 18.251 50.0022 17.5827C50.0022 17.0853 49.9981 16.5875 50.0022 16.0901C50.0017 15.8872 50.0795 15.6918 50.2194 15.5447C50.3592 15.3976 50.5504 15.3101 50.7532 15.3003C50.9495 15.293 51.1413 15.3604 51.29 15.4889C51.4387 15.6174 51.5332 15.7974 51.5544 15.9928C51.5847 16.2971 51.5688 16.6063 51.5757 16.9119C51.5835 17.2391 51.718 17.4886 52.0285 17.6256C52.1251 17.669 52.23 17.691 52.3359 17.6899C52.4419 17.6888 52.5463 17.6647 52.642 17.6194C52.7377 17.574 52.8224 17.5083 52.8903 17.427C52.9582 17.3457 53.0076 17.2506 53.0351 17.1483C53.0647 17.0223 53.0785 16.8932 53.076 16.7638C53.0785 15.0798 53.0817 13.3963 53.076 11.7123C53.076 11.3724 53.1631 11.0922 53.4629 10.9115C53.973 10.6043 54.6258 10.9483 54.6373 11.5442C54.654 12.4302 54.6471 13.3165 54.6471 14.2029C54.6471 15.7298 54.6446 17.2567 54.6471 18.784C54.6471 19.258 54.8819 19.5648 55.2827 19.6327C55.6835 19.7006 56.0778 19.4531 56.1241 19.0478C56.1699 18.6506 56.1515 18.2461 56.1609 17.8444C56.174 17.2718 56.6538 16.92 57.1982 17.0804C57.3455 17.1268 57.4749 17.2173 57.569 17.3398C57.663 17.4623 57.717 17.6108 57.7238 17.7651C57.7393 18.1332 57.7238 18.5013 57.7364 18.8695C57.7536 19.3881 58.1508 19.719 58.6318 19.6286C58.7809 19.6039 58.918 19.5319 59.023 19.4232C59.128 19.3146 59.1954 19.1751 59.2151 19.0253C59.2331 18.8971 59.2417 18.7678 59.2408 18.6384C59.2408 16.9548 59.2376 15.2713 59.2408 13.5873C59.2357 13.4383 59.2587 13.2897 59.3087 13.1492C59.4589 12.786 59.8192 12.62 60.2172 12.703C60.5522 12.7729 60.8078 13.0924 60.8086 13.4662C60.8114 14.9183 60.8114 16.3702 60.8086 17.8219L60.8095 17.8211Z" fill="#CFE9BC"/>
<path d="M84.1267 18.6383C84.1267 16.9749 84.1267 15.3115 84.1267 13.6482C84.1267 13.1647 84.4457 12.8273 84.8969 12.8191C85.3202 12.8113 85.674 13.1173 85.681 13.541C85.6965 14.5767 85.6908 15.6127 85.6933 16.6496C85.6933 16.8541 85.6896 17.0586 85.6933 17.2631C85.7051 17.7495 86.0135 18.0726 86.459 18.0706C86.8933 18.0685 87.1952 17.7462 87.2067 17.2685C87.2116 17.0709 87.2067 16.8733 87.2107 16.6758C87.2159 16.4782 87.2958 16.2899 87.4343 16.1489C87.5728 16.008 87.7596 15.9247 87.9571 15.9161C88.1545 15.9074 88.3479 15.9739 88.4982 16.1022C88.6486 16.2306 88.7446 16.4111 88.7671 16.6075C88.7888 16.8165 88.7802 17.0292 88.783 17.2402C88.79 17.7413 89.0771 18.0652 89.5193 18.0697C89.9721 18.0746 90.2854 17.7495 90.287 17.246C90.2919 15.7399 90.287 14.2339 90.287 12.7279C90.287 12.4755 90.294 12.2231 90.287 11.9712C90.2711 11.4542 90.7251 11.1609 91.0609 11.1621C91.5055 11.1621 91.8495 11.5028 91.8536 11.9757C91.861 12.8346 91.8536 13.6936 91.8589 14.5525C91.8622 15.0233 92.1571 15.3473 92.5784 15.3608C92.9837 15.3738 93.3048 15.1031 93.3523 14.7006C93.3666 14.5779 93.3596 14.4552 93.3641 14.3325C93.3793 13.9132 93.7093 13.5758 94.1159 13.5635C94.5389 13.5504 94.8845 13.8429 94.9254 14.2666C94.9458 14.476 94.9385 14.6887 94.9385 14.8998C94.9385 15.8607 94.9385 16.8217 94.9385 17.7826C94.9385 18.1098 94.7961 18.361 94.4971 18.5082C94.2149 18.6473 93.9409 18.6182 93.6869 18.4374C93.4787 18.289 93.3789 18.0767 93.369 17.8239C93.3617 17.6333 93.369 17.4423 93.3633 17.2513C93.3474 16.7919 93.0361 16.4643 92.614 16.47C92.2716 16.4749 91.8569 16.7396 91.8581 17.2709C91.8616 18.7903 91.8616 20.31 91.8581 21.8299C91.8581 22.2766 91.6164 22.5768 91.2143 22.6504C90.7492 22.7363 90.3181 22.4218 90.3026 21.9497C90.2817 21.3166 90.2952 20.6818 90.2915 20.0486C90.2915 19.7345 90.213 19.4559 89.9173 19.2809C89.8125 19.2156 89.6931 19.1778 89.5699 19.1708C89.4467 19.1638 89.3237 19.1878 89.2122 19.2408C89.1007 19.2937 89.0044 19.3738 88.932 19.4738C88.8595 19.5737 88.8134 19.6902 88.7978 19.8126C88.7798 19.9402 88.7896 20.0715 88.7794 20.2003C88.7466 20.627 88.3916 20.9615 87.9826 20.9542C87.5662 20.9468 87.2337 20.6094 87.2128 20.177C87.2122 20.0275 87.1985 19.8783 87.1719 19.7312C87.1354 19.5702 87.0447 19.4266 86.915 19.3245C86.7853 19.2223 86.6244 19.1678 86.4594 19.17C86.2944 19.1687 86.1337 19.2222 86.0026 19.3223C85.8714 19.4223 85.7773 19.5632 85.735 19.7226C85.7078 19.8421 85.6953 19.9645 85.6978 20.087C85.6945 21.2596 85.6945 22.4321 85.6978 23.6047C85.6978 23.938 85.5955 24.2072 85.292 24.3712C84.7685 24.6542 84.1525 24.3225 84.1365 23.7274C84.1148 22.9093 84.1267 22.0913 84.1255 21.2732C84.1255 20.3938 84.1255 19.5147 84.1255 18.6358L84.1267 18.6383Z" fill="#CFE9BC"/>
<path d="M66.1816 25.6754C65.7183 25.2286 65.3049 24.7329 64.9488 24.1968C64.1267 22.9759 63.6276 21.5665 63.498 20.1004C63.446 19.5183 63.4702 18.9297 63.4571 18.344C63.455 18.2381 63.5033 18.2017 63.606 18.2021C64.1443 18.2041 64.6821 18.2058 65.2204 18.1992C65.3693 18.1992 65.3807 18.2753 65.384 18.3919C65.3996 18.9093 65.4073 19.4275 65.4445 19.9437C65.5394 21.264 65.989 22.4531 66.8119 23.4945C66.8978 23.6033 66.9158 23.6965 66.8667 23.8282C66.652 24.4029 66.4479 24.9813 66.2393 25.5576C66.2222 25.5979 66.203 25.6372 66.1816 25.6754Z" fill="white"/>
<path d="M72.4707 8.6993C72.5115 8.69851 72.5521 8.70601 72.59 8.72134C72.6278 8.73667 72.6622 8.75951 72.691 8.78849C72.7198 8.81746 72.7424 8.85197 72.7575 8.88993C72.7725 8.92789 72.7798 8.96851 72.7787 9.00934C72.7808 9.05128 72.7745 9.09321 72.7601 9.13265C72.7457 9.17209 72.7235 9.20824 72.6949 9.23896C72.6663 9.26968 72.6318 9.29433 72.5934 9.31147C72.5551 9.32861 72.5137 9.33787 72.4717 9.33872C72.4297 9.33957 72.388 9.33199 72.349 9.31641C72.31 9.30084 72.2746 9.2776 72.2447 9.24806C72.2149 9.21853 72.1913 9.18331 72.1753 9.14448C72.1593 9.10565 72.1513 9.06401 72.1517 9.02202C72.1502 8.97956 72.1574 8.93725 72.1729 8.89768C72.1884 8.85811 72.2118 8.82211 72.2416 8.7919C72.2715 8.76168 72.3072 8.73788 72.3466 8.72196C72.386 8.70604 72.4282 8.69833 72.4707 8.6993Z" fill="#CFE9BC"/>
<path d="M68.9265 9.00899C68.9269 8.96663 68.9359 8.92479 68.9529 8.88601C68.9699 8.84723 68.9947 8.81232 69.0256 8.78339C69.0566 8.75447 69.0931 8.73215 69.1329 8.71777C69.1728 8.70339 69.2151 8.69727 69.2574 8.69976C69.3379 8.70639 69.4128 8.74356 69.4667 8.80363C69.5206 8.86371 69.5496 8.94215 69.5475 9.02286C69.5455 9.10357 69.5126 9.18045 69.4557 9.23772C69.3988 9.295 69.3222 9.32833 69.2415 9.33089C69.1992 9.33219 69.157 9.3247 69.1178 9.30889C69.0785 9.29309 69.0429 9.2693 69.0133 9.23905C68.9837 9.20879 68.9607 9.17272 68.9458 9.13312C68.9309 9.09352 68.9243 9.05125 68.9265 9.00899Z" fill="#CFE9BC"/>
<path d="M73.5376 10.445C73.4966 10.4472 73.4556 10.4407 73.4172 10.426C73.3788 10.4113 73.344 10.3887 73.3149 10.3597C73.2858 10.3307 73.2632 10.2958 73.2484 10.2575C73.2337 10.2191 73.2271 10.1781 73.2292 10.137C73.2281 10.0943 73.2359 10.0518 73.2521 10.0122C73.2684 9.97257 73.2926 9.93677 73.3234 9.90705C73.3541 9.87732 73.3907 9.85431 73.4309 9.83948C73.471 9.82464 73.5138 9.8183 73.5565 9.82087C73.6359 9.82226 73.7116 9.85466 73.7674 9.91115C73.8232 9.96765 73.8546 10.0437 73.8551 10.1231C73.8582 10.1658 73.8522 10.2087 73.8375 10.2489C73.8227 10.2891 73.7995 10.3257 73.7694 10.3561C73.7394 10.3866 73.7031 10.4103 73.6632 10.4257C73.6232 10.441 73.5804 10.4476 73.5376 10.445Z" fill="#CFE9BC"/>
<path d="M74.6043 13.8045C74.4305 13.8025 74.3082 13.6708 74.3094 13.4876C74.3106 13.3043 74.4346 13.1751 74.6092 13.1738C74.8002 13.1738 74.9287 13.301 74.9266 13.4908C74.9284 13.5332 74.9212 13.5755 74.9055 13.615C74.8898 13.6544 74.866 13.6901 74.8356 13.7197C74.8051 13.7493 74.7688 13.7722 74.729 13.7868C74.6891 13.8014 74.6466 13.8075 74.6043 13.8045Z" fill="#CFE9BC"/>
<path d="M74.9259 14.5997C74.9283 14.7924 74.8032 14.922 74.6089 14.9224C74.4326 14.9224 74.3083 14.7924 74.3083 14.6075C74.3063 14.5666 74.3129 14.5257 74.3274 14.4874C74.342 14.4491 74.3643 14.4142 74.3929 14.3849C74.4215 14.3556 74.4558 14.3325 74.4938 14.317C74.5317 14.3016 74.5724 14.2941 74.6134 14.295C74.7979 14.2958 74.9234 14.4181 74.9259 14.5997Z" fill="#CFE9BC"/>
<path d="M72.7784 10.126C72.7817 10.3171 72.6557 10.4459 72.4643 10.4451C72.4236 10.4474 72.3829 10.4413 72.3447 10.4271C72.3065 10.413 72.2716 10.3911 72.2423 10.3628C72.2129 10.3345 72.1897 10.3005 72.1742 10.2629C72.1586 10.2252 72.151 10.1848 72.1518 10.144C72.15 10.1017 72.1569 10.0594 72.172 10.0199C72.1872 9.98028 72.2103 9.94423 72.2399 9.91392C72.2695 9.8836 72.305 9.85968 72.3443 9.84361C72.3835 9.82755 72.4256 9.81968 72.4679 9.8205C72.5087 9.81905 72.5493 9.82592 72.5873 9.8407C72.6253 9.85547 72.6599 9.87785 72.6889 9.90644C72.718 9.93504 72.7409 9.96927 72.7563 10.007C72.7717 10.0448 72.7792 10.0853 72.7784 10.126Z" fill="#CFE9BC"/>
<path d="M76.7767 13.1739C76.8173 13.1731 76.8577 13.1807 76.8953 13.196C76.9329 13.2114 76.967 13.2343 76.9956 13.2632C77.0241 13.2922 77.0464 13.3267 77.0611 13.3645C77.0759 13.4024 77.0828 13.4429 77.0814 13.4835C77.0832 13.5258 77.0763 13.5679 77.0611 13.6073C77.0458 13.6468 77.0226 13.6826 76.9928 13.7126C76.963 13.7426 76.9273 13.7661 76.888 13.7817C76.8487 13.7972 76.8066 13.8045 76.7644 13.803C76.681 13.8013 76.6016 13.7666 76.5438 13.7065C76.4859 13.6464 76.4544 13.5657 76.456 13.4823C76.4576 13.3989 76.4923 13.3195 76.5525 13.2617C76.6126 13.2038 76.6932 13.1723 76.7767 13.1739Z" fill="#CFE9BC"/>
<path d="M73.5527 13.1738C73.5933 13.1738 73.6335 13.182 73.671 13.1978C73.7084 13.2137 73.7422 13.2369 73.7705 13.2661C73.7988 13.2952 73.8209 13.3298 73.8356 13.3677C73.8502 13.4057 73.8571 13.4461 73.8557 13.4867C73.857 13.5291 73.8494 13.5713 73.8337 13.6106C73.8179 13.6499 73.7942 13.6856 73.764 13.7154C73.7339 13.7451 73.6979 13.7684 73.6584 13.7837C73.6188 13.7989 73.5766 13.8059 73.5342 13.8041C73.4519 13.8 73.3744 13.7637 73.3184 13.7031C73.2625 13.6425 73.2325 13.5624 73.2349 13.48C73.2373 13.3975 73.2719 13.3193 73.3313 13.2621C73.3907 13.2048 73.4702 13.1732 73.5527 13.1738Z" fill="#CFE9BC"/>
<path d="M74.6236 10.9397C74.6661 10.9387 74.7082 10.9467 74.7473 10.9632C74.7864 10.9798 74.8215 11.0044 74.8504 11.0356C74.8792 11.0667 74.9011 11.1036 74.9145 11.1439C74.928 11.1841 74.9327 11.2268 74.9284 11.269C74.9198 11.46 74.793 11.5725 74.5938 11.5655C74.4183 11.5594 74.3042 11.4281 74.3112 11.2408C74.3109 11.2002 74.3189 11.16 74.3346 11.1226C74.3504 11.0852 74.3736 11.0514 74.4028 11.0232C74.4321 10.9951 74.4667 10.9732 74.5047 10.9588C74.5426 10.9445 74.5831 10.938 74.6236 10.9397Z" fill="#CFE9BC"/>
<path d="M77.0814 11.2444C77.0859 11.4358 76.9611 11.5646 76.7705 11.5659C76.5799 11.5671 76.4638 11.4501 76.458 11.2669C76.4553 11.2246 76.4614 11.1822 76.4759 11.1423C76.4905 11.1025 76.5131 11.0662 76.5425 11.0356C76.5719 11.005 76.6072 10.9809 76.6464 10.9647C76.6856 10.9485 76.7277 10.9407 76.7701 10.9417C76.8107 10.9399 76.8513 10.9464 76.8893 10.9609C76.9273 10.9754 76.962 10.9975 76.9911 11.0258C77.0203 11.0542 77.0433 11.0882 77.0588 11.1258C77.0744 11.1633 77.082 11.2037 77.0814 11.2444Z" fill="#CFE9BC"/>
<path d="M73.5216 9.33025C73.4595 9.32676 73.3999 9.30503 73.3501 9.2678C73.3004 9.23056 73.2627 9.17947 73.2419 9.12093C73.221 9.06238 73.2179 8.99899 73.2329 8.93869C73.2479 8.87838 73.2804 8.82385 73.3263 8.78192C73.3722 8.73999 73.4294 8.71253 73.4908 8.70297C73.5522 8.69342 73.6151 8.7022 73.6715 8.7282C73.7279 8.75421 73.7754 8.7963 73.8081 8.84919C73.8407 8.90208 73.857 8.96342 73.8549 9.02553C73.8546 9.06793 73.8456 9.1098 73.8283 9.14854C73.8111 9.18727 73.786 9.22203 73.7547 9.25063C73.7235 9.27924 73.6866 9.30108 73.6465 9.31478C73.6063 9.32848 73.5638 9.33375 73.5216 9.33025Z" fill="#CFE9BC"/>
<path d="M70.6277 10.1273C70.6307 10.1682 70.6252 10.2093 70.6115 10.248C70.5978 10.2866 70.5762 10.322 70.5481 10.3519C70.52 10.3818 70.486 10.4055 70.4482 10.4215C70.4104 10.4376 70.3698 10.4456 70.3287 10.4451C70.134 10.4512 70.0015 10.3253 70.0052 10.133C70.0043 10.092 70.0116 10.0512 70.0268 10.0131C70.0419 9.97496 70.0646 9.94029 70.0935 9.91112C70.1223 9.88196 70.1568 9.85891 70.1947 9.84334C70.2327 9.82777 70.2734 9.82001 70.3144 9.82052C70.3554 9.81901 70.3963 9.82587 70.4346 9.84067C70.4728 9.85547 70.5077 9.8779 70.537 9.9066C70.5663 9.9353 70.5895 9.96967 70.6051 10.0076C70.6207 10.0455 70.6284 10.0863 70.6277 10.1273Z" fill="#CFE9BC"/>
<path d="M74.927 10.1337C74.927 10.328 74.8043 10.4453 74.6072 10.4453C74.4276 10.4453 74.3098 10.3226 74.3094 10.1357C74.309 9.94879 74.4321 9.82281 74.6072 9.82036C74.799 9.8175 74.9278 9.94634 74.927 10.1337Z" fill="#CFE9BC"/>
<path d="M69.2482 9.82051C69.2892 9.82024 69.3299 9.82834 69.3676 9.84433C69.4054 9.86033 69.4395 9.88387 69.4679 9.91351C69.4962 9.94316 69.5182 9.97828 69.5325 10.0167C69.5468 10.0552 69.553 10.0961 69.5509 10.1371C69.5528 10.1781 69.5461 10.2191 69.5312 10.2574C69.5163 10.2957 69.4935 10.3304 69.4644 10.3594C69.4353 10.3883 69.4004 10.4109 69.3621 10.4256C69.3237 10.4403 69.2827 10.4468 69.2417 10.4447C69.199 10.4472 69.1563 10.4406 69.1165 10.4252C69.0767 10.4098 69.0406 10.386 69.0107 10.3554C68.9809 10.3248 68.958 10.2882 68.9436 10.248C68.9292 10.2078 68.9235 10.1649 68.9271 10.1224C68.9282 10.0814 68.9374 10.0411 68.9541 10.0036C68.9709 9.96625 68.9949 9.93253 69.0247 9.90446C69.0546 9.87639 69.0897 9.85452 69.1281 9.84011C69.1664 9.8257 69.2073 9.81904 69.2482 9.82051Z" fill="#CFE9BC"/>
<path d="M75.7002 8.69938C75.741 8.69889 75.7814 8.70673 75.819 8.72242C75.8566 8.73811 75.8905 8.76132 75.9189 8.79062C75.9472 8.81992 75.9692 8.8547 75.9836 8.89281C75.9979 8.93093 76.0044 8.97159 76.0025 9.01228C76.0029 9.05316 75.9952 9.09371 75.98 9.13163C75.9647 9.16955 75.9421 9.20409 75.9135 9.23328C75.8849 9.26247 75.8508 9.28574 75.8132 9.30175C75.7756 9.31777 75.7352 9.32622 75.6943 9.32662C75.6534 9.32702 75.6129 9.31937 75.5749 9.3041C75.537 9.28883 75.5025 9.26624 75.4733 9.23762C75.4441 9.209 75.4208 9.17491 75.4048 9.1373C75.3888 9.09969 75.3803 9.05929 75.3799 9.01842C75.3788 8.97609 75.3862 8.93397 75.4019 8.89464C75.4176 8.85531 75.4412 8.81961 75.4712 8.78973C75.5012 8.75984 75.537 8.73641 75.5764 8.72088C75.6157 8.70534 75.6579 8.69802 75.7002 8.69938Z" fill="#CFE9BC"/>
<path d="M72.473 11.5667C72.2803 11.5703 72.1503 11.444 72.1515 11.255C72.1508 11.1729 72.1828 11.0938 72.2403 11.0352C72.2978 10.9765 72.3761 10.943 72.4583 10.9421C72.499 10.9393 72.5398 10.945 72.5782 10.9586C72.6167 10.9722 72.652 10.9935 72.6819 11.0212C72.7118 11.049 72.7357 11.0825 72.7522 11.1198C72.7687 11.1571 72.7774 11.1974 72.7777 11.2382C72.7863 11.4288 72.662 11.563 72.473 11.5667Z" fill="#CFE9BC"/>
<path d="M72.778 13.5C72.7769 13.5413 72.7676 13.582 72.7506 13.6197C72.7337 13.6575 72.7094 13.6915 72.6793 13.7198C72.6492 13.7481 72.6137 13.7702 72.575 13.7847C72.5363 13.7993 72.4951 13.806 72.4538 13.8045C72.4124 13.8031 72.3718 13.7934 72.3342 13.7762C72.2966 13.759 72.2628 13.7345 72.2347 13.7041C72.2067 13.6737 72.1849 13.6381 72.1706 13.5993C72.1564 13.5605 72.15 13.5192 72.1518 13.4779C72.1528 13.4355 72.1625 13.3938 72.1802 13.3553C72.1979 13.3169 72.2232 13.2824 72.2547 13.254C72.2861 13.2256 72.3231 13.204 72.3632 13.1904C72.4033 13.1768 72.4458 13.1715 72.488 13.1748C72.5287 13.176 72.5688 13.1856 72.6058 13.2028C72.6427 13.2201 72.6758 13.2446 72.7029 13.2751C72.73 13.3055 72.7507 13.3411 72.7636 13.3798C72.7765 13.4185 72.7814 13.4594 72.778 13.5Z" fill="#CFE9BC"/>
<path d="M71.3899 13.8043C71.3488 13.8057 71.3079 13.7986 71.2697 13.7834C71.2315 13.7683 71.1968 13.7454 71.1679 13.7162C71.1389 13.687 71.1163 13.6522 71.1014 13.6138C71.0866 13.5755 71.0798 13.5345 71.0815 13.4935C71.0792 13.4507 71.0859 13.408 71.1013 13.3681C71.1166 13.3281 71.1403 13.2919 71.1706 13.2618C71.201 13.2316 71.2374 13.2083 71.2775 13.1932C71.3175 13.1782 71.3603 13.1718 71.403 13.1744C71.5834 13.1785 71.7032 13.3078 71.6995 13.4943C71.7011 13.5354 71.6941 13.5763 71.6791 13.6146C71.6641 13.6529 71.6414 13.6877 71.6123 13.7168C71.5833 13.7459 71.5485 13.7687 71.5102 13.7837C71.472 13.7988 71.431 13.8058 71.3899 13.8043Z" fill="#CFE9BC"/>
<path d="M70.3137 13.8037C70.2511 13.8042 70.1897 13.786 70.1375 13.7515C70.0853 13.7169 70.0446 13.6676 70.0205 13.6098C69.9964 13.5521 69.9901 13.4884 70.0024 13.427C70.0147 13.3656 70.045 13.3093 70.0894 13.2652C70.1339 13.2211 70.1904 13.1913 70.2519 13.1795C70.3134 13.1677 70.377 13.1745 70.4346 13.199C70.4922 13.2235 70.5412 13.2646 70.5753 13.3171C70.6094 13.3696 70.6271 13.4311 70.6262 13.4937C70.6265 13.5347 70.6186 13.5754 70.603 13.6133C70.5874 13.6512 70.5643 13.6856 70.5352 13.7145C70.5061 13.7434 70.4715 13.7662 70.4335 13.7815C70.3954 13.7968 70.3547 13.8044 70.3137 13.8037Z" fill="#CFE9BC"/>
<path d="M69.5512 13.4798C69.5525 13.5417 69.5354 13.6026 69.502 13.6547C69.4685 13.7069 69.4204 13.7479 69.3635 13.7725C69.3067 13.7972 69.2439 13.8044 69.183 13.7933C69.1221 13.7821 69.0658 13.7531 69.0215 13.7099C68.9771 13.6667 68.9466 13.6112 68.9338 13.5506C68.9211 13.49 68.9266 13.427 68.9498 13.3696C68.9729 13.3121 69.0127 13.2629 69.0639 13.2281C69.1151 13.1933 69.1756 13.1746 69.2375 13.1742C69.2786 13.1721 69.3196 13.1785 69.3581 13.193C69.3965 13.2075 69.4316 13.2298 69.4611 13.2585C69.4905 13.2872 69.5137 13.3217 69.5292 13.3597C69.5448 13.3978 69.5522 13.4387 69.5512 13.4798Z" fill="#CFE9BC"/>
<path d="M71.3848 12.0535C71.4258 12.0506 71.467 12.0563 71.5056 12.0704C71.5443 12.0844 71.5795 12.1064 71.6091 12.1349C71.6388 12.1635 71.662 12.1979 71.6775 12.236C71.693 12.2741 71.7003 12.315 71.6989 12.3561C71.7026 12.5435 71.586 12.6744 71.4073 12.6834C71.3658 12.685 71.3244 12.6785 71.2855 12.6642C71.2466 12.6498 71.2109 12.6279 71.1805 12.5997C71.15 12.5715 71.1255 12.5376 71.1082 12.4998C71.0909 12.4621 71.0812 12.4214 71.0798 12.3799C71.0783 12.3385 71.085 12.2971 71.0995 12.2583C71.1141 12.2194 71.1362 12.1838 71.1645 12.1535C71.1928 12.1232 71.2269 12.0988 71.2647 12.0817C71.3025 12.0646 71.3433 12.0552 71.3848 12.0539V12.0535Z" fill="#CFE9BC"/>
<path d="M72.7782 14.6143C72.7795 14.6554 72.7723 14.6964 72.757 14.7347C72.7418 14.7729 72.7188 14.8076 72.6896 14.8366C72.6603 14.8656 72.6255 14.8883 72.5871 14.9033C72.5487 14.9182 72.5077 14.9251 72.4665 14.9235C72.4237 14.9251 72.3811 14.9176 72.3414 14.9015C72.3017 14.8855 72.2658 14.8612 72.2362 14.8303C72.2065 14.7994 72.1837 14.7626 72.1693 14.7222C72.1548 14.6819 72.1491 14.639 72.1524 14.5963C72.1535 14.5552 72.1628 14.5148 72.1797 14.4774C72.1967 14.4401 72.221 14.4064 72.2511 14.3786C72.2813 14.3507 72.3167 14.3292 72.3553 14.3152C72.3939 14.3012 72.4349 14.2952 72.4759 14.2973C72.517 14.2968 72.5578 14.3047 72.5957 14.3207C72.6336 14.3366 72.6678 14.3602 72.6961 14.3899C72.7245 14.4197 72.7464 14.455 72.7606 14.4936C72.7747 14.5322 72.7807 14.5733 72.7782 14.6143Z" fill="#CFE9BC"/>
<path d="M72.4593 12.6821C72.4169 12.6824 72.3748 12.6738 72.3358 12.657C72.2969 12.6402 72.2618 12.6154 72.233 12.5842C72.2041 12.5531 72.182 12.5163 72.1682 12.4762C72.1543 12.436 72.149 12.3935 72.1525 12.3511C72.154 12.3105 72.1634 12.2705 72.1803 12.2334C72.1973 12.1964 72.2213 12.1631 72.2512 12.1354C72.281 12.1077 72.316 12.0861 72.3542 12.072C72.3924 12.0578 72.4329 12.0514 72.4736 12.053C72.5143 12.0524 72.5548 12.0601 72.5924 12.0756C72.6301 12.0911 72.6642 12.114 72.6927 12.1431C72.7212 12.1722 72.7436 12.2067 72.7584 12.2446C72.7732 12.2826 72.7801 12.3231 72.7788 12.3638C72.7808 12.4063 72.7738 12.4486 72.7585 12.4882C72.7431 12.5278 72.7196 12.5638 72.6896 12.5937C72.6595 12.6237 72.6234 12.647 72.5838 12.6623C72.5441 12.6775 72.5017 12.6842 72.4593 12.6821Z" fill="#CFE9BC"/>
<path d="M68.1585 13.8038C68.1174 13.8043 68.0767 13.7964 68.0389 13.7806C68.001 13.7648 67.9668 13.7414 67.9383 13.7118C67.9099 13.6823 67.8878 13.6472 67.8733 13.6088C67.8589 13.5704 67.8525 13.5294 67.8545 13.4885C67.853 13.4457 67.8606 13.4031 67.8767 13.3634C67.8928 13.3238 67.9171 13.288 67.9479 13.2584C67.9788 13.2287 68.0156 13.206 68.0559 13.1916C68.0962 13.1772 68.1391 13.1714 68.1818 13.1747C68.3605 13.1813 68.4791 13.3134 68.4726 13.4987C68.4733 13.5397 68.4656 13.5805 68.4499 13.6184C68.4343 13.6563 68.411 13.6907 68.3816 13.7193C68.3522 13.7479 68.3172 13.7701 68.2788 13.7847C68.2404 13.7992 68.1995 13.8057 68.1585 13.8038Z" fill="#CFE9BC"/>
<path d="M69.5513 12.3625C69.5518 12.4244 69.5338 12.4851 69.4997 12.5368C69.4657 12.5885 69.417 12.6288 69.3599 12.6528C69.3028 12.6767 69.2398 12.6831 69.1791 12.6712C69.1183 12.6593 69.0625 12.6295 69.0187 12.5858C68.9749 12.542 68.9451 12.4862 68.9331 12.4255C68.921 12.3648 68.9274 12.3018 68.9512 12.2447C68.9751 12.1876 69.0154 12.1388 69.0671 12.1047C69.1187 12.0705 69.1793 12.0525 69.2412 12.0529C69.2823 12.0516 69.3231 12.0587 69.3613 12.0738C69.3995 12.0889 69.4342 12.1116 69.4632 12.1406C69.4923 12.1697 69.5151 12.2043 69.5302 12.2425C69.5454 12.2806 69.5525 12.3215 69.5513 12.3625Z" fill="#CFE9BC"/>
<path d="M71.4038 10.9401C71.5833 10.9454 71.704 11.0763 71.6991 11.2616C71.6942 11.4469 71.5764 11.5663 71.3886 11.5651C71.2009 11.5639 71.0729 11.4346 71.0815 11.2379C71.082 11.1968 71.091 11.1563 71.1077 11.1188C71.1244 11.0814 71.1486 11.0477 71.1787 11.0198C71.2089 10.992 71.2444 10.9705 71.2831 10.9568C71.3217 10.9431 71.3628 10.9374 71.4038 10.9401Z" fill="#CFE9BC"/>
<path d="M69.5518 11.2504C69.5546 11.2914 69.5487 11.3325 69.5347 11.3711C69.5206 11.4097 69.4987 11.445 69.4702 11.4746C69.4418 11.5043 69.4075 11.5277 69.3695 11.5433C69.3315 11.5589 69.2906 11.5664 69.2496 11.5654C69.0561 11.5699 68.9223 11.4406 68.9273 11.2504C68.9273 11.2095 68.9355 11.1689 68.9513 11.1312C68.9672 11.0934 68.9904 11.0591 69.0196 11.0304C69.0487 11.0017 69.0833 10.979 69.1214 10.9638C69.1594 10.9485 69.2 10.941 69.241 10.9416C69.282 10.9401 69.3229 10.9471 69.3612 10.9621C69.3994 10.977 69.4342 10.9997 69.4633 11.0286C69.4925 11.0576 69.5154 11.0922 69.5306 11.1303C69.5458 11.1685 69.553 11.2094 69.5518 11.2504Z" fill="#CFE9BC"/>
<path d="M69.5513 14.6039C69.5523 14.6659 69.5349 14.7267 69.5012 14.7788C69.4676 14.8308 69.4192 14.8716 69.3622 14.8961C69.3053 14.9205 69.2424 14.9274 69.1815 14.9159C69.1206 14.9045 69.0645 14.8751 69.0203 14.8317C68.9761 14.7882 68.9459 14.7326 68.9335 14.6719C68.921 14.6111 68.927 14.5481 68.9505 14.4908C68.974 14.4335 69.0141 14.3844 69.0655 14.3499C69.117 14.3155 69.1776 14.2971 69.2396 14.2971C69.2806 14.2954 69.3215 14.3021 69.3597 14.3168C69.398 14.3316 69.4329 14.354 69.4621 14.3828C69.4913 14.4116 69.5143 14.446 69.5297 14.4841C69.545 14.5221 69.5524 14.5629 69.5513 14.6039Z" fill="#CFE9BC"/>
<path d="M71.3994 14.2974C71.5802 14.2998 71.7017 14.4279 71.6988 14.6127C71.696 14.7976 71.572 14.9236 71.3929 14.924C71.2039 14.924 71.0759 14.7903 71.0812 14.5968C71.0813 14.5559 71.0898 14.5154 71.106 14.4779C71.1223 14.4404 71.146 14.4066 71.1758 14.3786C71.2056 14.3505 71.2408 14.3289 71.2793 14.3149C71.3177 14.301 71.3586 14.295 71.3994 14.2974Z" fill="#CFE9BC"/>
<path d="M71.6996 10.1214C71.7041 10.3112 71.5904 10.436 71.4071 10.4433C71.2096 10.4515 71.0824 10.3309 71.0799 10.1353C71.078 10.0943 71.0844 10.0534 71.0988 10.0149C71.1132 9.97652 71.1353 9.94143 71.1638 9.91184C71.1922 9.88224 71.2264 9.85876 71.2642 9.84283C71.3021 9.8269 71.3428 9.81885 71.3838 9.81917C71.4249 9.81611 71.4662 9.82173 71.505 9.83565C71.5438 9.84958 71.5792 9.8715 71.609 9.90001C71.6388 9.92851 71.6622 9.96295 71.6778 10.0011C71.6934 10.0392 71.7008 10.0802 71.6996 10.1214Z" fill="#CFE9BC"/>
<path d="M76.7778 14.2971C76.8188 14.2964 76.8594 14.304 76.8973 14.3196C76.9351 14.3352 76.9694 14.3584 76.9979 14.3878C77.0264 14.4172 77.0485 14.4521 77.0629 14.4904C77.0774 14.5287 77.0838 14.5696 77.0817 14.6105C77.0831 14.6514 77.0762 14.6923 77.0613 14.7305C77.0464 14.7687 77.0238 14.8034 76.9951 14.8326C76.9663 14.8618 76.9318 14.8849 76.8939 14.9003C76.8559 14.9158 76.8152 14.9233 76.7742 14.9225C76.7321 14.9238 76.6903 14.9166 76.6512 14.9013C76.612 14.886 76.5763 14.863 76.5462 14.8337C76.5162 14.8043 76.4923 14.7692 76.4761 14.7304C76.4599 14.6916 76.4517 14.65 76.4519 14.6079C76.4522 14.5659 76.4609 14.5244 76.4776 14.4858C76.4942 14.4472 76.5185 14.4123 76.5489 14.3833C76.5793 14.3543 76.6153 14.3317 76.6546 14.3169C76.6939 14.3021 76.7358 14.2954 76.7778 14.2971Z" fill="#CFE9BC"/>
<path d="M74.9271 9.00739C74.9271 9.20045 74.8044 9.32848 74.6129 9.33052C74.4346 9.33052 74.3127 9.20782 74.3094 9.02089C74.3062 8.83397 74.4395 8.69367 74.6215 8.69735C74.6623 8.69637 74.7029 8.70376 74.7407 8.71905C74.7785 8.73434 74.8128 8.75722 74.8414 8.78627C74.87 8.81532 74.8924 8.84993 74.9071 8.88796C74.9219 8.92599 74.9286 8.96664 74.9271 9.00739Z" fill="#CFE9BC"/>
<path d="M71.3977 9.33188C71.357 9.33481 71.3161 9.3293 71.2777 9.31567C71.2393 9.30205 71.2041 9.28062 71.1743 9.25272C71.1446 9.22482 71.121 9.19107 71.1049 9.15359C71.0889 9.1161 71.0807 9.0757 71.0811 9.03492C71.0768 8.99264 71.0815 8.94995 71.0948 8.90958C71.108 8.86921 71.1296 8.83206 71.158 8.80052C71.1865 8.76897 71.2213 8.74372 71.2601 8.7264C71.2989 8.70908 71.3408 8.70006 71.3833 8.69993C71.424 8.6971 71.4648 8.70274 71.5032 8.71649C71.5416 8.73025 71.5767 8.75183 71.6063 8.77986C71.6359 8.80789 71.6594 8.84176 71.6752 8.87933C71.691 8.9169 71.6989 8.95735 71.6983 8.99811C71.7052 9.19199 71.585 9.32533 71.3977 9.33188Z" fill="#CFE9BC"/>
<path d="M74.623 12.0512C74.6654 12.0501 74.7076 12.0581 74.7467 12.0747C74.7858 12.0913 74.8209 12.116 74.8497 12.1473C74.8784 12.1786 74.9002 12.2156 74.9134 12.256C74.9267 12.2963 74.9311 12.339 74.9265 12.3812C74.9175 12.569 74.7813 12.6909 74.5911 12.6811C74.4197 12.6725 74.3027 12.5359 74.3097 12.3514C74.3094 12.3108 74.3173 12.2705 74.3331 12.233C74.3489 12.1956 74.3722 12.1618 74.4015 12.1337C74.4309 12.1056 74.4657 12.0837 74.5038 12.0695C74.5418 12.0554 74.5824 12.0491 74.623 12.0512Z" fill="#CFE9BC"/>
<path d="M77.0811 12.371C77.082 12.4134 77.074 12.4556 77.0577 12.4948C77.0413 12.534 77.017 12.5694 76.9862 12.5986C76.9553 12.6278 76.9188 12.6503 76.8788 12.6646C76.8388 12.6788 76.7962 12.6846 76.7539 12.6814C76.7131 12.6812 76.6728 12.6727 76.6355 12.6564C76.5982 12.6401 76.5645 12.6163 76.5367 12.5866C76.5089 12.5568 76.4874 12.5217 76.4736 12.4834C76.4598 12.445 76.454 12.4043 76.4565 12.3636C76.4556 12.3212 76.4637 12.279 76.48 12.2399C76.4964 12.2007 76.5208 12.1654 76.5516 12.1363C76.5824 12.1071 76.6189 12.0846 76.6589 12.0704C76.6989 12.0562 76.7414 12.0504 76.7837 12.0536C76.8244 12.0539 76.8645 12.0626 76.9018 12.0789C76.939 12.0953 76.9725 12.119 77.0003 12.1487C77.0281 12.1783 77.0496 12.2133 77.0635 12.2515C77.0774 12.2897 77.0834 12.3304 77.0811 12.371Z" fill="#CFE9BC"/>
<path d="M73.2295 12.3593C73.2293 12.3168 73.238 12.2748 73.2549 12.2359C73.2718 12.197 73.2966 12.162 73.3276 12.1331C73.3587 12.1042 73.3954 12.082 73.4355 12.068C73.4755 12.054 73.5181 12.0484 73.5604 12.0517C73.601 12.0526 73.6411 12.0617 73.6782 12.0785C73.7152 12.0952 73.7485 12.1193 73.7761 12.1492C73.8036 12.1792 73.8248 12.2144 73.8384 12.2527C73.852 12.2911 73.8578 12.3317 73.8553 12.3723C73.8554 12.4147 73.8467 12.4567 73.8299 12.4956C73.813 12.5345 73.7883 12.5695 73.7572 12.5984C73.7262 12.6272 73.6895 12.6494 73.6495 12.6634C73.6095 12.6775 73.5671 12.6831 73.5248 12.6799C73.484 12.6792 73.4439 12.6702 73.4067 12.6535C73.3696 12.6368 73.3362 12.6127 73.3086 12.5827C73.281 12.5528 73.2597 12.5175 73.2461 12.4791C73.2325 12.4407 73.2269 12.3999 73.2295 12.3593Z" fill="#CFE9BC"/>
<path d="M75.7027 10.9417C75.7437 10.9415 75.7844 10.9496 75.8222 10.9657C75.8599 10.9818 75.894 11.0054 75.9223 11.0351C75.9507 11.0649 75.9726 11.1001 75.9868 11.1386C76.001 11.1771 76.0072 11.2181 76.0049 11.2591C76.0013 11.4509 75.8679 11.5741 75.674 11.5655C75.633 11.5654 75.5924 11.5567 75.5549 11.54C75.5174 11.5234 75.4838 11.499 75.4562 11.4686C75.4286 11.4382 75.4077 11.4024 75.3948 11.3634C75.3819 11.3244 75.3772 11.2832 75.3812 11.2423C75.3821 11.2014 75.3912 11.161 75.408 11.1236C75.4247 11.0861 75.4488 11.0524 75.4787 11.0244C75.5087 10.9964 75.5439 10.9747 75.5824 10.9605C75.6208 10.9463 75.6617 10.9399 75.7027 10.9417Z" fill="#CFE9BC"/>
<path d="M70.31 8.6996C70.3507 8.69755 70.3914 8.70378 70.4296 8.71791C70.4678 8.73205 70.5028 8.75379 70.5323 8.78182C70.5619 8.80985 70.5854 8.84358 70.6016 8.88099C70.6177 8.91839 70.6261 8.95868 70.6262 8.99941C70.6295 9.04161 70.624 9.08402 70.6101 9.124C70.5963 9.16398 70.5743 9.20068 70.5457 9.23181C70.517 9.26293 70.4822 9.28781 70.4435 9.3049C70.4048 9.32199 70.363 9.33092 70.3207 9.33113C70.28 9.33341 70.2394 9.32738 70.2011 9.31341C70.1629 9.29944 70.1279 9.27782 70.0983 9.24988C70.0687 9.22193 70.0452 9.18825 70.029 9.15088C70.0129 9.11351 70.0045 9.07325 70.0045 9.03255C70.001 8.99024 70.0063 8.94768 70.02 8.90752C70.0338 8.86736 70.0557 8.83049 70.0844 8.79921C70.1131 8.76794 70.148 8.74295 70.1868 8.7258C70.2256 8.70866 70.2676 8.69974 70.31 8.6996Z" fill="#CFE9BC"/>
<path d="M73.8555 7.8961C73.856 7.93887 73.8476 7.98127 73.8308 8.02061C73.814 8.05994 73.7892 8.09534 73.7579 8.12452C73.7267 8.15371 73.6896 8.17604 73.6493 8.1901C73.6089 8.20415 73.566 8.20962 73.5233 8.20614C73.4622 8.20246 73.4034 8.18092 73.3544 8.14419C73.3053 8.10745 73.2681 8.05715 73.2474 7.99948C73.2266 7.94182 73.2232 7.87934 73.2376 7.81978C73.252 7.76021 73.2836 7.70618 73.3284 7.66436C73.3732 7.62254 73.4292 7.59478 73.4897 7.58451C73.5501 7.57424 73.6122 7.58191 73.6683 7.60657C73.7244 7.63124 73.772 7.67181 73.8053 7.72327C73.8385 7.77473 73.856 7.83482 73.8555 7.8961Z" fill="#CFE9BC"/>
<path d="M72.4563 8.20714C72.4152 8.20687 72.3746 8.19827 72.3369 8.18186C72.2993 8.16545 72.2653 8.14158 72.2372 8.11168C72.209 8.08178 72.1872 8.04649 72.173 8.00792C72.1589 7.96935 72.1527 7.92831 72.1548 7.88729C72.155 7.84454 72.1641 7.8023 72.1814 7.76324C72.1988 7.72418 72.2241 7.68915 72.2557 7.66038C72.2873 7.63161 72.3245 7.60973 72.3651 7.59612C72.4056 7.58252 72.4485 7.57748 72.4911 7.58134C72.5319 7.58249 72.5722 7.59204 72.6092 7.6094C72.6463 7.62676 72.6793 7.65156 72.7064 7.68225C72.7334 7.71295 72.7539 7.74888 72.7664 7.78781C72.779 7.82674 72.7834 7.86784 72.7794 7.90856C72.7792 7.94981 72.7705 7.99058 72.7539 8.02833C72.7372 8.06608 72.713 8.10001 72.6827 8.12801C72.6524 8.15601 72.6167 8.17748 72.5777 8.1911C72.5388 8.20471 72.4974 8.21017 72.4563 8.20714Z" fill="#CFE9BC"/>
<path d="M71.6991 7.89824C71.6941 8.08189 71.5686 8.20664 71.3894 8.20623C71.2013 8.20623 71.0732 8.0688 71.0814 7.87901C71.0816 7.83804 71.0903 7.79756 71.1068 7.76007C71.1234 7.72259 71.1475 7.68891 71.1776 7.66113C71.2077 7.63335 71.2432 7.61207 71.2819 7.59861C71.3206 7.58515 71.3617 7.57979 71.4025 7.58288C71.5837 7.58493 71.7036 7.71336 71.6991 7.89824Z" fill="#CFE9BC"/>
<path d="M75.699 12.0528C75.7823 12.0528 75.8622 12.0859 75.9211 12.1449C75.98 12.2038 76.0131 12.2837 76.0131 12.367C76.0131 12.4503 75.98 12.5302 75.9211 12.5891C75.8622 12.648 75.7823 12.6811 75.699 12.6811C75.6562 12.683 75.6136 12.6759 75.5738 12.6602C75.5339 12.6446 75.4979 12.6206 75.468 12.5901C75.4381 12.5595 75.4149 12.5229 75.4001 12.4828C75.3853 12.4427 75.3791 12.3998 75.382 12.3572C75.3826 12.3163 75.3912 12.2759 75.4075 12.2384C75.4238 12.201 75.4474 12.1671 75.4769 12.1388C75.5064 12.1105 75.5412 12.0883 75.5793 12.0735C75.6174 12.0588 75.6581 12.0518 75.699 12.0528Z" fill="#CFE9BC"/>
<path d="M73.5532 10.9398C73.5939 10.94 73.6341 10.9484 73.6715 10.9644C73.7089 10.9804 73.7428 11.0037 73.771 11.033C73.7993 11.0622 73.8214 11.0969 73.836 11.1348C73.8507 11.1728 73.8576 11.2133 73.8563 11.254C73.8563 11.4425 73.723 11.5685 73.5324 11.5648C73.4916 11.5661 73.4511 11.559 73.4133 11.5438C73.3755 11.5286 73.3413 11.5057 73.3128 11.4766C73.2843 11.4475 73.2621 11.4128 73.2478 11.3747C73.2334 11.3365 73.2271 11.2959 73.2293 11.2552C73.2283 11.2128 73.2361 11.1706 73.2522 11.1314C73.2682 11.0921 73.2922 11.0566 73.3226 11.027C73.353 10.9974 73.3892 10.9744 73.4288 10.9594C73.4685 10.9444 73.5109 10.9377 73.5532 10.9398Z" fill="#CFE9BC"/>
<path d="M76.0037 13.4935C76.002 13.5552 75.9821 13.615 75.9464 13.6653C75.9106 13.7156 75.8608 13.7542 75.8031 13.7761C75.7454 13.798 75.6825 13.8023 75.6224 13.7884C75.5623 13.7744 75.5076 13.743 75.4654 13.698C75.4232 13.6529 75.3954 13.5964 75.3854 13.5355C75.3754 13.4746 75.3837 13.4121 75.4093 13.356C75.4349 13.2998 75.4766 13.2526 75.5292 13.2202C75.5817 13.1878 75.6426 13.1717 75.7043 13.174C75.7454 13.1739 75.7861 13.1822 75.8238 13.1985C75.8615 13.2147 75.8955 13.2386 75.9236 13.2686C75.9517 13.2986 75.9733 13.334 75.9871 13.3727C76.0009 13.4114 76.0065 13.4525 76.0037 13.4935Z" fill="#CFE9BC"/>
<path d="M76.0028 10.1402C75.9979 10.3316 75.8646 10.4531 75.6699 10.4437C75.6288 10.4429 75.5883 10.4336 75.551 10.4164C75.5137 10.3991 75.4804 10.3744 75.4532 10.3436C75.4259 10.3129 75.4053 10.2768 75.3927 10.2377C75.3801 10.1986 75.3757 10.1574 75.3799 10.1165C75.3814 10.0755 75.3911 10.0353 75.4083 9.99815C75.4255 9.96097 75.45 9.92757 75.4801 9.89988C75.5103 9.87219 75.5457 9.85076 75.5843 9.83683C75.6228 9.8229 75.6637 9.81674 75.7046 9.81872C75.7458 9.81884 75.7864 9.82741 75.8241 9.84392C75.8618 9.86042 75.8956 9.8845 75.9236 9.91465C75.9516 9.94481 75.973 9.98039 75.9867 10.0192C76.0003 10.058 76.0058 10.0992 76.0028 10.1402Z" fill="#CFE9BC"/>
<path d="M73.5363 14.2955C73.5773 14.2929 73.6183 14.2988 73.657 14.3127C73.6956 14.3266 73.7309 14.3483 73.7609 14.3763C73.7908 14.4044 73.8147 14.4384 73.831 14.476C73.8473 14.5137 73.8557 14.5543 73.8558 14.5953C73.8588 14.6364 73.8534 14.6776 73.8401 14.7165C73.8267 14.7554 73.8057 14.7913 73.7781 14.8218C73.7506 14.8524 73.7171 14.8771 73.6798 14.8944C73.6424 14.9117 73.602 14.9213 73.5609 14.9225C73.5182 14.9267 73.4752 14.9217 73.4346 14.9079C73.3941 14.8941 73.3569 14.8718 73.3257 14.8425C73.2944 14.8132 73.2698 14.7775 73.2535 14.7379C73.2371 14.6984 73.2294 14.6557 73.2308 14.6129C73.2291 14.5718 73.2358 14.5308 73.2504 14.4923C73.265 14.4538 73.2873 14.4187 73.3158 14.389C73.3444 14.3594 73.3786 14.3358 73.4165 14.3197C73.4544 14.3037 73.4952 14.2954 73.5363 14.2955Z" fill="#CFE9BC"/>
<path d="M76.0039 14.6099C76.0049 14.6518 75.9975 14.6934 75.9821 14.7324C75.9666 14.7713 75.9435 14.8068 75.9141 14.8366C75.8847 14.8664 75.8495 14.89 75.8108 14.906C75.7721 14.9219 75.7305 14.9299 75.6886 14.9295C75.6467 14.929 75.6054 14.9202 75.567 14.9034C75.5286 14.8866 75.494 14.8623 75.4652 14.8319C75.4364 14.8014 75.414 14.7655 75.3994 14.7262C75.3848 14.687 75.3782 14.6452 75.3801 14.6033C75.3803 14.5624 75.3887 14.5219 75.4049 14.4842C75.421 14.4466 75.4445 14.4126 75.4741 14.3842C75.5036 14.3558 75.5385 14.3337 75.5768 14.319C75.615 14.3044 75.6558 14.2976 75.6967 14.299C75.7377 14.2979 75.7785 14.3051 75.8165 14.3204C75.8545 14.3357 75.889 14.3586 75.9178 14.3877C75.9466 14.4169 75.9691 14.4516 75.9839 14.4899C75.9988 14.5281 76.0055 14.5689 76.0039 14.6099Z" fill="#CFE9BC"/>
<path d="M70.3122 12.053C70.3532 12.0512 70.3942 12.0578 70.4326 12.0723C70.471 12.0869 70.506 12.1091 70.5355 12.1377C70.565 12.1663 70.5883 12.2005 70.6041 12.2385C70.6199 12.2764 70.6277 12.3171 70.6272 12.3582C70.6295 12.3992 70.6235 12.4402 70.6097 12.4788C70.5958 12.5175 70.5743 12.5529 70.5464 12.5831C70.5186 12.6132 70.4849 12.6375 70.4475 12.6543C70.4101 12.6712 70.3696 12.6804 70.3286 12.6813C70.2859 12.6847 70.243 12.679 70.2027 12.6645C70.1624 12.6501 70.1257 12.6271 70.0949 12.5973C70.0642 12.5675 70.0402 12.5315 70.0244 12.4917C70.0087 12.4518 70.0017 12.4091 70.0038 12.3664C70.0028 12.3253 70.01 12.2845 70.0251 12.2464C70.0401 12.2082 70.0627 12.1735 70.0915 12.1442C70.1203 12.115 70.1547 12.0918 70.1926 12.0762C70.2305 12.0605 70.2712 12.0526 70.3122 12.053Z" fill="#CFE9BC"/>
<path d="M68.4721 12.3541C68.4761 12.5402 68.3592 12.6715 68.1812 12.6813C68.098 12.6843 68.0169 12.6542 67.9559 12.5974C67.8949 12.5407 67.8589 12.4621 67.8559 12.3788C67.8528 12.2955 67.883 12.2145 67.9397 12.1535C67.9964 12.0925 68.0751 12.0565 68.1583 12.0534C68.1991 12.0506 68.2401 12.0564 68.2786 12.0703C68.317 12.0843 68.3521 12.1061 68.3817 12.1344C68.4112 12.1627 68.4345 12.1968 68.4501 12.2347C68.4656 12.2725 68.4731 12.3132 68.4721 12.3541Z" fill="#CFE9BC"/>
<path d="M70.3065 11.5662C70.2654 11.5676 70.2245 11.5605 70.1865 11.5451C70.1484 11.5297 70.1139 11.5065 70.0854 11.4769C70.0569 11.4474 70.0349 11.4122 70.0209 11.3735C70.007 11.3349 70.0013 11.2938 70.0042 11.2528C70.0035 11.2101 70.0117 11.1677 70.0284 11.1284C70.045 11.089 70.0697 11.0536 70.1009 11.0243C70.1321 10.9951 70.169 10.9727 70.2093 10.9586C70.2497 10.9445 70.2925 10.939 70.3351 10.9424C70.3761 10.9436 70.4164 10.9532 70.4536 10.9706C70.4908 10.9879 70.524 11.0127 70.5513 11.0433C70.5786 11.0739 70.5994 11.1098 70.6123 11.1487C70.6253 11.1876 70.6302 11.2287 70.6267 11.2696C70.6173 11.4541 70.4926 11.5698 70.3065 11.5662Z" fill="#CFE9BC"/>
<path d="M68.1656 11.566C67.9799 11.566 67.8584 11.4482 67.8547 11.2633C67.8522 11.2207 67.8586 11.178 67.8736 11.138C67.8887 11.0981 67.912 11.0617 67.942 11.0314C67.972 11.0011 68.0081 10.9774 68.0479 10.962C68.0877 10.9465 68.1303 10.9396 68.173 10.9418C68.3517 10.9442 68.4748 11.0747 68.472 11.2588C68.4691 11.4428 68.3509 11.5647 68.1656 11.566Z" fill="#CFE9BC"/>
<path d="M68.4723 14.612C68.469 14.7965 68.3459 14.9216 68.1663 14.9224C67.9786 14.9224 67.8493 14.7879 67.8559 14.5952C67.8559 14.5543 67.8643 14.5139 67.8805 14.4763C67.8968 14.4388 67.9205 14.4049 67.9502 14.3769C67.98 14.3488 68.0151 14.3271 68.0536 14.3131C68.092 14.2991 68.1329 14.2931 68.1737 14.2954C68.3537 14.2995 68.4756 14.4279 68.4723 14.612Z" fill="#CFE9BC"/>
<path d="M70.3283 14.2955C70.3905 14.2975 70.4507 14.3179 70.5013 14.3543C70.5519 14.3906 70.5904 14.4412 70.6121 14.4995C70.6338 14.5579 70.6376 14.6214 70.6231 14.6819C70.6085 14.7425 70.5763 14.7973 70.5304 14.8394C70.4846 14.8815 70.4272 14.909 70.3657 14.9184C70.3042 14.9278 70.2412 14.9187 70.1849 14.8921C70.1286 14.8656 70.0814 14.8229 70.0495 14.7694C70.0176 14.716 70.0023 14.6542 70.0056 14.5921C70.0064 14.5511 70.0156 14.5108 70.0324 14.4735C70.0493 14.4362 70.0735 14.4026 70.1037 14.3749C70.1338 14.3472 70.1692 14.3259 70.2079 14.3123C70.2465 14.2986 70.2874 14.2929 70.3283 14.2955Z" fill="#CFE9BC"/>
<path d="M77.0006 19.6267C76.9761 19.7796 76.9634 19.9064 76.9339 20.0291C76.2865 22.7434 73.4061 24.283 70.8092 23.2604C69.2598 22.6506 68.3141 21.4857 67.9685 19.8463C67.9313 19.6684 67.9775 19.6123 68.155 19.6238C68.3653 19.6369 68.6283 19.5567 68.7731 19.6557C68.9101 19.7502 68.926 20.0238 68.9919 20.2193C69.7482 22.4583 72.5349 23.395 74.4888 22.073C75.3068 21.5204 75.8324 20.7732 76.0558 19.8148C76.0877 19.6782 76.1376 19.6164 76.2836 19.6234C76.5126 19.6344 76.7425 19.6267 77.0006 19.6267Z" fill="#CFE9BC"/>
<path d="M69.8059 19.6298C70.0787 19.6298 70.3495 19.6237 70.619 19.636C70.6656 19.638 70.7245 19.71 70.7507 19.7632C71.2031 20.688 72.1484 21.0909 73.1137 20.7583C73.3442 20.6811 73.556 20.5566 73.7356 20.3927C73.9152 20.2289 74.0586 20.0294 74.1567 19.8069C74.2225 19.6646 74.3015 19.6167 74.45 19.6237C74.6729 19.6339 74.897 19.6262 75.122 19.6262C75.0463 20.5146 74.025 21.7236 72.5451 21.7674C71.0653 21.8112 69.9413 20.6524 69.8059 19.6298Z" fill="#CFE9BC"/>
</g>
<path fill-rule="evenodd" clip-rule="evenodd" d="M122.533 27.564C122.832 27.9582 122.981 28.5836 122.981 29.4401V35.4356H125.714V28.7671C125.714 28.2505 125.666 27.7407 125.571 27.2377C125.49 26.7347 125.333 26.286 125.102 25.8918C124.885 25.4839 124.558 25.1644 124.123 24.9333C123.702 24.6886 123.158 24.5662 122.492 24.5662C121.88 24.5662 121.295 24.6546 120.738 24.8313C120.194 24.9945 119.712 25.2392 119.29 25.5655C118.869 25.8782 118.522 26.2656 118.25 26.7279V24.7498H115.783V35.4356H118.515V29.1954C118.651 28.7603 118.869 28.3797 119.168 28.0534C119.467 27.7135 119.8 27.4484 120.167 27.2581C120.548 27.0677 120.922 26.9726 121.289 26.9726C121.819 26.9726 122.234 27.1697 122.533 27.564ZM130.313 35.0889C130.911 35.3608 131.564 35.4968 132.271 35.4968C132.991 35.4968 133.671 35.3336 134.31 35.0073C134.962 34.6675 135.465 34.1916 135.819 33.5798V34.9258C135.819 35.6191 135.669 36.1833 135.37 36.6184C135.085 37.067 134.697 37.3933 134.208 37.5972C133.732 37.8148 133.202 37.9235 132.617 37.9235C131.924 37.9235 131.265 37.7808 130.639 37.4953C130.027 37.2098 129.518 36.8155 129.11 36.3125L127.621 37.7604C128.192 38.4673 128.879 39.0111 129.681 39.3918C130.483 39.7861 131.462 39.9832 132.617 39.9832C133.759 39.9832 134.779 39.7793 135.676 39.3714C136.573 38.9772 137.274 38.3994 137.777 37.638C138.293 36.8903 138.552 35.9862 138.552 34.9258V24.7498H136.166V26.6259C135.758 26.0005 135.241 25.5043 134.616 25.1372C133.99 24.7565 133.263 24.5662 132.434 24.5662C131.7 24.5662 131.027 24.709 130.415 24.9945C129.817 25.2664 129.293 25.6606 128.845 26.1773C128.41 26.6803 128.07 27.2649 127.825 27.931C127.58 28.5972 127.458 29.3177 127.458 30.0927C127.458 30.8268 127.573 31.5202 127.805 32.1727C128.036 32.8253 128.362 33.4031 128.783 33.9061C129.218 34.4092 129.728 34.8034 130.313 35.0889ZM134.045 33.172C133.773 33.2672 133.487 33.3147 133.188 33.3147C132.78 33.3147 132.393 33.2332 132.026 33.07C131.672 32.9069 131.36 32.6826 131.088 32.3971C130.829 32.1116 130.626 31.7785 130.476 31.3978C130.326 31.0171 130.252 30.6093 130.252 30.1742C130.252 29.7528 130.313 29.3517 130.435 28.9711C130.571 28.5768 130.761 28.2233 131.006 27.9106C131.251 27.5844 131.543 27.3328 131.883 27.1561C132.223 26.9794 132.604 26.891 133.025 26.891C133.419 26.891 133.793 26.9794 134.147 27.1561C134.514 27.3192 134.84 27.5572 135.126 27.8699C135.425 28.1825 135.656 28.5496 135.819 28.9711V31.5202C135.724 31.7513 135.588 31.9824 135.411 32.2135C135.234 32.4311 135.03 32.6214 134.799 32.7845C134.568 32.9477 134.317 33.0768 134.045 33.172ZM143.605 35.2113C144.298 35.4968 145.08 35.6395 145.95 35.6395C146.82 35.6395 147.602 35.4968 148.295 35.2113C148.988 34.9122 149.573 34.5043 150.049 33.9877C150.538 33.4711 150.905 32.8797 151.15 32.2135C151.408 31.5474 151.538 30.8472 151.538 30.1131C151.538 29.3653 151.408 28.6584 151.15 27.9922C150.905 27.326 150.538 26.7347 150.049 26.218C149.559 25.7014 148.968 25.3004 148.275 25.0149C147.595 24.7158 146.82 24.5662 145.95 24.5662C145.08 24.5662 144.298 24.7158 143.605 25.0149C142.911 25.3004 142.32 25.7014 141.831 26.218C141.355 26.7347 140.988 27.326 140.729 27.9922C140.471 28.6584 140.342 29.3653 140.342 30.1131C140.342 30.8472 140.471 31.5474 140.729 32.2135C140.988 32.8797 141.355 33.4711 141.831 33.9877C142.32 34.5043 142.911 34.9122 143.605 35.2113ZM143.523 31.7853C143.278 31.2959 143.156 30.7384 143.156 30.1131C143.156 29.4877 143.278 28.9371 143.523 28.4612C143.768 27.9718 144.101 27.5912 144.522 27.3192C144.944 27.0337 145.42 26.891 145.95 26.891C146.467 26.891 146.936 27.027 147.357 27.2989C147.778 27.5708 148.112 27.9514 148.356 28.4409C148.615 28.9303 148.744 29.4809 148.744 30.0927C148.744 30.7181 148.615 31.2755 148.356 31.7649C148.112 32.2407 147.778 32.6214 147.357 32.9069C146.936 33.1788 146.467 33.3147 145.95 33.3147C145.42 33.3147 144.944 33.1788 144.522 32.9069C144.101 32.635 143.768 32.2611 143.523 31.7853ZM166.642 24.3623C166.9 24.5254 167.077 24.6546 167.172 24.7498L168.416 22.4658C167.995 22.1803 167.519 21.9151 166.989 21.6704C166.458 21.4257 165.887 21.2286 165.276 21.079C164.677 20.9295 164.039 20.8547 163.359 20.8547C162.38 20.8547 161.489 21.0315 160.687 21.3849C159.885 21.7248 159.246 22.2346 158.77 22.9144C158.308 23.5806 158.077 24.4099 158.077 25.4023C158.077 26.1365 158.227 26.7483 158.526 27.2377C158.825 27.7271 159.28 28.135 159.892 28.4612C160.504 28.7739 161.265 29.0594 162.176 29.3177C162.937 29.5353 163.597 29.7392 164.154 29.9295C164.711 30.1063 165.147 30.317 165.459 30.5617C165.772 30.8064 165.928 31.1463 165.928 31.5814C165.928 32.0572 165.731 32.4243 165.337 32.6826C164.943 32.9409 164.365 33.07 163.603 33.07C163.06 33.07 162.523 33.0021 161.992 32.8661C161.462 32.7301 160.973 32.567 160.524 32.3767C160.076 32.1727 159.695 31.9756 159.382 31.7853C159.069 31.5814 158.852 31.4182 158.73 31.2959L157.486 33.7226C158.043 34.1169 158.655 34.4567 159.321 34.7422C159.987 35.0141 160.681 35.2249 161.401 35.3744C162.122 35.524 162.842 35.5987 163.563 35.5987C164.283 35.5987 164.963 35.524 165.602 35.3744C166.241 35.2113 166.812 34.9598 167.315 34.6199C167.818 34.28 168.212 33.8382 168.498 33.2943C168.783 32.7369 168.926 32.0708 168.926 31.2959C168.926 30.4122 168.736 29.7052 168.355 29.175C167.988 28.6312 167.451 28.1961 166.744 27.8699C166.051 27.53 165.228 27.2445 164.276 27.0134C163.542 26.823 162.931 26.6463 162.441 26.4831C161.952 26.32 161.585 26.1229 161.34 25.8918C161.095 25.6606 160.973 25.3479 160.973 24.9537C160.973 24.4371 161.163 24.036 161.544 23.7505C161.938 23.465 162.516 23.3223 163.277 23.3223C163.712 23.3223 164.14 23.3834 164.562 23.5058C164.983 23.6146 165.371 23.7437 165.724 23.8933C166.091 24.0428 166.397 24.1991 166.642 24.3623ZM174.929 35.0889C175.568 35.456 176.302 35.6395 177.131 35.6395C178.042 35.6395 178.844 35.3948 179.537 34.9054C180.244 34.4024 180.795 33.7294 181.189 32.8865C181.597 32.0436 181.801 31.1055 181.801 30.0723C181.801 29.3109 181.672 28.604 181.414 27.9514C181.169 27.2853 180.822 26.7007 180.374 26.1976C179.925 25.681 179.395 25.28 178.783 24.9945C178.185 24.709 177.525 24.5662 176.805 24.5662C176.003 24.5662 175.289 24.7498 174.664 25.1168C174.038 25.4703 173.522 25.9597 173.114 26.5851V24.7498H170.728V39.7793H173.46V33.5595C173.814 34.1984 174.303 34.7083 174.929 35.0889ZM177.355 33.0496C177.015 33.2264 176.635 33.3147 176.213 33.3147C175.833 33.3147 175.459 33.2264 175.092 33.0496C174.725 32.8593 174.398 32.601 174.113 32.2747C173.841 31.9484 173.623 31.5881 173.46 31.1939V28.6856C173.542 28.4273 173.671 28.1893 173.848 27.9718C174.038 27.7543 174.256 27.564 174.5 27.4008C174.745 27.2377 174.997 27.1153 175.255 27.0337C175.527 26.9386 175.792 26.891 176.05 26.891C176.472 26.891 176.859 26.9726 177.213 27.1357C177.58 27.2989 177.899 27.53 178.171 27.8291C178.443 28.1146 178.647 28.4477 178.783 28.8283C178.932 29.209 179.007 29.6236 179.007 30.0723C179.007 30.4937 178.939 30.9016 178.803 31.2959C178.681 31.6765 178.491 32.0232 178.232 32.3359C177.988 32.635 177.695 32.8729 177.355 33.0496ZM190.362 27.5844C190.688 27.9922 190.851 28.6108 190.851 29.4401V35.4356H193.584V28.7671C193.584 28.2369 193.536 27.7271 193.441 27.2377C193.346 26.7347 193.176 26.286 192.931 25.8918C192.687 25.4839 192.347 25.1644 191.912 24.9333C191.477 24.6886 190.912 24.5662 190.219 24.5662C189.417 24.5662 188.676 24.7565 187.996 25.1372C187.316 25.5179 186.779 26.0481 186.385 26.7279V20.5488H183.653V35.4356H186.385V29.1954C186.521 28.7603 186.732 28.3797 187.017 28.0534C187.316 27.7135 187.65 27.4484 188.017 27.2581C188.384 27.0677 188.73 26.9726 189.057 26.9726C189.614 26.9726 190.049 27.1765 190.362 27.5844ZM198.591 35.2113C199.284 35.4968 200.059 35.6395 200.915 35.6395C201.704 35.6395 202.424 35.524 203.077 35.2928C203.73 35.0481 204.294 34.7151 204.77 34.2936C205.259 33.8721 205.633 33.3895 205.891 32.8457L203.546 32.1931C203.369 32.6282 203.036 32.9817 202.547 33.2536C202.071 33.5119 201.561 33.641 201.017 33.641C200.542 33.641 200.093 33.5391 199.671 33.3351C199.264 33.1176 198.924 32.8049 198.652 32.3971C198.393 31.9892 198.237 31.5134 198.183 30.9696H206.442C206.455 30.8608 206.469 30.7249 206.483 30.5617C206.496 30.385 206.503 30.215 206.503 30.0519C206.503 29.0866 206.279 28.1893 205.83 27.36C205.395 26.5171 204.763 25.8442 203.934 25.3411C203.104 24.8245 202.105 24.5662 200.936 24.5662C199.78 24.5662 198.774 24.8245 197.918 25.3411C197.075 25.8442 196.422 26.5171 195.96 27.36C195.511 28.2029 195.287 29.1342 195.287 30.1539C195.287 30.888 195.416 31.5881 195.674 32.2543C195.946 32.9069 196.327 33.4915 196.816 34.0081C197.306 34.5111 197.897 34.9122 198.591 35.2113ZM203.24 27.8291C203.498 28.2233 203.655 28.6924 203.709 29.2362H198.122C198.176 28.6924 198.326 28.2233 198.57 27.8291C198.829 27.4212 199.155 27.1085 199.549 26.891C199.957 26.6599 200.406 26.5443 200.895 26.5443C201.398 26.5443 201.853 26.6599 202.261 26.891C202.669 27.1085 202.995 27.4212 203.24 27.8291ZM212.308 27.6047C212.96 27.2785 213.701 27.1153 214.53 27.1153V24.6274C214.476 24.6138 214.408 24.607 214.326 24.607H213.98C213.327 24.6478 212.709 24.8789 212.124 25.3004C211.539 25.7218 211.057 26.2996 210.676 27.0337V24.7498H208.168V35.4356H210.9V28.9711C211.186 28.3729 211.655 27.9174 212.308 27.6047ZM218.545 35.2113C219.239 35.4968 220.014 35.6395 220.87 35.6395C221.659 35.6395 222.379 35.524 223.032 35.2928C223.684 35.0481 224.249 34.7151 224.724 34.2936C225.214 33.8721 225.588 33.3895 225.846 32.8457L223.501 32.1931C223.324 32.6282 222.991 32.9817 222.502 33.2536C222.026 33.5119 221.516 33.641 220.972 33.641C220.496 33.641 220.048 33.5391 219.626 33.3351C219.218 33.1176 218.878 32.8049 218.607 32.3971C218.348 31.9892 218.192 31.5134 218.137 30.9696H226.397C226.41 30.8608 226.424 30.7249 226.437 30.5617C226.451 30.385 226.458 30.215 226.458 30.0519C226.458 29.0866 226.233 28.1893 225.785 27.36C225.35 26.5171 224.718 25.8442 223.888 25.3411C223.059 24.8245 222.06 24.5662 220.891 24.5662C219.735 24.5662 218.729 24.8245 217.872 25.3411C217.029 25.8442 216.377 26.5171 215.915 27.36C215.466 28.2029 215.242 29.1342 215.242 30.1539C215.242 30.888 215.371 31.5881 215.629 32.2543C215.901 32.9069 216.282 33.4915 216.771 34.0081C217.261 34.5111 217.852 34.9122 218.545 35.2113ZM223.195 27.8291C223.453 28.2233 223.61 28.6924 223.664 29.2362H218.076C218.131 28.6924 218.28 28.2233 218.525 27.8291C218.783 27.4212 219.11 27.1085 219.504 26.891C219.912 26.6599 220.36 26.5443 220.85 26.5443C221.353 26.5443 221.808 26.6599 222.216 26.891C222.624 27.1085 222.95 27.4212 223.195 27.8291ZM98.9409 20.9567V35.4356H109.137V32.9681H101.755V20.9567H98.9409ZM110.585 24.7498V35.4356H113.317V24.7498H110.585ZM110.585 20.5488V23.2611H113.317V20.5488H110.585Z" fill="white"/>
<defs>
<clipPath id="clip0_4103_8231">
<rect width="44.9408" height="36.0499" fill="white" transform="translate(50 3.93359)"/>
</clipPath>
</defs>
</svg>
