<svg width="24" height="25" viewBox="0 0 24 25" fill="none" xmlns="http://www.w3.org/2000/svg">
<g clip-path="url(#clip0_4082_3757)">
<g clip-path="url(#clip1_4082_3757)">
<path d="M22.5 21.5H1.50001C0.671548 21.5 0 20.8284 0 20C0 19.1716 0.671548 18.5 1.50001 18.5H22.5C23.3285 18.5 24.0001 19.1716 24.0001 20C24 20.8284 23.3285 21.5 22.5 21.5Z" fill="#383838"/>
<path d="M22.5 14H1.50001C0.671548 14 0 13.3284 0 12.5C0 11.6716 0.671548 11 1.50001 11H22.5C23.3285 11 24.0001 11.6715 24.0001 12.5C24.0001 13.3285 23.3285 14 22.5 14Z" fill="#383838"/>
<path d="M22.5 6.50002H1.50001C0.671548 6.50002 0 5.82847 0 5.00001C0 4.17155 0.671548 3.5 1.50001 3.5H22.5C23.3285 3.5 24.0001 4.17155 24.0001 5.00001C24.0001 5.82847 23.3285 6.50002 22.5 6.50002Z" fill="#383838"/>
</g>
</g>
<defs>
<clipPath id="clip0_4082_3757">
<rect width="24" height="24" fill="white" transform="translate(0 0.5)"/>
</clipPath>
<clipPath id="clip1_4082_3757">
<rect width="24" height="24" fill="white" transform="translate(0 0.5)"/>
</clipPath>
</defs>
</svg>
