<svg width="177" height="42" viewBox="0 0 177 42" fill="none" xmlns="http://www.w3.org/2000/svg">
<g clip-path="url(#clip0_4082_9418)">
<path d="M15.9639 27.4731C16.1501 26.955 16.3358 26.4377 16.521 25.9212C16.8969 24.8696 17.2744 23.818 17.6413 22.7631C17.6683 22.6858 17.6515 22.5545 17.6004 22.4948C16.5079 21.2187 16.0301 19.7331 16.0391 18.0659C16.0514 15.8375 16.0391 13.6075 16.0477 11.3804C16.0588 9.11233 17.0052 7.29789 18.8782 6.05036C21.1217 4.55619 23.4944 4.49607 25.8009 5.8843C27.8387 7.11137 28.8551 9.00762 28.8858 11.3881C28.9148 13.6844 28.894 15.9815 28.8919 18.2782C28.8919 20.0967 28.2375 21.6563 26.9347 22.912C25.7269 24.0773 24.2646 24.7015 22.5684 24.7285C21.961 24.7401 21.3553 24.6606 20.7716 24.4925C20.7112 24.4721 20.6468 24.4669 20.5839 24.4773C20.5211 24.4877 20.4617 24.5134 20.4112 24.5522C19.0052 25.5003 17.5975 26.446 16.188 27.3892C16.1271 27.4301 16.0653 27.4673 16.0015 27.5066L15.9639 27.4731ZM22.4596 14.2247H27.3646C27.4873 14.2247 27.6137 14.2521 27.61 14.0525C27.5978 13.0512 27.6542 12.045 27.5741 11.0495C27.3965 8.8436 26.2464 7.29993 24.1706 6.52974C22.5169 5.9162 20.9208 6.16816 19.488 7.18418C18.1382 8.14416 17.402 9.48454 17.3321 11.1517C17.2936 12.0835 17.3263 13.0185 17.3271 13.9519C17.3271 14.2239 17.3271 14.2247 17.5926 14.2247H22.4596ZM21.3458 18.1305L21.381 18.0835C21.3549 18.0777 21.3284 18.0738 21.3017 18.072C20.0339 18.072 18.766 18.0708 17.4977 18.0683C17.3574 18.0683 17.3276 18.1305 17.3267 18.2549C17.3158 19.327 17.6409 20.3757 18.2563 21.2538C18.8717 22.1319 19.7465 22.7953 20.7581 23.1509C22.1213 23.6385 23.4785 23.5599 24.7608 22.8871C26.6014 21.9193 27.5422 20.3646 27.6113 18.2839C27.617 18.1076 27.5487 18.0663 27.3855 18.0671C26.1791 18.0723 24.9729 18.0723 23.7668 18.0671C23.5926 18.0671 23.5214 18.1129 23.4875 18.2925C23.4098 18.6839 23.1603 18.9469 22.7799 19.0696C22.3917 19.1923 22.0191 19.1265 21.7479 18.8197C21.5765 18.6222 21.4775 18.3616 21.3458 18.1305Z" fill="#CFE9BC"/>
<path d="M24.2216 27.1616C24.2961 27.241 24.3525 27.2946 24.4012 27.3543C24.6552 27.6639 24.9452 27.9523 25.1518 28.2909C25.6545 29.1147 25.5199 29.9311 24.8217 30.6027C24.3063 31.0985 23.6891 31.4314 23.0318 31.6842C22.2763 31.975 21.502 32.2159 20.7462 32.5068C20.2439 32.6994 19.7645 32.9452 19.3964 33.362C18.8695 33.9621 19.126 34.538 19.6009 34.9928C19.6451 35.0337 19.74 35.0403 19.8095 35.0366C20.2521 35.0129 20.6934 34.9752 21.1355 34.9548C21.2959 34.9478 21.3454 34.8873 21.345 34.7319C21.3429 34.1326 21.354 33.5334 21.3536 32.9321C21.3536 32.8197 21.3867 32.7685 21.4963 32.7276C22.161 32.4863 22.8224 32.2368 23.485 31.9885C23.5208 31.9787 23.5571 31.971 23.5938 31.9652V36.1144L23.6494 36.1287C23.6813 36.0747 23.7157 36.0223 23.7443 35.9651C23.8903 35.6788 24.0306 35.3924 24.1852 35.1118C24.2192 35.0505 24.3174 34.9826 24.3816 34.9867C25.7019 35.073 27.0186 35.1912 28.2775 35.6411C28.3981 35.6881 28.5152 35.7434 28.6281 35.8068C28.8858 35.943 29.0162 36.145 29.0015 36.4518C28.9839 36.8257 28.9888 37.2016 29.0015 37.5758C29.0097 37.831 28.9042 38.0028 28.6911 38.1292C28.1831 38.4303 27.619 38.5628 27.0492 38.6683C24.8712 39.0724 22.6727 39.1125 20.4697 38.9841C19.4062 38.9223 18.3501 38.807 17.3202 38.5374C16.9606 38.4434 16.6138 38.292 16.2726 38.1423C16.0342 38.0376 15.9315 37.8355 15.9422 37.5619C15.9581 37.1607 15.9528 36.7578 15.9422 36.3557C15.9372 36.1512 16.0051 35.9737 16.1831 35.8943C16.5772 35.7141 16.9813 35.5563 17.3934 35.4219C17.7161 35.32 18.0584 35.2791 18.3918 35.2096C18.4439 35.1958 18.4953 35.1791 18.5456 35.1597C18.4765 35.0145 18.4057 34.8852 18.3513 34.7507C18.0396 33.9711 18.2392 33.2917 18.7898 32.7027C19.2896 32.1681 19.9351 31.8531 20.6055 31.593C20.7956 31.5194 20.9895 31.4543 21.1846 31.3942C21.3008 31.3586 21.3482 31.2936 21.3458 31.1717C21.3421 29.9246 21.3388 28.6766 21.3458 27.4299C21.3458 27.2181 21.2022 27.2254 21.0754 27.2078C20.328 27.0891 19.5986 26.8762 18.9047 26.5743C18.8745 26.5616 18.8462 26.5436 18.791 26.5145C18.8296 26.4751 18.8706 26.4381 18.9137 26.4037C19.4729 26.0266 20.0304 25.6466 20.5956 25.2793C20.6856 25.2251 20.7917 25.2043 20.8954 25.2208C23.4919 25.7345 25.7359 25.0572 27.5875 23.1785C28.9442 21.8013 29.5619 20.1039 29.5508 18.1749C29.5508 17.9365 29.557 17.6976 29.5508 17.4595C29.5467 17.3221 29.5881 17.264 29.7353 17.2657C30.2601 17.2722 30.7849 17.2693 31.3096 17.2677C31.4082 17.2677 31.4769 17.2759 31.4798 17.4064C31.5084 18.6449 31.4634 19.8752 31.0495 21.0606C30.0347 23.9647 28.0779 25.9223 25.1595 26.9052C24.8642 27.0033 24.5587 27.07 24.2216 27.1616ZM23.6196 27.9159V30.4109C23.8302 30.2473 23.9971 30.1356 24.1468 30.0019C24.3513 29.8199 24.4851 29.5929 24.5035 29.311C24.5321 28.8848 24.0384 28.1016 23.6196 27.9159Z" fill="#0D6B68"/>
<path d="M15.3839 13.3278C15.3839 14.1937 15.3794 15.0592 15.3876 15.9251C15.3896 16.1022 15.3422 16.1607 15.1589 16.1578C14.4366 16.1455 13.7143 16.1529 12.9911 16.1455C12.2254 16.1374 11.6004 15.5443 11.5877 14.7786C11.5701 13.7969 11.5726 12.8153 11.5877 11.8336C11.5984 11.1084 12.1992 10.5214 12.9453 10.4838C13.2647 10.4683 13.5862 10.4703 13.9061 10.4838C14.0791 10.4899 14.1515 10.4507 14.1769 10.2593C14.367 8.73521 14.986 7.29649 15.9618 6.11051C17.2654 4.51327 18.9314 3.48293 20.965 3.13935C23.962 2.63298 26.5278 3.50993 28.6208 5.71621C29.2045 6.33384 29.6544 7.04064 30.0192 7.81451C30.3839 8.59121 30.6288 9.41864 30.7457 10.2687C30.7673 10.4233 30.823 10.4928 30.9911 10.485C31.297 10.4711 31.6046 10.4736 31.911 10.4814C32.7262 10.503 33.3205 11.0511 33.3426 11.861C33.3698 12.8427 33.3698 13.8243 33.3426 14.806C33.3233 15.5381 32.7221 16.1173 31.9895 16.1378C31.2336 16.1594 30.4761 16.1451 29.7202 16.1554C29.5399 16.1578 29.5476 16.0539 29.5476 15.9312C29.5476 14.3565 29.5779 12.7817 29.5337 11.2078C29.4732 9.07104 28.62 7.29055 26.9695 5.91377C25.5011 4.6867 23.7996 4.16151 21.9009 4.29853C20.5573 4.38988 19.2715 4.87977 18.2078 5.70558C16.6093 6.93265 15.6461 8.54217 15.4317 10.5488C15.3414 11.3918 15.3962 12.2508 15.3851 13.1024C15.3851 13.1772 15.3851 13.2521 15.3851 13.3269L15.3839 13.3278ZM30.8295 13.3073C30.8295 13.7634 30.8332 14.2198 30.8271 14.6759C30.8271 14.8273 30.8794 14.8837 31.0316 14.8747C31.2218 14.8637 31.4128 14.8714 31.6042 14.8661C31.8815 14.8579 32.0648 14.7 32.068 14.4264C32.0776 13.6902 32.0776 12.9549 32.068 12.2205C32.0644 11.9498 31.8815 11.7845 31.6087 11.7706C31.439 11.7624 31.2684 11.7669 31.0982 11.7657C30.834 11.7632 30.8344 11.7632 30.8344 12.0197C30.8314 12.4505 30.8298 12.8797 30.8295 13.3073ZM14.1032 13.3229H14.1008C14.1008 12.8672 14.0975 12.4111 14.1008 11.9555C14.1008 11.8156 14.0521 11.7579 13.9098 11.7645C13.7265 11.7731 13.5416 11.7645 13.3588 11.7694C13.0516 11.7796 12.8798 11.9473 12.868 12.2537C12.8598 12.4713 12.8647 12.6893 12.8647 12.9081C12.8647 13.3989 12.8598 13.8898 12.868 14.3777C12.8733 14.6939 13.0443 14.8575 13.3486 14.8628C13.5257 14.8661 13.7032 14.8583 13.8803 14.8702C14.0472 14.8817 14.1094 14.8228 14.1057 14.651C14.0971 14.2092 14.1032 13.7671 14.1032 13.3245V13.3229Z" fill="#0D6B68"/>
<path d="M10.8094 16.8875C10.8094 18.3396 10.8094 19.7916 10.8094 21.2437C10.8094 21.624 10.5464 21.9459 10.1987 22.0106C9.80731 22.0834 9.45473 21.9132 9.31157 21.5606C9.26003 21.4322 9.25267 21.2829 9.24286 21.1418C9.22772 20.9181 9.24081 20.6919 9.21872 20.4686C9.19934 20.2868 9.11343 20.1186 8.97752 19.9963C8.8416 19.8741 8.66528 19.8064 8.48248 19.8063C8.29661 19.809 8.11823 19.88 7.98143 20.0059C7.84463 20.1317 7.759 20.3036 7.74091 20.4886C7.72333 20.6931 7.73478 20.8976 7.73028 21.1021C7.72046 21.5668 7.39938 21.9026 6.95681 21.9128C6.5212 21.9235 6.17966 21.5909 6.16044 21.1279C6.15144 20.9307 6.16044 20.732 6.14735 20.5352C6.11545 20.1135 5.79845 19.8067 5.40865 19.8067C5.20811 19.8077 5.01603 19.8877 4.87407 20.0293C4.73211 20.171 4.65171 20.3629 4.65032 20.5634C4.63682 21.3606 4.654 22.1586 4.63886 22.9558C4.63904 23.164 4.59323 23.3696 4.5047 23.5579C4.35786 23.8442 3.99056 23.9719 3.69483 23.8962C3.35412 23.805 3.1177 23.544 3.08743 23.2062C3.07598 23.0773 3.07843 22.9472 3.07843 22.818C3.07843 21.4613 3.08825 20.1049 3.07434 18.7482C3.06984 18.533 3.00845 18.3229 2.89642 18.1392C2.72135 17.8643 2.42154 17.8099 2.11354 17.8823C1.82232 17.9514 1.60799 18.2156 1.58426 18.5388C1.55972 18.8811 1.45174 19.1634 1.12411 19.3221C0.615281 19.5675 0.0197404 19.2194 0.00746968 18.6533C-0.00561913 17.9854 0.00256137 17.3174 0.00215235 16.6491C0.00215235 16.1517 -0.00193791 15.6539 0.00215235 15.1565C0.0017059 14.9536 0.0794981 14.7582 0.219358 14.6111C0.359218 14.464 0.550386 14.3765 0.753123 14.3667C0.949486 14.3595 1.14131 14.4268 1.28998 14.5553C1.43865 14.6838 1.53313 14.8638 1.5544 15.0592C1.58467 15.3635 1.56872 15.6727 1.57567 15.9783C1.58344 16.3055 1.71801 16.555 2.02846 16.692C2.12509 16.7354 2.22998 16.7574 2.33591 16.7563C2.44184 16.7552 2.54626 16.7312 2.64198 16.6858C2.7377 16.6404 2.82242 16.5747 2.89029 16.4934C2.95816 16.4121 3.00756 16.317 3.03508 16.2147C3.0647 16.0887 3.07844 15.9596 3.07598 15.8302C3.07843 14.1462 3.0817 12.4627 3.07598 10.7787C3.07598 10.4388 3.1631 10.1587 3.46292 9.97787C3.97297 9.67069 4.62578 10.0147 4.63723 10.6106C4.654 11.4966 4.64705 12.3829 4.64705 13.2693C4.64705 14.7962 4.64459 16.3231 4.64705 17.8504C4.64705 18.3244 4.88183 18.6312 5.28267 18.6991C5.68352 18.767 6.07782 18.5195 6.12404 18.1142C6.16985 17.717 6.15144 17.3125 6.16085 16.9108C6.17394 16.3382 6.65372 15.9865 7.19814 16.1468C7.34544 16.1932 7.47489 16.2837 7.56892 16.4062C7.66296 16.5287 7.71701 16.6772 7.72373 16.8315C7.73928 17.1996 7.72373 17.5677 7.73641 17.9359C7.75359 18.4545 8.15076 18.7854 8.63177 18.695C8.78082 18.6703 8.91797 18.5983 9.02299 18.4896C9.12801 18.381 9.19534 18.2415 9.21504 18.0917C9.23304 17.9635 9.24165 17.8342 9.24081 17.7048C9.24081 16.0212 9.23754 14.3377 9.24081 12.6537C9.23563 12.5047 9.25866 12.3561 9.30871 12.2156C9.45882 11.8524 9.81917 11.6864 10.2172 11.7694C10.5521 11.8393 10.8078 12.1588 10.8086 12.5326C10.8113 13.9847 10.8113 15.4366 10.8086 16.8884L10.8094 16.8875Z" fill="#CFE9BC"/>
<path d="M34.1267 17.7047C34.1267 16.0413 34.1267 14.3779 34.1267 12.7146C34.1267 12.2311 34.4457 11.8937 34.8969 11.8855C35.3202 11.8777 35.674 12.1837 35.681 12.6074C35.6965 13.6431 35.6908 14.6791 35.6932 15.716C35.6932 15.9205 35.6896 16.125 35.6932 16.3295C35.7051 16.8159 36.0135 17.139 36.4589 17.137C36.8933 17.1349 37.1952 16.8126 37.2066 16.3349C37.2115 16.1373 37.2066 15.9397 37.2107 15.7422C37.2159 15.5446 37.2958 15.3563 37.4343 15.2153C37.5728 15.0744 37.7596 14.9911 37.957 14.9825C38.1545 14.9738 38.3479 15.0403 38.4982 15.1687C38.6485 15.297 38.7446 15.4775 38.7671 15.6739C38.7887 15.8829 38.7801 16.0956 38.783 16.3066C38.79 16.8077 39.0771 17.1316 39.5193 17.1361C39.9721 17.141 40.2854 16.8159 40.287 16.3124C40.2919 14.8063 40.287 13.3003 40.287 11.7943C40.287 11.5419 40.294 11.2895 40.287 11.0376C40.271 10.5206 40.7251 10.2273 41.0609 10.2285C41.5055 10.2285 41.8495 10.5692 41.8536 11.0421C41.8609 11.901 41.8536 12.76 41.8589 13.6189C41.8622 14.0897 42.1571 14.4137 42.5784 14.4272C42.9837 14.4403 43.3048 14.1695 43.3522 13.767C43.3666 13.6443 43.3596 13.5216 43.3641 13.3989C43.3792 12.9796 43.7093 12.6422 44.1159 12.6299C44.5388 12.6168 44.8844 12.9093 44.9253 13.333C44.9458 13.5424 44.9384 13.7551 44.9384 13.9662C44.9384 14.9271 44.9384 15.8881 44.9384 16.849C44.9384 17.1762 44.7961 17.4274 44.4971 17.5746C44.2149 17.7137 43.9408 17.6846 43.6868 17.5039C43.4786 17.3554 43.3788 17.1431 43.369 16.8903C43.3616 16.6997 43.369 16.5087 43.3633 16.3177C43.3473 15.8583 43.0361 15.5307 42.6139 15.5364C42.2716 15.5414 41.8568 15.806 41.8581 16.3373C41.8616 17.8567 41.8616 19.3764 41.8581 20.8963C41.8581 21.343 41.6163 21.6432 41.2143 21.7168C40.7492 21.8027 40.3181 21.4882 40.3025 21.0162C40.2817 20.383 40.2952 19.7482 40.2915 19.115C40.2915 18.8009 40.213 18.5223 39.9172 18.3473C39.8125 18.282 39.693 18.2442 39.5698 18.2372C39.4466 18.2302 39.3236 18.2543 39.2122 18.3072C39.1007 18.3601 39.0043 18.4402 38.9319 18.5402C38.8595 18.6401 38.8134 18.7566 38.7977 18.879C38.7797 19.0066 38.7896 19.1379 38.7793 19.2668C38.7466 19.6934 38.3916 20.028 37.9826 20.0206C37.5662 20.0132 37.2336 19.6758 37.2128 19.2434C37.2122 19.0939 37.1985 18.9447 37.1719 18.7976C37.1353 18.6366 37.0446 18.493 36.9149 18.3909C36.7853 18.2887 36.6244 18.2342 36.4593 18.2364C36.2944 18.2351 36.1337 18.2887 36.0025 18.3887C35.8714 18.4887 35.7773 18.6296 35.735 18.789C35.7078 18.9085 35.6953 19.0309 35.6977 19.1535C35.6945 20.326 35.6945 21.4985 35.6977 22.6711C35.6977 23.0044 35.5955 23.2736 35.292 23.4376C34.7684 23.7206 34.1524 23.3889 34.1365 22.7938C34.1148 21.9757 34.1267 21.1577 34.1254 20.3396C34.1254 19.4602 34.1254 18.5811 34.1254 17.7022L34.1267 17.7047Z" fill="#CFE9BC"/>
<path d="M16.1816 24.7418C15.7183 24.295 15.3049 23.7993 14.9488 23.2632C14.1267 22.0423 13.6276 20.6329 13.498 19.1668C13.446 18.5847 13.4702 17.9961 13.4571 17.4104C13.455 17.3045 13.5033 17.2681 13.606 17.2685C14.1443 17.2705 14.6821 17.2722 15.2204 17.2656C15.3693 17.2656 15.3807 17.3417 15.384 17.4583C15.3996 17.9757 15.4073 18.4939 15.4445 19.0101C15.5394 20.3305 15.989 21.5195 16.8119 22.5609C16.8978 22.6697 16.9158 22.7629 16.8667 22.8946C16.652 23.4693 16.4479 24.0477 16.2393 24.624C16.2222 24.6643 16.203 24.7036 16.1816 24.7418Z" fill="#0D6B68"/>
<path d="M22.4706 7.76571C22.5114 7.76492 22.552 7.77242 22.5899 7.78774C22.6277 7.80307 22.6621 7.82592 22.6909 7.85489C22.7196 7.88387 22.7423 7.91838 22.7573 7.95634C22.7724 7.9943 22.7796 8.03492 22.7786 8.07575C22.7807 8.11768 22.7744 8.15962 22.76 8.19906C22.7456 8.2385 22.7234 8.27465 22.6948 8.30537C22.6661 8.33608 22.6316 8.36074 22.5933 8.37788C22.555 8.39501 22.5136 8.40428 22.4716 8.40513C22.4296 8.40598 22.3879 8.39839 22.3489 8.38282C22.3099 8.36725 22.2744 8.344 22.2446 8.31447C22.2147 8.28494 22.1911 8.24971 22.1752 8.21088C22.1592 8.17206 22.1511 8.13041 22.1516 8.08843C22.1501 8.04597 22.1573 8.00365 22.1728 7.96408C22.1883 7.92451 22.2116 7.88852 22.2415 7.8583C22.2714 7.82809 22.3071 7.80429 22.3465 7.78837C22.3859 7.77245 22.4281 7.76473 22.4706 7.76571Z" fill="#CFE9BC"/>
<path d="M18.9264 8.07539C18.9268 8.03303 18.9358 7.99119 18.9528 7.95241C18.9699 7.91363 18.9946 7.87872 19.0256 7.8498C19.0565 7.82088 19.093 7.79855 19.1329 7.78417C19.1727 7.7698 19.2151 7.76367 19.2574 7.76617C19.3378 7.7728 19.4127 7.80996 19.4666 7.87004C19.5206 7.93012 19.5495 8.00855 19.5475 8.08927C19.5454 8.16998 19.5126 8.24685 19.4557 8.30413C19.3988 8.3614 19.3221 8.39474 19.2414 8.39729C19.1991 8.3986 19.157 8.39111 19.1177 8.3753C19.0784 8.35949 19.0429 8.33571 19.0133 8.30545C18.9837 8.2752 18.9607 8.23913 18.9457 8.19953C18.9308 8.15993 18.9242 8.11766 18.9264 8.07539Z" fill="#CFE9BC"/>
<path d="M23.5376 9.51145C23.4965 9.51362 23.4555 9.50715 23.4171 9.49245C23.3787 9.47774 23.3439 9.45514 23.3148 9.4261C23.2857 9.39706 23.2631 9.36223 23.2483 9.32388C23.2336 9.28552 23.227 9.24449 23.2292 9.20345C23.2281 9.16068 23.2359 9.11816 23.2521 9.07857C23.2683 9.03897 23.2925 9.00318 23.3233 8.97345C23.354 8.94373 23.3906 8.92072 23.4308 8.90588C23.4709 8.89105 23.5137 8.88471 23.5564 8.88727C23.6358 8.88866 23.7115 8.92107 23.7673 8.97756C23.8231 9.03405 23.8545 9.11014 23.855 9.18954C23.8581 9.23224 23.8521 9.27512 23.8374 9.31531C23.8226 9.3555 23.7994 9.39207 23.7693 9.42255C23.7393 9.45304 23.703 9.47675 23.6631 9.49208C23.6231 9.50741 23.5803 9.51401 23.5376 9.51145Z" fill="#CFE9BC"/>
<path d="M24.6042 12.871C24.4304 12.8689 24.3081 12.7372 24.3093 12.554C24.3106 12.3707 24.4345 12.2415 24.6092 12.2402C24.8002 12.2402 24.9286 12.3674 24.9266 12.5572C24.9283 12.5996 24.9211 12.6419 24.9054 12.6814C24.8897 12.7208 24.8659 12.7565 24.8355 12.7861C24.8051 12.8157 24.7688 12.8386 24.7289 12.8532C24.6891 12.8678 24.6466 12.8739 24.6042 12.871Z" fill="#CFE9BC"/>
<path d="M24.9258 13.6661C24.9283 13.8588 24.8031 13.9884 24.6088 13.9889C24.4325 13.9889 24.3082 13.8588 24.3082 13.6739C24.3063 13.633 24.3128 13.5921 24.3274 13.5538C24.3419 13.5155 24.3642 13.4806 24.3928 13.4513C24.4214 13.422 24.4558 13.3989 24.4937 13.3834C24.5317 13.368 24.5724 13.3605 24.6133 13.3614C24.7978 13.3622 24.9234 13.4845 24.9258 13.6661Z" fill="#CFE9BC"/>
<path d="M22.7783 9.19245C22.7815 9.38347 22.6556 9.51231 22.4641 9.51149C22.4235 9.51381 22.3828 9.5077 22.3445 9.49354C22.3063 9.47938 22.2715 9.45749 22.2421 9.42922C22.2128 9.40096 22.1896 9.36693 22.174 9.32929C22.1585 9.29164 22.1508 9.25118 22.1516 9.21045C22.1499 9.16811 22.1567 9.12584 22.1719 9.08627C22.1871 9.04669 22.2102 9.01063 22.2398 8.98032C22.2694 8.95001 22.3049 8.92609 22.3441 8.91002C22.3834 8.89396 22.4254 8.88609 22.4678 8.88691C22.5086 8.88546 22.5492 8.89233 22.5872 8.9071C22.6252 8.92188 22.6598 8.94425 22.6888 8.97285C22.7179 9.00145 22.7408 9.03567 22.7562 9.07343C22.7716 9.11119 22.7791 9.15169 22.7783 9.19245Z" fill="#CFE9BC"/>
<path d="M26.7765 12.2403C26.8172 12.2395 26.8576 12.2471 26.8952 12.2624C26.9328 12.2778 26.9669 12.3007 26.9954 12.3296C27.0239 12.3586 27.0463 12.3931 27.061 12.431C27.0758 12.4688 27.0827 12.5093 27.0813 12.5499C27.0831 12.5922 27.0762 12.6343 27.0609 12.6737C27.0457 12.7132 27.0224 12.749 26.9927 12.779C26.9629 12.809 26.9272 12.8325 26.8879 12.8481C26.8486 12.8636 26.8065 12.8709 26.7643 12.8694C26.6809 12.8677 26.6015 12.833 26.5437 12.7729C26.4858 12.7128 26.4542 12.6321 26.4559 12.5487C26.4575 12.4653 26.4922 12.3859 26.5523 12.3281C26.6125 12.2702 26.6931 12.2387 26.7765 12.2403Z" fill="#CFE9BC"/>
<path d="M23.5527 12.2402C23.5933 12.2402 23.6335 12.2484 23.671 12.2642C23.7084 12.2801 23.7422 12.3033 23.7705 12.3325C23.7988 12.3617 23.8209 12.3962 23.8356 12.4341C23.8502 12.4721 23.8571 12.5125 23.8557 12.5531C23.857 12.5955 23.8494 12.6377 23.8337 12.677C23.8179 12.7163 23.7942 12.752 23.764 12.7818C23.7339 12.8115 23.6979 12.8348 23.6584 12.8501C23.6188 12.8653 23.5766 12.8723 23.5342 12.8706C23.4519 12.8664 23.3744 12.8301 23.3184 12.7695C23.2625 12.709 23.2325 12.6288 23.2349 12.5464C23.2373 12.4639 23.2719 12.3857 23.3313 12.3285C23.3907 12.2713 23.4702 12.2396 23.5527 12.2402Z" fill="#CFE9BC"/>
<path d="M24.6236 10.0061C24.666 10.0051 24.7082 10.0131 24.7473 10.0296C24.7864 10.0462 24.8215 10.0708 24.8503 10.102C24.8791 10.1331 24.901 10.17 24.9144 10.2103C24.9279 10.2505 24.9326 10.2932 24.9283 10.3354C24.9197 10.5264 24.7929 10.6389 24.5937 10.632C24.4183 10.6258 24.3041 10.4945 24.3111 10.3072C24.3108 10.2666 24.3188 10.2264 24.3346 10.189C24.3503 10.1516 24.3735 10.1178 24.4028 10.0896C24.432 10.0615 24.4666 10.0396 24.5046 10.0252C24.5426 10.0109 24.583 10.0044 24.6236 10.0061Z" fill="#CFE9BC"/>
<path d="M27.0814 10.3108C27.0859 10.5022 26.9611 10.631 26.7705 10.6323C26.5799 10.6335 26.4638 10.5165 26.458 10.3333C26.4553 10.291 26.4614 10.2486 26.4759 10.2087C26.4905 10.1689 26.5131 10.1326 26.5425 10.102C26.5719 10.0714 26.6072 10.0473 26.6464 10.0311C26.6856 10.0149 26.7277 10.0071 26.7701 10.0081C26.8107 10.0063 26.8513 10.0129 26.8893 10.0273C26.9273 10.0418 26.962 10.0639 26.9911 10.0922C27.0203 10.1206 27.0433 10.1546 27.0588 10.1922C27.0744 10.2298 27.082 10.2701 27.0814 10.3108Z" fill="#CFE9BC"/>
<path d="M23.5216 8.39666C23.4596 8.39316 23.4 8.37144 23.3502 8.3342C23.3004 8.29697 23.2628 8.24588 23.2419 8.18733C23.2211 8.12879 23.218 8.0654 23.233 8.00509C23.248 7.94479 23.2805 7.89026 23.3264 7.84833C23.3722 7.8064 23.4294 7.77894 23.4909 7.76938C23.5523 7.75982 23.6151 7.7686 23.6716 7.79461C23.728 7.82062 23.7755 7.86271 23.8081 7.91559C23.8408 7.96848 23.8571 8.02983 23.855 8.09194C23.8547 8.13433 23.8456 8.17621 23.8284 8.21494C23.8112 8.25368 23.7861 8.28844 23.7548 8.31704C23.7235 8.34565 23.6867 8.36748 23.6465 8.38118C23.6064 8.39488 23.5639 8.40015 23.5216 8.39666Z" fill="#CFE9BC"/>
<path d="M20.6277 9.19369C20.6307 9.23461 20.6252 9.2757 20.6115 9.31437C20.5978 9.35303 20.5762 9.38843 20.5481 9.41831C20.52 9.44819 20.486 9.4719 20.4482 9.48795C20.4104 9.50399 20.3698 9.51201 20.3287 9.5115C20.134 9.51764 20.0015 9.39166 20.0052 9.19942C20.0043 9.1584 20.0116 9.11761 20.0268 9.07949C20.0419 9.04137 20.0646 9.00669 20.0935 8.97753C20.1223 8.94837 20.1568 8.92531 20.1947 8.90975C20.2327 8.89418 20.2734 8.88642 20.3144 8.88692C20.3554 8.88542 20.3963 8.89228 20.4346 8.90707C20.4728 8.92187 20.5077 8.94431 20.537 8.97301C20.5663 9.00171 20.5895 9.03607 20.6051 9.07401C20.6207 9.11195 20.6284 9.15267 20.6277 9.19369Z" fill="#CFE9BC"/>
<path d="M24.927 9.20008C24.927 9.39437 24.8042 9.51176 24.6071 9.51176C24.4275 9.51176 24.3097 9.38905 24.3093 9.20212C24.3089 9.0152 24.432 8.88922 24.6071 8.88677C24.7989 8.8839 24.9278 9.01275 24.927 9.20008Z" fill="#CFE9BC"/>
<path d="M19.2482 8.88692C19.2892 8.88664 19.3298 8.89475 19.3676 8.91074C19.4054 8.92673 19.4395 8.95027 19.4678 8.97992C19.4961 9.00956 19.5181 9.04469 19.5324 9.08314C19.5467 9.12158 19.553 9.16255 19.5508 9.20351C19.5527 9.24454 19.546 9.28551 19.5311 9.32379C19.5162 9.36207 19.4935 9.3968 19.4643 9.42577C19.4352 9.45474 19.4004 9.47729 19.362 9.49199C19.3237 9.50668 19.2826 9.51319 19.2416 9.51109C19.199 9.51365 19.1563 9.507 19.1164 9.4916C19.0766 9.4762 19.0405 9.4524 19.0107 9.42183C18.9808 9.39125 18.9579 9.35462 18.9435 9.3144C18.9291 9.27419 18.9235 9.23135 18.9271 9.18878C18.9281 9.14781 18.9373 9.10746 18.9541 9.07006C18.9708 9.03265 18.9948 8.99894 19.0247 8.97087C19.0545 8.9428 19.0896 8.92093 19.128 8.90652C19.1664 8.89211 19.2072 8.88545 19.2482 8.88692Z" fill="#CFE9BC"/>
<path d="M25.7002 7.76578C25.7409 7.76529 25.7813 7.77313 25.8189 7.78882C25.8565 7.80451 25.8905 7.82772 25.9188 7.85702C25.9471 7.88632 25.9691 7.9211 25.9835 7.95922C25.9979 7.99734 26.0043 8.03799 26.0024 8.07869C26.0028 8.11957 25.9952 8.16012 25.9799 8.19804C25.9646 8.23596 25.942 8.2705 25.9134 8.29969C25.8848 8.32888 25.8507 8.35214 25.8131 8.36816C25.7755 8.38417 25.7351 8.39262 25.6942 8.39302C25.6533 8.39343 25.6128 8.38578 25.5749 8.3705C25.537 8.35523 25.5024 8.33264 25.4732 8.30403C25.444 8.27541 25.4208 8.24132 25.4048 8.20371C25.3887 8.1661 25.3803 8.1257 25.3799 8.08482C25.3787 8.0425 25.3862 8.00038 25.4019 7.96105C25.4175 7.92172 25.4411 7.88602 25.4711 7.85613C25.5011 7.82625 25.5369 7.80282 25.5763 7.78728C25.6157 7.77174 25.6578 7.76443 25.7002 7.76578Z" fill="#CFE9BC"/>
<path d="M22.4729 10.6331C22.2802 10.6367 22.1501 10.5104 22.1514 10.3214C22.1507 10.2393 22.1826 10.1602 22.2401 10.1016C22.2976 10.0429 22.376 10.0095 22.4581 10.0085C22.4988 10.0058 22.5397 10.0114 22.5781 10.025C22.6166 10.0386 22.6518 10.0599 22.6817 10.0876C22.7117 10.1154 22.7356 10.1489 22.7521 10.1862C22.7686 10.2235 22.7772 10.2638 22.7776 10.3046C22.7862 10.4952 22.6618 10.6294 22.4729 10.6331Z" fill="#CFE9BC"/>
<path d="M22.7779 12.5664C22.7767 12.6077 22.7674 12.6484 22.7505 12.6862C22.7336 12.7239 22.7093 12.7579 22.6792 12.7862C22.649 12.8145 22.6136 12.8366 22.5749 12.8511C22.5362 12.8657 22.495 12.8724 22.4536 12.8709C22.4123 12.8695 22.3717 12.8599 22.3341 12.8426C22.2965 12.8254 22.2627 12.8009 22.2346 12.7705C22.2065 12.7401 22.1848 12.7045 22.1705 12.6657C22.1563 12.6269 22.1499 12.5856 22.1517 12.5443C22.1527 12.5019 22.1624 12.4602 22.18 12.4218C22.1977 12.3833 22.2231 12.3488 22.2546 12.3204C22.286 12.292 22.3229 12.2704 22.3631 12.2568C22.4032 12.2432 22.4456 12.2379 22.4879 12.2412C22.5286 12.2425 22.5687 12.252 22.6056 12.2692C22.6426 12.2865 22.6756 12.311 22.7028 12.3415C22.7299 12.3719 22.7506 12.4075 22.7635 12.4462C22.7764 12.4849 22.7813 12.5258 22.7779 12.5664Z" fill="#CFE9BC"/>
<path d="M21.3899 12.8707C21.3488 12.8721 21.3079 12.865 21.2697 12.8498C21.2315 12.8347 21.1968 12.8118 21.1679 12.7826C21.1389 12.7534 21.1163 12.7186 21.1014 12.6802C21.0866 12.6419 21.0798 12.6009 21.0815 12.5599C21.0792 12.5171 21.0859 12.4744 21.1013 12.4345C21.1166 12.3945 21.1403 12.3583 21.1706 12.3282C21.201 12.2981 21.2374 12.2747 21.2775 12.2596C21.3175 12.2446 21.3603 12.2382 21.403 12.2408C21.5834 12.2449 21.7032 12.3742 21.6995 12.5607C21.7011 12.6018 21.6941 12.6427 21.6791 12.681C21.6641 12.7193 21.6414 12.7541 21.6123 12.7832C21.5833 12.8123 21.5485 12.8351 21.5102 12.8502C21.472 12.8652 21.431 12.8722 21.3899 12.8707Z" fill="#CFE9BC"/>
<path d="M20.3137 12.8701C20.2511 12.8706 20.1898 12.8524 20.1376 12.8179C20.0853 12.7834 20.0446 12.734 20.0205 12.6763C19.9965 12.6185 19.9902 12.5548 20.0025 12.4934C20.0147 12.432 20.045 12.3757 20.0895 12.3316C20.1339 12.2875 20.1905 12.2577 20.252 12.2459C20.3134 12.2341 20.377 12.2409 20.4346 12.2654C20.4922 12.2899 20.5412 12.331 20.5754 12.3835C20.6095 12.436 20.6272 12.4975 20.6262 12.5601C20.6265 12.6011 20.6187 12.6418 20.603 12.6797C20.5874 12.7176 20.5644 12.752 20.5353 12.7809C20.5061 12.8098 20.4715 12.8326 20.4335 12.8479C20.3954 12.8632 20.3547 12.8708 20.3137 12.8701Z" fill="#CFE9BC"/>
<path d="M19.5512 12.5462C19.5525 12.6081 19.5354 12.669 19.502 12.7211C19.4685 12.7733 19.4204 12.8143 19.3635 12.839C19.3067 12.8636 19.2439 12.8708 19.183 12.8597C19.1221 12.8485 19.0658 12.8195 19.0215 12.7763C18.9771 12.7331 18.9466 12.6776 18.9338 12.617C18.9211 12.5564 18.9266 12.4934 18.9498 12.436C18.9729 12.3785 19.0127 12.3293 19.0639 12.2945C19.1151 12.2597 19.1756 12.241 19.2375 12.2406C19.2786 12.2385 19.3196 12.2449 19.3581 12.2594C19.3965 12.2739 19.4316 12.2962 19.4611 12.3249C19.4905 12.3536 19.5137 12.3881 19.5292 12.4261C19.5448 12.4642 19.5522 12.5051 19.5512 12.5462Z" fill="#CFE9BC"/>
<path d="M21.3848 11.1199C21.4258 11.117 21.467 11.1227 21.5056 11.1368C21.5443 11.1508 21.5796 11.1728 21.6092 11.2013C21.6388 11.2299 21.6621 11.2643 21.6775 11.3024C21.693 11.3405 21.7003 11.3814 21.6989 11.4225C21.7026 11.6099 21.586 11.7408 21.4073 11.7498C21.3658 11.7514 21.3245 11.7449 21.2855 11.7306C21.2466 11.7162 21.2109 11.6943 21.1805 11.6661C21.1501 11.6379 21.1255 11.604 21.1082 11.5663C21.0909 11.5285 21.0813 11.4878 21.0798 11.4463C21.0783 11.4049 21.085 11.3635 21.0996 11.3247C21.1141 11.2858 21.1362 11.2502 21.1645 11.2199C21.1929 11.1896 21.2269 11.1652 21.2647 11.1481C21.3025 11.131 21.3433 11.1216 21.3848 11.1203V11.1199Z" fill="#CFE9BC"/>
<path d="M22.7781 13.6807C22.7794 13.7219 22.7721 13.7628 22.7569 13.8011C22.7416 13.8393 22.7187 13.874 22.6895 13.903C22.6602 13.932 22.6253 13.9547 22.587 13.9697C22.5486 13.9846 22.5076 13.9915 22.4664 13.9899C22.4236 13.9915 22.381 13.984 22.3413 13.9679C22.3016 13.9519 22.2657 13.9276 22.236 13.8967C22.2064 13.8658 22.1836 13.829 22.1691 13.7886C22.1547 13.7483 22.149 13.7054 22.1523 13.6627C22.1534 13.6217 22.1627 13.5812 22.1796 13.5439C22.1966 13.5065 22.2208 13.4728 22.251 13.445C22.2811 13.4171 22.3166 13.3956 22.3552 13.3816C22.3938 13.3676 22.4348 13.3616 22.4758 13.3637C22.5169 13.3632 22.5577 13.3711 22.5956 13.3871C22.6335 13.403 22.6677 13.4266 22.696 13.4563C22.7244 13.4861 22.7463 13.5214 22.7604 13.56C22.7746 13.5986 22.7806 13.6397 22.7781 13.6807Z" fill="#CFE9BC"/>
<path d="M22.4592 11.7485C22.4167 11.7488 22.3747 11.7402 22.3357 11.7234C22.2967 11.7066 22.2617 11.6818 22.2328 11.6506C22.204 11.6195 22.1819 11.5827 22.1681 11.5426C22.1542 11.5024 22.1489 11.4599 22.1524 11.4176C22.1538 11.3769 22.1633 11.3369 22.1802 11.2998C22.1971 11.2628 22.2212 11.2295 22.251 11.2018C22.2809 11.1741 22.3159 11.1525 22.3541 11.1384C22.3922 11.1243 22.4328 11.1178 22.4735 11.1194C22.5142 11.1188 22.5546 11.1265 22.5923 11.142C22.6299 11.1575 22.6641 11.1804 22.6926 11.2095C22.7211 11.2386 22.7435 11.2731 22.7582 11.3111C22.773 11.349 22.78 11.3895 22.7786 11.4302C22.7806 11.4727 22.7737 11.515 22.7584 11.5546C22.743 11.5942 22.7195 11.6302 22.6894 11.6601C22.6593 11.6901 22.6233 11.7134 22.5837 11.7287C22.544 11.7439 22.5016 11.7506 22.4592 11.7485Z" fill="#CFE9BC"/>
<path d="M18.1584 12.8702C18.1174 12.8707 18.0767 12.8628 18.0388 12.847C18.001 12.8312 17.9668 12.8078 17.9383 12.7782C17.9098 12.7487 17.8877 12.7136 17.8733 12.6752C17.8589 12.6368 17.8525 12.5958 17.8545 12.5549C17.853 12.5121 17.8605 12.4695 17.8766 12.4298C17.8927 12.3902 17.917 12.3544 17.9479 12.3248C17.9788 12.2952 18.0156 12.2724 18.0559 12.258C18.0962 12.2436 18.139 12.2378 18.1817 12.2411C18.3605 12.2477 18.4791 12.3798 18.4725 12.5651C18.4732 12.6061 18.4655 12.6469 18.4499 12.6848C18.4342 12.7228 18.411 12.7571 18.3815 12.7857C18.3521 12.8143 18.3171 12.8365 18.2787 12.8511C18.2403 12.8656 18.1994 12.8721 18.1584 12.8702Z" fill="#CFE9BC"/>
<path d="M19.5513 11.4289C19.5518 11.4908 19.5338 11.5515 19.4997 11.6032C19.4657 11.6549 19.417 11.6953 19.3599 11.7192C19.3028 11.7431 19.2398 11.7495 19.1791 11.7376C19.1183 11.7257 19.0625 11.6959 19.0187 11.6522C18.9749 11.6084 18.9451 11.5526 18.9331 11.4919C18.921 11.4312 18.9274 11.3682 18.9512 11.3111C18.9751 11.254 19.0154 11.2052 19.0671 11.1711C19.1187 11.1369 19.1793 11.1189 19.2412 11.1193C19.2823 11.118 19.3231 11.1251 19.3613 11.1402C19.3995 11.1553 19.4342 11.178 19.4632 11.2071C19.4923 11.2361 19.5151 11.2707 19.5302 11.3089C19.5454 11.347 19.5525 11.3879 19.5513 11.4289Z" fill="#CFE9BC"/>
<path d="M21.4038 10.0065C21.5833 10.0118 21.704 10.1427 21.6991 10.328C21.6942 10.5133 21.5764 10.6327 21.3886 10.6315C21.2009 10.6303 21.0729 10.501 21.0815 10.3043C21.082 10.2632 21.091 10.2227 21.1077 10.1852C21.1244 10.1478 21.1486 10.1141 21.1787 10.0862C21.2089 10.0584 21.2444 10.0369 21.2831 10.0232C21.3217 10.0095 21.3628 10.0038 21.4038 10.0065Z" fill="#CFE9BC"/>
<path d="M19.5518 10.3168C19.5546 10.3578 19.5487 10.3989 19.5347 10.4375C19.5206 10.4761 19.4987 10.5114 19.4702 10.541C19.4418 10.5707 19.4075 10.5941 19.3695 10.6097C19.3315 10.6253 19.2906 10.6328 19.2496 10.6318C19.0561 10.6363 18.9223 10.507 18.9273 10.3168C18.9273 10.2759 18.9355 10.2353 18.9513 10.1976C18.9672 10.1598 18.9904 10.1256 19.0196 10.0968C19.0487 10.0681 19.0833 10.0454 19.1214 10.0302C19.1594 10.015 19.2 10.0074 19.241 10.008C19.282 10.0065 19.3229 10.0135 19.3612 10.0285C19.3994 10.0434 19.4342 10.0661 19.4633 10.095C19.4925 10.124 19.5154 10.1586 19.5306 10.1968C19.5458 10.2349 19.553 10.2758 19.5518 10.3168Z" fill="#CFE9BC"/>
<path d="M19.5511 13.6703C19.5522 13.7323 19.5348 13.7932 19.5011 13.8452C19.4674 13.8972 19.4191 13.938 19.3621 13.9625C19.3052 13.9869 19.2422 13.9938 19.1813 13.9823C19.1204 13.9709 19.0643 13.9415 19.0202 13.8981C18.976 13.8546 18.9458 13.799 18.9333 13.7383C18.9209 13.6776 18.9268 13.6145 18.9504 13.5572C18.9739 13.4999 19.0139 13.4508 19.0654 13.4163C19.1169 13.3819 19.1775 13.3635 19.2395 13.3636C19.2804 13.3618 19.3213 13.3685 19.3596 13.3832C19.3979 13.398 19.4327 13.4204 19.462 13.4492C19.4912 13.478 19.5142 13.5124 19.5296 13.5505C19.5449 13.5885 19.5522 13.6293 19.5511 13.6703Z" fill="#CFE9BC"/>
<path d="M21.3994 13.3638C21.5802 13.3663 21.7017 13.4943 21.6988 13.6792C21.696 13.864 21.572 13.99 21.3929 13.9904C21.2039 13.9904 21.0759 13.8567 21.0812 13.6632C21.0813 13.6223 21.0898 13.5819 21.106 13.5443C21.1223 13.5068 21.146 13.473 21.1758 13.445C21.2056 13.4169 21.2408 13.3953 21.2793 13.3813C21.3177 13.3674 21.3586 13.3614 21.3994 13.3638Z" fill="#CFE9BC"/>
<path d="M21.6996 9.18785C21.7041 9.37763 21.5904 9.50239 21.4072 9.50975C21.2096 9.51793 21.0824 9.39727 21.0799 9.20175C21.078 9.16075 21.0844 9.11978 21.0988 9.08135C21.1133 9.04292 21.1354 9.00784 21.1638 8.97824C21.1923 8.94865 21.2264 8.92517 21.2643 8.90924C21.3021 8.8933 21.3428 8.88525 21.3838 8.88558C21.4249 8.88252 21.4662 8.88814 21.505 8.90206C21.5438 8.91599 21.5792 8.93791 21.609 8.96641C21.6388 8.99491 21.6622 9.02935 21.6778 9.0675C21.6935 9.10565 21.7009 9.14665 21.6996 9.18785Z" fill="#CFE9BC"/>
<path d="M26.7778 13.3636C26.8187 13.3628 26.8594 13.3704 26.8972 13.386C26.9351 13.4016 26.9693 13.4248 26.9978 13.4542C27.0263 13.4836 27.0485 13.5185 27.0629 13.5568C27.0773 13.5951 27.0837 13.636 27.0817 13.6769C27.0831 13.7178 27.0761 13.7587 27.0612 13.7969C27.0463 13.8351 27.0238 13.8698 26.995 13.899C26.9662 13.9282 26.9318 13.9513 26.8938 13.9667C26.8559 13.9822 26.8151 13.9898 26.7741 13.989C26.7321 13.9902 26.6903 13.983 26.6511 13.9677C26.612 13.9524 26.5763 13.9294 26.5462 13.9001C26.5161 13.8707 26.4923 13.8356 26.4761 13.7968C26.4599 13.758 26.4517 13.7164 26.4519 13.6743C26.4522 13.6323 26.4609 13.5908 26.4775 13.5522C26.4942 13.5136 26.5184 13.4787 26.5489 13.4497C26.5793 13.4207 26.6152 13.3982 26.6546 13.3833C26.6939 13.3685 26.7358 13.3618 26.7778 13.3636Z" fill="#CFE9BC"/>
<path d="M24.927 8.0738C24.927 8.26686 24.8043 8.39488 24.6129 8.39693C24.4345 8.39693 24.3127 8.27422 24.3094 8.0873C24.3061 7.90037 24.4395 7.76008 24.6215 7.76376C24.6622 7.76278 24.7028 7.77016 24.7406 7.78545C24.7784 7.80075 24.8127 7.82362 24.8413 7.85268C24.8699 7.88173 24.8923 7.91633 24.9071 7.95437C24.9218 7.9924 24.9286 8.03304 24.927 8.0738Z" fill="#CFE9BC"/>
<path d="M21.3977 8.39828C21.357 8.40122 21.3162 8.3957 21.2777 8.38208C21.2393 8.36846 21.2041 8.34702 21.1744 8.31913C21.1446 8.29123 21.121 8.25748 21.1049 8.21999C21.0889 8.18251 21.0808 8.14211 21.0811 8.10133C21.0769 8.05905 21.0815 8.01636 21.0948 7.97599C21.1081 7.93562 21.1296 7.89847 21.1581 7.86692C21.1865 7.83538 21.2213 7.81013 21.2601 7.79281C21.2989 7.77549 21.3409 7.76647 21.3834 7.76634C21.424 7.7635 21.4649 7.76914 21.5032 7.7829C21.5416 7.79666 21.5767 7.81824 21.6063 7.84627C21.6359 7.8743 21.6594 7.90817 21.6752 7.94574C21.6911 7.9833 21.6989 8.02375 21.6983 8.06452C21.7053 8.2584 21.585 8.39174 21.3977 8.39828Z" fill="#CFE9BC"/>
<path d="M24.6229 11.1176C24.6654 11.1165 24.7076 11.1245 24.7467 11.1411C24.7858 11.1577 24.8209 11.1824 24.8496 11.2137C24.8784 11.245 24.9001 11.282 24.9133 11.3224C24.9266 11.3627 24.9311 11.4054 24.9264 11.4477C24.9174 11.6354 24.7812 11.7573 24.591 11.7475C24.4196 11.7389 24.3027 11.6023 24.3096 11.4178C24.3093 11.3772 24.3173 11.3369 24.3331 11.2994C24.3489 11.262 24.3721 11.2282 24.4015 11.2001C24.4308 11.172 24.4656 11.1501 24.5037 11.1359C24.5418 11.1218 24.5823 11.1155 24.6229 11.1176Z" fill="#CFE9BC"/>
<path d="M27.0811 11.4374C27.082 11.4798 27.074 11.522 27.0577 11.5612C27.0413 11.6004 27.017 11.6358 26.9862 11.665C26.9553 11.6942 26.9188 11.7167 26.8788 11.731C26.8388 11.7452 26.7962 11.751 26.7539 11.7478C26.7131 11.7476 26.6728 11.7391 26.6355 11.7228C26.5982 11.7065 26.5645 11.6827 26.5367 11.653C26.5089 11.6232 26.4874 11.5881 26.4736 11.5498C26.4598 11.5114 26.454 11.4707 26.4565 11.43C26.4556 11.3876 26.4637 11.3455 26.48 11.3063C26.4964 11.2672 26.5208 11.2319 26.5516 11.2027C26.5824 11.1735 26.6189 11.151 26.6589 11.1368C26.6989 11.1226 26.7414 11.1168 26.7837 11.12C26.8244 11.1204 26.8645 11.129 26.9018 11.1453C26.939 11.1617 26.9725 11.1854 27.0003 11.2151C27.0281 11.2447 27.0496 11.2797 27.0635 11.3179C27.0774 11.3562 27.0834 11.3968 27.0811 11.4374Z" fill="#CFE9BC"/>
<path d="M23.2295 11.4257C23.2294 11.3832 23.238 11.3412 23.2549 11.3023C23.2718 11.2634 23.2966 11.2284 23.3277 11.1995C23.3587 11.1706 23.3955 11.1485 23.4355 11.1344C23.4756 11.1204 23.5181 11.1149 23.5604 11.1181C23.6011 11.119 23.6411 11.1281 23.6782 11.1449C23.7153 11.1616 23.7486 11.1857 23.7761 11.2157C23.8036 11.2456 23.8248 11.2808 23.8385 11.3191C23.8521 11.3575 23.8578 11.3981 23.8553 11.4387C23.8554 11.4811 23.8468 11.5231 23.8299 11.562C23.813 11.6009 23.7883 11.6359 23.7573 11.6648C23.7262 11.6936 23.6896 11.7158 23.6496 11.7298C23.6096 11.7439 23.5671 11.7495 23.5248 11.7463C23.4841 11.7456 23.4439 11.7366 23.4067 11.7199C23.3696 11.7032 23.3362 11.6791 23.3086 11.6491C23.281 11.6192 23.2597 11.5839 23.2462 11.5455C23.2326 11.5071 23.2269 11.4663 23.2295 11.4257Z" fill="#CFE9BC"/>
<path d="M25.7026 10.0081C25.7437 10.0079 25.7843 10.0161 25.8221 10.0321C25.8599 10.0482 25.894 10.0718 25.9223 10.1015C25.9506 10.1313 25.9725 10.1665 25.9867 10.205C26.0009 10.2435 26.0071 10.2845 26.0049 10.3255C26.0012 10.5173 25.8679 10.6405 25.674 10.6319C25.6329 10.6318 25.5923 10.6231 25.5548 10.6064C25.5173 10.5898 25.4837 10.5654 25.4562 10.535C25.4286 10.5046 25.4077 10.4688 25.3948 10.4298C25.3818 10.3908 25.3772 10.3496 25.3811 10.3087C25.3821 10.2678 25.3912 10.2274 25.4079 10.19C25.4247 10.1525 25.4487 10.1188 25.4787 10.0908C25.5086 10.0628 25.5438 10.0411 25.5823 10.0269C25.6207 10.0127 25.6617 10.0063 25.7026 10.0081Z" fill="#CFE9BC"/>
<path d="M20.31 7.76601C20.3507 7.76396 20.3914 7.77019 20.4296 7.78432C20.4678 7.79845 20.5027 7.82019 20.5323 7.84822C20.5618 7.87625 20.5854 7.90999 20.6015 7.94739C20.6177 7.9848 20.6261 8.02508 20.6262 8.06582C20.6294 8.10801 20.624 8.15042 20.6101 8.19041C20.5963 8.23039 20.5743 8.26709 20.5456 8.29821C20.517 8.32934 20.4822 8.35422 20.4435 8.37131C20.4048 8.3884 20.363 8.39733 20.3206 8.39754C20.28 8.39982 20.2393 8.39379 20.2011 8.37982C20.1629 8.36585 20.1279 8.34423 20.0983 8.31628C20.0687 8.28834 20.0451 8.25465 20.029 8.21729C20.0129 8.17992 20.0045 8.13965 20.0045 8.09895C20.001 8.05665 20.0063 8.01408 20.02 7.97393C20.0338 7.93377 20.0557 7.89689 20.0844 7.86562C20.1131 7.83435 20.1479 7.80935 20.1868 7.79221C20.2256 7.77506 20.2676 7.76614 20.31 7.76601Z" fill="#CFE9BC"/>
<path d="M23.8555 6.9625C23.856 7.00527 23.8476 7.04768 23.8308 7.08702C23.814 7.12635 23.7892 7.16174 23.758 7.19093C23.7267 7.22012 23.6897 7.24245 23.6493 7.25651C23.6089 7.27056 23.566 7.27602 23.5234 7.27255C23.4622 7.26886 23.4035 7.24732 23.3544 7.21059C23.3053 7.17386 23.2681 7.12355 23.2474 7.06589C23.2266 7.00823 23.2233 6.94575 23.2377 6.88618C23.2521 6.82662 23.2836 6.77258 23.3284 6.73077C23.3732 6.68895 23.4293 6.66119 23.4897 6.65092C23.5501 6.64065 23.6122 6.64832 23.6683 6.67298C23.7244 6.69764 23.772 6.73822 23.8053 6.78968C23.8386 6.84114 23.856 6.90123 23.8555 6.9625Z" fill="#CFE9BC"/>
<path d="M22.4562 7.27355C22.4151 7.27328 22.3745 7.26467 22.3368 7.24827C22.2992 7.23186 22.2652 7.20798 22.237 7.17809C22.2089 7.14819 22.187 7.11289 22.1729 7.07432C22.1587 7.03575 22.1526 6.99472 22.1547 6.95369C22.1549 6.91095 22.1639 6.86871 22.1813 6.82964C22.1987 6.79058 22.2239 6.75556 22.2556 6.72679C22.2872 6.69802 22.3244 6.67614 22.3649 6.66253C22.4055 6.64892 22.4484 6.64389 22.4909 6.64774C22.5318 6.64889 22.572 6.65845 22.6091 6.67581C22.6461 6.69317 22.6792 6.71797 22.7063 6.74866C22.7333 6.77935 22.7537 6.81528 22.7663 6.85421C22.7789 6.89315 22.7833 6.93425 22.7793 6.97496C22.7791 7.01622 22.7704 7.05699 22.7537 7.09474C22.7371 7.13249 22.7129 7.16642 22.6826 7.19442C22.6523 7.22242 22.6165 7.24389 22.5776 7.2575C22.5386 7.27112 22.4973 7.27658 22.4562 7.27355Z" fill="#CFE9BC"/>
<path d="M21.6991 6.96465C21.6941 7.1483 21.5686 7.27305 21.3894 7.27264C21.2013 7.27264 21.0732 7.13521 21.0814 6.94542C21.0816 6.90445 21.0903 6.86396 21.1068 6.82648C21.1234 6.78899 21.1475 6.75531 21.1776 6.72754C21.2077 6.69976 21.2432 6.67848 21.2819 6.66501C21.3206 6.65155 21.3617 6.6462 21.4025 6.64929C21.5837 6.65133 21.7036 6.77977 21.6991 6.96465Z" fill="#CFE9BC"/>
<path d="M25.6989 11.1192C25.7822 11.1192 25.8621 11.1523 25.921 11.2113C25.9799 11.2702 26.013 11.3501 26.013 11.4334C26.013 11.5167 25.9799 11.5966 25.921 11.6555C25.8621 11.7144 25.7822 11.7475 25.6989 11.7475C25.6562 11.7495 25.6135 11.7423 25.5737 11.7267C25.5339 11.711 25.4978 11.687 25.4679 11.6565C25.438 11.6259 25.4149 11.5893 25.4 11.5492C25.3852 11.5091 25.379 11.4663 25.3819 11.4236C25.3825 11.3827 25.3912 11.3423 25.4075 11.3049C25.4238 11.2674 25.4473 11.2335 25.4768 11.2052C25.5063 11.1769 25.5411 11.1547 25.5793 11.1399C25.6174 11.1252 25.658 11.1182 25.6989 11.1192Z" fill="#CFE9BC"/>
<path d="M23.5531 10.0062C23.5938 10.0064 23.634 10.0148 23.6714 10.0308C23.7089 10.0468 23.7427 10.0701 23.7709 10.0994C23.7992 10.1286 23.8213 10.1633 23.8359 10.2012C23.8506 10.2392 23.8575 10.2797 23.8562 10.3204C23.8562 10.5089 23.7229 10.6349 23.5323 10.6312C23.4916 10.6325 23.451 10.6254 23.4132 10.6102C23.3754 10.595 23.3412 10.5721 23.3127 10.543C23.2842 10.5139 23.2621 10.4792 23.2477 10.4411C23.2333 10.403 23.227 10.3623 23.2292 10.3216C23.2282 10.2792 23.236 10.237 23.2521 10.1978C23.2681 10.1585 23.2921 10.123 23.3225 10.0934C23.3529 10.0638 23.3891 10.0408 23.4287 10.0258C23.4684 10.0108 23.5108 10.0041 23.5531 10.0062Z" fill="#CFE9BC"/>
<path d="M26.0038 12.5599C26.0021 12.6216 25.9821 12.6814 25.9464 12.7317C25.9107 12.782 25.8608 12.8206 25.8031 12.8425C25.7455 12.8644 25.6826 12.8687 25.6224 12.8548C25.5623 12.8408 25.5077 12.8094 25.4655 12.7644C25.4233 12.7193 25.3954 12.6628 25.3855 12.6019C25.3755 12.541 25.3838 12.4785 25.4094 12.4224C25.435 12.3662 25.4767 12.319 25.5292 12.2866C25.5817 12.2542 25.6427 12.2381 25.7044 12.2405C25.7454 12.2403 25.7861 12.2486 25.8238 12.2649C25.8616 12.2811 25.8955 12.305 25.9236 12.335C25.9517 12.365 25.9733 12.4004 25.9871 12.4391C26.0009 12.4778 26.0066 12.5189 26.0038 12.5599Z" fill="#CFE9BC"/>
<path d="M26.0029 9.20662C25.998 9.39804 25.8646 9.51952 25.6699 9.51012C25.6289 9.50931 25.5884 9.5 25.5511 9.48277C25.5138 9.46555 25.4805 9.44079 25.4532 9.41004C25.426 9.3793 25.4054 9.34324 25.3928 9.30415C25.3802 9.26505 25.3758 9.22377 25.3799 9.1829C25.3815 9.14196 25.3912 9.10173 25.4084 9.06455C25.4256 9.02737 25.45 8.99397 25.4802 8.96628C25.5104 8.93859 25.5458 8.91717 25.5843 8.90324C25.6229 8.88931 25.6638 8.88315 25.7047 8.88513C25.7458 8.88524 25.7865 8.89382 25.8242 8.91032C25.8618 8.92683 25.8957 8.95091 25.9237 8.98106C25.9516 9.01121 25.9731 9.0468 25.9867 9.0856C26.0003 9.12441 26.0058 9.1656 26.0029 9.20662Z" fill="#CFE9BC"/>
<path d="M23.5363 13.3619C23.5772 13.3593 23.6183 13.3652 23.6569 13.3791C23.6955 13.393 23.7309 13.4147 23.7608 13.4428C23.7907 13.4708 23.8146 13.5048 23.8309 13.5424C23.8472 13.5801 23.8557 13.6207 23.8557 13.6617C23.8587 13.7028 23.8534 13.744 23.84 13.7829C23.8267 13.8219 23.8056 13.8577 23.778 13.8882C23.7505 13.9188 23.717 13.9435 23.6797 13.9608C23.6424 13.9781 23.6019 13.9877 23.5608 13.989C23.5182 13.9931 23.4751 13.9881 23.4346 13.9743C23.394 13.9605 23.3569 13.9382 23.3256 13.9089C23.2944 13.8796 23.2698 13.8439 23.2534 13.8044C23.237 13.7648 23.2293 13.7221 23.2307 13.6793C23.2291 13.6382 23.2357 13.5972 23.2504 13.5587C23.265 13.5202 23.2872 13.4851 23.3158 13.4554C23.3443 13.4258 23.3786 13.4022 23.4165 13.3861C23.4543 13.3701 23.4951 13.3618 23.5363 13.3619Z" fill="#CFE9BC"/>
<path d="M26.004 13.6763C26.005 13.7182 25.9975 13.7598 25.9821 13.7988C25.9667 13.8377 25.9436 13.8732 25.9142 13.903C25.8847 13.9328 25.8496 13.9564 25.8109 13.9724C25.7721 13.9883 25.7306 13.9963 25.6887 13.9959C25.6468 13.9954 25.6054 13.9866 25.567 13.9698C25.5286 13.953 25.494 13.9287 25.4652 13.8983C25.4365 13.8678 25.4141 13.8319 25.3995 13.7927C25.3849 13.7534 25.3783 13.7116 25.3802 13.6697C25.3804 13.6288 25.3888 13.5883 25.4049 13.5506C25.4211 13.513 25.4446 13.479 25.4741 13.4506C25.5036 13.4222 25.5386 13.4001 25.5768 13.3854C25.6151 13.3708 25.6559 13.364 25.6968 13.3654C25.7378 13.3643 25.7785 13.3715 25.8166 13.3868C25.8546 13.4021 25.8891 13.425 25.9179 13.4541C25.9467 13.4833 25.9692 13.5181 25.984 13.5563C25.9988 13.5945 26.0056 13.6353 26.004 13.6763Z" fill="#CFE9BC"/>
<path d="M20.3122 11.1194C20.3532 11.1176 20.3942 11.1242 20.4326 11.1387C20.471 11.1533 20.506 11.1755 20.5355 11.2041C20.565 11.2327 20.5883 11.267 20.6041 11.3049C20.6198 11.3428 20.6277 11.3835 20.6271 11.4246C20.6295 11.4656 20.6235 11.5066 20.6096 11.5452C20.5958 11.5839 20.5742 11.6193 20.5464 11.6495C20.5185 11.6796 20.4849 11.7039 20.4475 11.7207C20.41 11.7376 20.3696 11.7468 20.3286 11.7477C20.2859 11.7511 20.243 11.7454 20.2027 11.7309C20.1624 11.7165 20.1256 11.6935 20.0949 11.6637C20.0641 11.6339 20.0401 11.5979 20.0244 11.5581C20.0087 11.5182 20.0017 11.4755 20.0038 11.4328C20.0027 11.3917 20.01 11.3509 20.025 11.3128C20.0401 11.2746 20.0627 11.2399 20.0915 11.2106C20.1203 11.1814 20.1546 11.1582 20.1926 11.1426C20.2305 11.1269 20.2712 11.119 20.3122 11.1194Z" fill="#CFE9BC"/>
<path d="M18.4721 11.4205C18.4762 11.6066 18.3592 11.7379 18.1813 11.7477C18.098 11.7507 18.017 11.7206 17.956 11.6638C17.8949 11.6071 17.859 11.5285 17.8559 11.4452C17.8529 11.362 17.883 11.2809 17.9398 11.2199C17.9965 11.1589 18.0751 11.1229 18.1584 11.1198C18.1992 11.117 18.2402 11.1228 18.2786 11.1367C18.3171 11.1507 18.3522 11.1725 18.3817 11.2008C18.4113 11.2291 18.4346 11.2632 18.4501 11.3011C18.4657 11.3389 18.4732 11.3796 18.4721 11.4205Z" fill="#CFE9BC"/>
<path d="M20.3064 10.6326C20.2654 10.634 20.2245 10.6269 20.1864 10.6115C20.1483 10.5961 20.1139 10.5729 20.0854 10.5434C20.0569 10.5138 20.0349 10.4786 20.0209 10.44C20.0069 10.4013 20.0012 10.3602 20.0042 10.3193C20.0035 10.2765 20.0117 10.2341 20.0284 10.1948C20.045 10.1554 20.0697 10.12 20.1009 10.0907C20.132 10.0615 20.169 10.0391 20.2093 10.025C20.2496 10.0109 20.2925 10.0054 20.3351 10.0088C20.3761 10.01 20.4164 10.0196 20.4536 10.037C20.4907 10.0543 20.524 10.0791 20.5513 10.1097C20.5786 10.1403 20.5993 10.1762 20.6123 10.2151C20.6253 10.254 20.6302 10.2951 20.6267 10.336C20.6173 10.5205 20.4926 10.6362 20.3064 10.6326Z" fill="#CFE9BC"/>
<path d="M18.1655 10.6324C17.9798 10.6324 17.8584 10.5146 17.8547 10.3297C17.8521 10.2871 17.8585 10.2444 17.8736 10.2044C17.8886 10.1645 17.9119 10.1281 17.9419 10.0978C17.972 10.0675 18.0081 10.0438 18.0479 10.0284C18.0877 10.0129 18.1303 10.006 18.1729 10.0082C18.3516 10.0107 18.4748 10.1411 18.4719 10.3252C18.469 10.5093 18.3508 10.6311 18.1655 10.6324Z" fill="#CFE9BC"/>
<path d="M18.4722 13.6784C18.469 13.8629 18.3458 13.988 18.1663 13.9889C17.9785 13.9889 17.8493 13.8543 17.8558 13.6616C17.8559 13.6207 17.8643 13.5803 17.8805 13.5427C17.8967 13.5052 17.9204 13.4713 17.9502 13.4433C17.9799 13.4152 18.0151 13.3935 18.0535 13.3795C18.0919 13.3655 18.1328 13.3595 18.1736 13.3618C18.3536 13.3659 18.4755 13.4943 18.4722 13.6784Z" fill="#CFE9BC"/>
<path d="M20.3283 13.3619C20.3905 13.3639 20.4507 13.3843 20.5013 13.4207C20.5519 13.457 20.5904 13.5076 20.6121 13.5659C20.6338 13.6243 20.6376 13.6878 20.6231 13.7483C20.6085 13.8089 20.5763 13.8637 20.5304 13.9058C20.4846 13.9479 20.4272 13.9754 20.3657 13.9848C20.3042 13.9942 20.2412 13.9851 20.1849 13.9585C20.1286 13.932 20.0814 13.8893 20.0495 13.8358C20.0176 13.7824 20.0023 13.7207 20.0056 13.6585C20.0064 13.6175 20.0156 13.5772 20.0324 13.5399C20.0493 13.5026 20.0735 13.4691 20.1037 13.4413C20.1338 13.4136 20.1692 13.3923 20.2079 13.3787C20.2465 13.365 20.2874 13.3593 20.3283 13.3619Z" fill="#CFE9BC"/>
<path d="M27.0006 18.6931C26.9761 18.846 26.9634 18.9728 26.9339 19.0955C26.2865 21.8098 23.4061 23.3494 20.8092 22.3268C19.2598 21.717 18.3141 20.5521 17.9685 18.9127C17.9313 18.7348 17.9775 18.6787 18.155 18.6902C18.3653 18.7033 18.6283 18.6231 18.7731 18.7221C18.9101 18.8166 18.926 19.0902 18.9919 19.2857C19.7482 21.5247 22.5349 22.4614 24.4888 21.1394C25.3068 20.5868 25.8324 19.8396 26.0558 18.8812C26.0877 18.7446 26.1376 18.6828 26.2836 18.6898C26.5126 18.7008 26.7425 18.6931 27.0006 18.6931Z" fill="#CFE9BC"/>
<path d="M19.8059 18.6962C20.0787 18.6962 20.3495 18.6901 20.619 18.7024C20.6657 18.7044 20.7246 18.7764 20.7508 18.8296C21.2031 19.7544 22.1484 20.1573 23.1137 19.8247C23.3442 19.7475 23.556 19.623 23.7356 19.4592C23.9152 19.2953 24.0587 19.0958 24.1567 18.8733C24.2226 18.731 24.3015 18.6832 24.45 18.6901C24.6729 18.7003 24.897 18.6926 25.122 18.6926C25.0463 19.581 24.025 20.79 22.5452 20.8338C21.0653 20.8776 19.9413 19.7188 19.8059 18.6962Z" fill="#CFE9BC"/>
</g>
<path fill-rule="evenodd" clip-rule="evenodd" d="M72.5326 18.0151C72.8317 18.4094 72.9812 19.0348 72.9812 19.8913V25.8868H75.7139V19.2183C75.7139 18.7017 75.6663 18.1919 75.5711 17.6888C75.4895 17.1858 75.3332 16.7372 75.1021 16.3429C74.8846 15.9351 74.5583 15.6156 74.1232 15.3845C73.7018 15.1397 73.158 15.0174 72.4918 15.0174C71.88 15.0174 71.2954 15.1058 70.738 15.2825C70.1942 15.4456 69.7116 15.6904 69.2901 16.0166C68.8687 16.3293 68.522 16.7168 68.2501 17.179V15.2009H65.7826V25.8868H68.5152V19.6466C68.6511 19.2115 68.8687 18.8308 69.1678 18.5046C69.4669 18.1647 69.7999 17.8996 70.167 17.7092C70.5477 17.5189 70.9216 17.4237 71.2886 17.4237C71.8188 17.4237 72.2335 17.6209 72.5326 18.0151ZM80.3128 25.5401C80.911 25.812 81.5636 25.9479 82.2705 25.9479C82.9911 25.9479 83.6708 25.7848 84.3098 25.4585C84.9624 25.1186 85.4654 24.6428 85.8189 24.031V25.3769C85.8189 26.0703 85.6693 26.6345 85.3702 27.0696C85.0847 27.5182 84.6973 27.8445 84.2078 28.0484C83.732 28.2659 83.2018 28.3747 82.6172 28.3747C81.9238 28.3747 81.2645 28.2319 80.6391 27.9464C80.0273 27.6609 79.5175 27.2667 79.1096 26.7637L77.6209 28.2116C78.1919 28.9185 78.8785 29.4623 79.6806 29.843C80.4827 30.2372 81.4616 30.4344 82.6172 30.4344C83.7592 30.4344 84.7788 30.2304 85.6761 29.8226C86.5734 29.4283 87.2735 28.8505 87.7766 28.0892C88.2932 27.3415 88.5515 26.4374 88.5515 25.3769V15.2009H86.1655V17.0771C85.7577 16.4517 85.2411 15.9555 84.6157 15.5884C83.9903 15.2077 83.263 15.0174 82.4336 15.0174C81.6995 15.0174 81.0265 15.1601 80.4148 15.4456C79.8166 15.7175 79.2931 16.1118 78.8445 16.6284C78.4095 17.1314 78.0696 17.716 77.8249 18.3822C77.5802 19.0484 77.4578 19.7689 77.4578 20.5438C77.4578 21.278 77.5734 21.9713 77.8045 22.6239C78.0356 23.2765 78.3619 23.8543 78.7833 24.3573C79.2184 24.8603 79.7282 25.2546 80.3128 25.5401ZM84.0447 23.6232C83.7728 23.7183 83.4873 23.7659 83.1882 23.7659C82.7803 23.7659 82.3929 23.6843 82.0258 23.5212C81.6723 23.3581 81.3596 23.1337 81.0877 22.8482C80.8294 22.5627 80.6255 22.2297 80.4759 21.849C80.3264 21.4683 80.2516 21.0605 80.2516 20.6254C80.2516 20.204 80.3128 19.8029 80.4351 19.4222C80.5711 19.028 80.7614 18.6745 81.0061 18.3618C81.2509 18.0355 81.5432 17.784 81.883 17.6073C82.2229 17.4305 82.6036 17.3422 83.025 17.3422C83.4193 17.3422 83.7932 17.4305 84.1466 17.6073C84.5137 17.7704 84.84 18.0083 85.1255 18.321C85.4246 18.6337 85.6557 19.0008 85.8189 19.4222V21.9713C85.7237 22.2025 85.5877 22.4336 85.411 22.6647C85.2343 22.8822 85.0303 23.0726 84.7992 23.2357C84.5681 23.3988 84.3166 23.528 84.0447 23.6232ZM93.6047 25.6624C94.298 25.9479 95.0798 26.0907 95.9498 26.0907C96.8199 26.0907 97.6017 25.9479 98.295 25.6624C98.9884 25.3634 99.573 24.9555 100.049 24.4389C100.538 23.9223 100.905 23.3309 101.15 22.6647C101.408 21.9985 101.537 21.2984 101.537 20.5642C101.537 19.8165 101.408 19.1096 101.15 18.4434C100.905 17.7772 100.538 17.1858 100.049 16.6692C99.5594 16.1526 98.968 15.7515 98.2746 15.466C97.5949 15.1669 96.8199 15.0174 95.9498 15.0174C95.0798 15.0174 94.298 15.1669 93.6047 15.466C92.9113 15.7515 92.3199 16.1526 91.8305 16.6692C91.3547 17.1858 90.9876 17.7772 90.7293 18.4434C90.471 19.1096 90.3418 19.8165 90.3418 20.5642C90.3418 21.2984 90.471 21.9985 90.7293 22.6647C90.9876 23.3309 91.3547 23.9223 91.8305 24.4389C92.3199 24.9555 92.9113 25.3634 93.6047 25.6624ZM93.5231 22.2365C93.2784 21.747 93.156 21.1896 93.156 20.5642C93.156 19.9389 93.2784 19.3883 93.5231 18.9124C93.7678 18.423 94.1009 18.0423 94.5223 17.7704C94.9438 17.4849 95.4196 17.3422 95.9498 17.3422C96.4665 17.3422 96.9355 17.4781 97.357 17.75C97.7784 18.0219 98.1115 18.4026 98.3562 18.892C98.6145 19.3815 98.7437 19.9321 98.7437 20.5438C98.7437 21.1692 98.6145 21.7266 98.3562 22.2161C98.1115 22.6919 97.7784 23.0726 97.357 23.3581C96.9355 23.63 96.4665 23.7659 95.9498 23.7659C95.4196 23.7659 94.9438 23.63 94.5223 23.3581C94.1009 23.0862 93.7678 22.7123 93.5231 22.2365ZM116.642 14.8135C116.9 14.9766 117.077 15.1058 117.172 15.2009L118.416 12.9169C117.995 12.6314 117.519 12.3663 116.989 12.1216C116.458 11.8769 115.887 11.6798 115.276 11.5302C114.677 11.3807 114.038 11.3059 113.359 11.3059C112.38 11.3059 111.489 11.4826 110.687 11.8361C109.885 12.176 109.246 12.6858 108.77 13.3656C108.308 14.0317 108.077 14.861 108.077 15.8535C108.077 16.5876 108.227 17.1994 108.526 17.6888C108.825 18.1783 109.28 18.5861 109.892 18.9124C110.504 19.2251 111.265 19.5106 112.176 19.7689C112.937 19.9864 113.597 20.1904 114.154 20.3807C114.711 20.5574 115.146 20.7682 115.459 21.0129C115.772 21.2576 115.928 21.5975 115.928 22.0325C115.928 22.5084 115.731 22.8754 115.337 23.1337C114.943 23.392 114.365 23.5212 113.603 23.5212C113.06 23.5212 112.523 23.4532 111.992 23.3173C111.462 23.1813 110.973 23.0182 110.524 22.8278C110.075 22.6239 109.695 22.4268 109.382 22.2365C109.069 22.0325 108.852 21.8694 108.73 21.747L107.486 24.1738C108.043 24.568 108.655 24.9079 109.321 25.1934C109.987 25.4653 110.68 25.676 111.401 25.8256C112.122 25.9751 112.842 26.0499 113.563 26.0499C114.283 26.0499 114.963 25.9751 115.602 25.8256C116.241 25.6624 116.812 25.4109 117.315 25.0711C117.818 24.7312 118.212 24.2893 118.498 23.7455C118.783 23.1881 118.926 22.522 118.926 21.747C118.926 20.8633 118.736 20.1564 118.355 19.6262C117.988 19.0824 117.451 18.6473 116.744 18.321C116.051 17.9811 115.228 17.6956 114.276 17.4645C113.542 17.2742 112.93 17.0975 112.441 16.9343C111.952 16.7712 111.585 16.574 111.34 16.3429C111.095 16.1118 110.973 15.7991 110.973 15.4049C110.973 14.8882 111.163 14.4872 111.544 14.2017C111.938 13.9162 112.516 13.7734 113.277 13.7734C113.712 13.7734 114.14 13.8346 114.562 13.957C114.983 14.0657 115.371 14.1949 115.724 14.3444C116.091 14.494 116.397 14.6503 116.642 14.8135ZM124.929 25.5401C125.568 25.9072 126.302 26.0907 127.131 26.0907C128.042 26.0907 128.844 25.846 129.537 25.3566C130.244 24.8535 130.795 24.1806 131.189 23.3377C131.597 22.4948 131.801 21.5567 131.801 20.5235C131.801 19.7621 131.672 19.0552 131.413 18.4026C131.169 17.7364 130.822 17.1518 130.373 16.6488C129.925 16.1322 129.395 15.7311 128.783 15.4456C128.185 15.1601 127.525 15.0174 126.805 15.0174C126.003 15.0174 125.289 15.2009 124.663 15.568C124.038 15.9215 123.521 16.4109 123.114 17.0363V15.2009H120.728V30.2304H123.46V24.0106C123.814 24.6496 124.303 25.1594 124.929 25.5401ZM127.355 23.5008C127.015 23.6775 126.635 23.7659 126.213 23.7659C125.833 23.7659 125.459 23.6775 125.092 23.5008C124.725 23.3105 124.398 23.0522 124.113 22.7259C123.841 22.3996 123.623 22.0393 123.46 21.6451V19.1367C123.542 18.8784 123.671 18.6405 123.848 18.423C124.038 18.2055 124.256 18.0151 124.5 17.852C124.745 17.6888 124.997 17.5665 125.255 17.4849C125.527 17.3898 125.792 17.3422 126.05 17.3422C126.472 17.3422 126.859 17.4237 127.213 17.5869C127.58 17.75 127.899 17.9811 128.171 18.2802C128.443 18.5657 128.647 18.8988 128.783 19.2795C128.932 19.6602 129.007 20.0748 129.007 20.5235C129.007 20.9449 128.939 21.3528 128.803 21.747C128.681 22.1277 128.491 22.4744 128.232 22.7871C127.988 23.0862 127.695 23.3241 127.355 23.5008ZM140.362 18.0355C140.688 18.4434 140.851 19.062 140.851 19.8913V25.8868H143.584V19.2183C143.584 18.6881 143.536 18.1783 143.441 17.6888C143.346 17.1858 143.176 16.7372 142.931 16.3429C142.686 15.9351 142.347 15.6156 141.912 15.3845C141.477 15.1397 140.912 15.0174 140.219 15.0174C139.417 15.0174 138.676 15.2077 137.996 15.5884C137.316 15.9691 136.779 16.4993 136.385 17.179V11H133.652V25.8868H136.385V19.6466C136.521 19.2115 136.732 18.8308 137.017 18.5046C137.316 18.1647 137.649 17.8996 138.017 17.7092C138.384 17.5189 138.73 17.4237 139.057 17.4237C139.614 17.4237 140.049 17.6277 140.362 18.0355ZM148.591 25.6624C149.284 25.9479 150.059 26.0907 150.915 26.0907C151.704 26.0907 152.424 25.9751 153.077 25.744C153.73 25.4993 154.294 25.1662 154.77 24.7448C155.259 24.3233 155.633 23.8407 155.891 23.2969L153.546 22.6443C153.369 23.0794 153.036 23.4328 152.547 23.7047C152.071 23.963 151.561 24.0922 151.017 24.0922C150.541 24.0922 150.093 23.9902 149.671 23.7863C149.264 23.5688 148.924 23.2561 148.652 22.8482C148.393 22.4404 148.237 21.9645 148.183 21.4207H156.442C156.455 21.312 156.469 21.176 156.483 21.0129C156.496 20.8361 156.503 20.6662 156.503 20.5031C156.503 19.5378 156.279 18.6405 155.83 17.8112C155.395 16.9683 154.763 16.2953 153.933 15.7923C153.104 15.2757 152.105 15.0174 150.936 15.0174C149.78 15.0174 148.774 15.2757 147.918 15.7923C147.075 16.2953 146.422 16.9683 145.96 17.8112C145.511 18.6541 145.287 19.5854 145.287 20.605C145.287 21.3392 145.416 22.0393 145.674 22.7055C145.946 23.3581 146.327 23.9427 146.816 24.4593C147.306 24.9623 147.897 25.3634 148.591 25.6624ZM153.24 18.2802C153.498 18.6745 153.655 19.1435 153.709 19.6873H148.122C148.176 19.1435 148.325 18.6745 148.57 18.2802C148.828 17.8724 149.155 17.5597 149.549 17.3422C149.957 17.1111 150.406 16.9955 150.895 16.9955C151.398 16.9955 151.853 17.1111 152.261 17.3422C152.669 17.5597 152.995 17.8724 153.24 18.2802ZM162.307 18.0559C162.96 17.7296 163.701 17.5665 164.53 17.5665V15.0786C164.476 15.065 164.408 15.0582 164.326 15.0582H163.98C163.327 15.099 162.709 15.3301 162.124 15.7515C161.539 16.173 161.057 16.7508 160.676 17.4849V15.2009H158.168V25.8868H160.9V19.4222C161.186 18.8241 161.655 18.3686 162.307 18.0559ZM168.545 25.6624C169.239 25.9479 170.014 26.0907 170.87 26.0907C171.659 26.0907 172.379 25.9751 173.032 25.744C173.684 25.4993 174.248 25.1662 174.724 24.7448C175.214 24.3233 175.588 23.8407 175.846 23.2969L173.501 22.6443C173.324 23.0794 172.991 23.4328 172.501 23.7047C172.026 23.963 171.516 24.0922 170.972 24.0922C170.496 24.0922 170.048 23.9902 169.626 23.7863C169.218 23.5688 168.878 23.2561 168.606 22.8482C168.348 22.4404 168.192 21.9645 168.137 21.4207H176.397C176.41 21.312 176.424 21.176 176.437 21.0129C176.451 20.8361 176.458 20.6662 176.458 20.5031C176.458 19.5378 176.233 18.6405 175.785 17.8112C175.35 16.9683 174.718 16.2953 173.888 15.7923C173.059 15.2757 172.06 15.0174 170.89 15.0174C169.735 15.0174 168.729 15.2757 167.872 15.7923C167.029 16.2953 166.377 16.9683 165.915 17.8112C165.466 18.6541 165.242 19.5854 165.242 20.605C165.242 21.3392 165.371 22.0393 165.629 22.7055C165.901 23.3581 166.282 23.9427 166.771 24.4593C167.261 24.9623 167.852 25.3634 168.545 25.6624ZM173.195 18.2802C173.453 18.6745 173.61 19.1435 173.664 19.6873H168.076C168.131 19.1435 168.28 18.6745 168.525 18.2802C168.783 17.8724 169.109 17.5597 169.504 17.3422C169.912 17.1111 170.36 16.9955 170.85 16.9955C171.353 16.9955 171.808 17.1111 172.216 17.3422C172.624 17.5597 172.95 17.8724 173.195 18.2802ZM48.9408 11.4079V25.8868H59.1372V23.4192H51.755V11.4079H48.9408ZM60.5848 15.2009V25.8868H63.3174V15.2009H60.5848ZM60.5848 11V13.7122H63.3174V11H60.5848Z" fill="#0F0F0F"/>
<defs>
<clipPath id="clip0_4082_9418">
<rect width="44.9408" height="36.0499" fill="white" transform="translate(0 3)"/>
</clipPath>
</defs>
</svg>
