<svg width="121" height="29" viewBox="0 0 121 29" fill="none" xmlns="http://www.w3.org/2000/svg">
<g clip-path="url(#clip0_4429_9547)">
<path d="M10.8845 18.9697C11.0115 18.612 11.1381 18.2548 11.2644 17.8982C11.5206 17.1721 11.7781 16.446 12.0282 15.7176C12.0466 15.6643 12.0352 15.5736 12.0003 15.5324C11.2554 14.6512 10.9297 13.6255 10.9358 12.4743C10.9442 10.9357 10.9358 9.3959 10.9417 7.85811C10.9492 6.29208 11.5946 5.03925 12.8715 4.17786C14.4012 3.14618 16.019 3.10466 17.5916 4.0632C18.981 4.91047 19.674 6.21978 19.6949 7.86347C19.7147 9.44899 19.7005 11.0351 19.6991 12.6209C19.6991 13.8765 19.2529 14.9534 18.3647 15.8204C17.5411 16.6251 16.5441 17.056 15.3876 17.0747C14.9735 17.0827 14.5605 17.0278 14.1625 16.9117C14.1213 16.8976 14.0774 16.894 14.0345 16.9012C13.9917 16.9084 13.9513 16.9262 13.9168 16.953C12.9582 17.6076 11.9984 18.2606 11.0373 18.9118C10.9958 18.9401 10.9537 18.9658 10.9102 18.9929L10.8845 18.9697ZM15.3134 9.82207H18.6578C18.7414 9.82207 18.8276 9.841 18.8251 9.70317C18.8167 9.0118 18.8552 8.31704 18.8006 7.62963C18.6795 6.10653 17.8953 5.04066 16.48 4.50886C15.3525 4.08523 14.2643 4.2592 13.2874 4.96074C12.3671 5.62358 11.8651 6.54908 11.8174 7.70023C11.7912 8.34359 11.8135 8.98921 11.814 9.6337C11.814 9.82151 11.814 9.82207 11.995 9.82207H15.3134ZM14.554 12.5189L14.578 12.4864C14.5602 12.4824 14.5421 12.4798 14.5239 12.4785C13.6596 12.4785 12.795 12.4777 11.9303 12.476C11.8347 12.476 11.8143 12.5189 11.8138 12.6048C11.8063 13.3451 12.028 14.0692 12.4475 14.6755C12.8671 15.2818 13.4636 15.7398 14.1533 15.9854C15.0828 16.322 16.0081 16.2678 16.8824 15.8032C18.1374 15.135 18.7788 14.0615 18.8259 12.6248C18.8298 12.5031 18.7833 12.4746 18.672 12.4751C17.8495 12.4787 17.0271 12.4787 16.2047 12.4751C16.0859 12.4751 16.0374 12.5068 16.0143 12.6308C15.9613 12.901 15.7912 13.0826 15.5318 13.1674C15.2671 13.2521 15.0131 13.2066 14.8282 12.9948C14.7113 12.8584 14.6438 12.6785 14.554 12.5189Z" fill="#CFE9BC"/>
<path d="M16.5148 18.7538C16.5655 18.8086 16.604 18.8456 16.6372 18.8869C16.8104 19.1007 17.0081 19.2998 17.1489 19.5336C17.4917 20.1024 17.3999 20.6661 16.9239 21.1299C16.5725 21.4722 16.1517 21.7021 15.7035 21.8766C15.1884 22.0774 14.6605 22.2437 14.1451 22.4445C13.8026 22.5776 13.4758 22.7473 13.2248 23.0351C12.8656 23.4494 13.0405 23.847 13.3642 24.1611C13.3944 24.1893 13.4591 24.1939 13.5065 24.1913C13.8082 24.1749 14.1091 24.149 14.4106 24.1348C14.5199 24.13 14.5537 24.0882 14.5534 23.9809C14.552 23.5672 14.5595 23.1534 14.5592 22.7383C14.5592 22.6606 14.5818 22.6253 14.6566 22.597C15.1098 22.4304 15.5607 22.2581 16.0125 22.0867C16.0369 22.08 16.0617 22.0746 16.0867 22.0706V24.9355L16.1246 24.9454C16.1464 24.9081 16.1698 24.872 16.1893 24.8324C16.2889 24.6347 16.3845 24.437 16.4899 24.2433C16.5131 24.2009 16.58 24.154 16.6238 24.1569C17.524 24.2165 18.4217 24.2981 19.2801 24.6087C19.3624 24.6412 19.4422 24.6794 19.5191 24.7231C19.6948 24.8172 19.7838 24.9567 19.7738 25.1685C19.7618 25.4266 19.7651 25.6862 19.7738 25.9446C19.7793 26.1208 19.7074 26.2394 19.5621 26.3267C19.2157 26.5346 18.8311 26.6261 18.4427 26.699C16.9576 26.978 15.4586 27.0057 13.9566 26.917C13.2315 26.8743 12.5114 26.7947 11.8092 26.6086C11.5641 26.5436 11.3276 26.4391 11.095 26.3358C10.9324 26.2635 10.8624 26.1239 10.8696 25.935C10.8805 25.6579 10.8769 25.3798 10.8696 25.1021C10.8663 24.9609 10.9126 24.8384 11.0339 24.7836C11.3027 24.6591 11.5782 24.5502 11.8591 24.4574C12.0792 24.387 12.3126 24.3588 12.5399 24.3108C12.5754 24.3012 12.6104 24.2897 12.6447 24.2763C12.5976 24.1761 12.5493 24.0868 12.5123 23.9939C12.2998 23.4556 12.4358 22.9865 12.8112 22.5798C13.152 22.2107 13.5921 21.9932 14.0492 21.8136C14.1789 21.7628 14.311 21.7179 14.4441 21.6764C14.5233 21.6518 14.5556 21.6069 14.5539 21.5227C14.5514 20.6616 14.5492 19.7999 14.5539 18.9391C14.5539 18.7928 14.4561 18.7979 14.3696 18.7858C13.86 18.7038 13.3627 18.5568 12.8896 18.3483C12.8689 18.3395 12.8497 18.3271 12.8121 18.3071C12.8383 18.2798 12.8663 18.2542 12.8957 18.2305C13.277 17.9701 13.6571 17.7078 14.0425 17.4541C14.1038 17.4167 14.1762 17.4024 14.2469 17.4138C16.0172 17.7685 17.5472 17.3008 18.8097 16.0036C19.7347 15.0527 20.1558 13.8807 20.1483 12.5487C20.1483 12.3841 20.1525 12.2192 20.1483 12.0548C20.1455 11.9599 20.1737 11.9198 20.2741 11.9209C20.6319 11.9254 20.9897 11.9235 21.3475 11.9223C21.4147 11.9223 21.4615 11.928 21.4635 12.0181C21.483 12.8732 21.4523 13.7228 21.1701 14.5412C20.4782 16.5464 19.144 17.8981 17.1542 18.5768C16.9529 18.6445 16.7446 18.6906 16.5148 18.7538ZM16.1042 19.2746V20.9974C16.2479 20.8844 16.3617 20.8073 16.4637 20.715C16.6032 20.5893 16.6944 20.4326 16.7069 20.238C16.7264 19.9437 16.3898 19.4029 16.1042 19.2746Z" fill="#0D6B68"/>
<path d="M10.489 9.20237C10.489 9.80025 10.4859 10.3979 10.4915 10.9957C10.4929 11.118 10.4606 11.1584 10.3356 11.1564C9.84312 11.148 9.35061 11.1531 8.85755 11.148C8.33549 11.1423 7.90936 10.7328 7.90071 10.2041C7.88872 9.5263 7.89039 8.84849 7.90071 8.17068C7.90796 7.66994 8.31764 7.26467 8.82632 7.23868C9.04412 7.22795 9.26333 7.22936 9.48141 7.23868C9.59938 7.24292 9.64874 7.21581 9.66603 7.08363C9.79565 6.03132 10.2177 5.03792 10.8831 4.21902C11.7719 3.11617 12.9077 2.40474 14.2943 2.16751C16.3377 1.81787 18.0871 2.42338 19.5142 3.94677C19.9121 4.37323 20.2189 4.86125 20.4676 5.3956C20.7163 5.93189 20.8832 6.50321 20.9629 7.09013C20.9777 7.19689 21.0156 7.2449 21.1303 7.23953C21.3389 7.22993 21.5486 7.23162 21.7575 7.23699C22.3133 7.25196 22.7185 7.6304 22.7336 8.1896C22.7521 8.86741 22.7521 9.54523 22.7336 10.223C22.7204 10.7286 22.3105 11.1285 21.811 11.1426C21.2956 11.1576 20.7792 11.1477 20.2638 11.1548C20.1408 11.1564 20.1461 11.0847 20.1461 11C20.1461 9.91266 20.1667 8.82533 20.1366 7.73857C20.0953 6.2632 19.5136 5.03381 18.3883 4.08318C17.3871 3.23591 16.227 2.87328 14.9324 2.96789C14.0164 3.03097 13.1397 3.36922 12.4144 3.93943C11.3245 4.78669 10.6678 5.89803 10.5216 7.28359C10.46 7.86566 10.4974 8.45875 10.4898 9.04675C10.4898 9.09843 10.4898 9.15012 10.4898 9.2018L10.489 9.20237ZM21.0201 9.18824C21.0201 9.50315 21.0226 9.81833 21.0184 10.1332C21.0184 10.2377 21.0541 10.2767 21.1579 10.2705C21.2876 10.2629 21.4178 10.2682 21.5483 10.2646C21.7374 10.2589 21.8623 10.1499 21.8646 9.96095C21.8711 9.45259 21.8711 8.94489 21.8646 8.43785C21.8621 8.25089 21.7374 8.13679 21.5514 8.12718C21.4356 8.12154 21.3193 8.12464 21.2033 8.1238C21.0232 8.1221 21.0235 8.1221 21.0235 8.29918C21.0214 8.59666 21.0203 8.89302 21.0201 9.18824ZM9.61583 9.19898H9.61416C9.61416 8.88436 9.61193 8.56946 9.61416 8.25484C9.61416 8.15825 9.58097 8.11843 9.48392 8.12295C9.35898 8.12888 9.23293 8.12295 9.10827 8.12634C8.89883 8.1334 8.7817 8.24919 8.77361 8.46073C8.76803 8.61097 8.77138 8.76151 8.77138 8.9126C8.77138 9.25151 8.76803 9.59041 8.77361 9.92734C8.77724 10.1457 8.89381 10.2586 9.1013 10.2623C9.22205 10.2646 9.34308 10.2592 9.46384 10.2674C9.57762 10.2753 9.62001 10.2346 9.6175 10.116C9.61165 9.81099 9.61583 9.50569 9.61583 9.20011V9.19898Z" fill="#0D6B68"/>
<path d="M7.37006 11.6606C7.37006 12.6632 7.37006 13.6658 7.37006 14.6684C7.37006 14.9311 7.19074 15.1533 6.95369 15.198C6.6868 15.2482 6.44641 15.1307 6.3488 14.8873C6.31366 14.7986 6.30864 14.6955 6.30195 14.5981C6.29163 14.4436 6.30055 14.2874 6.28549 14.1332C6.27228 14.0077 6.2137 13.8916 6.12103 13.8072C6.02836 13.7228 5.90815 13.676 5.78351 13.676C5.65678 13.6778 5.53515 13.7269 5.44188 13.8138C5.34861 13.9007 5.29023 14.0193 5.2779 14.1471C5.2659 14.2883 5.27371 14.4295 5.27065 14.5707C5.26395 14.8915 5.04503 15.1234 4.74328 15.1305C4.44627 15.1378 4.21341 14.9082 4.2003 14.5885C4.19416 14.4524 4.2003 14.3151 4.19138 14.1793C4.16962 13.8881 3.95349 13.6763 3.68772 13.6763C3.55098 13.6769 3.42002 13.7322 3.32323 13.83C3.22644 13.9278 3.17162 14.0603 3.17067 14.1988C3.16147 14.7492 3.17318 15.3002 3.16286 15.8506C3.16298 15.9943 3.13175 16.1363 3.07139 16.2664C2.97127 16.4641 2.72084 16.5522 2.51921 16.4999C2.2869 16.437 2.1257 16.2568 2.10507 16.0235C2.09726 15.9345 2.09893 15.8447 2.09893 15.7555C2.09893 14.8187 2.10562 13.8822 2.09614 12.9454C2.09307 12.7968 2.05122 12.6517 1.97483 12.5248C1.85547 12.335 1.65105 12.2975 1.44105 12.3475C1.24249 12.3952 1.09635 12.5777 1.08018 12.8008C1.06345 13.0372 0.989822 13.232 0.766438 13.3416C0.41951 13.5111 0.0134594 13.2707 0.00509296 12.8798C-0.00383123 12.4186 0.00174639 11.9575 0.00146751 11.496C0.00146751 11.1525 -0.0013213 10.8088 0.00146751 10.4654C0.00116311 10.3253 0.0542032 10.1904 0.149562 10.0888C0.244921 9.98726 0.375263 9.92681 0.513493 9.92006C0.647377 9.91505 0.778165 9.96158 0.879531 10.0503C0.980897 10.139 1.04532 10.2633 1.05982 10.3982C1.08046 10.6083 1.06958 10.8218 1.07432 11.0328C1.07962 11.2587 1.17137 11.431 1.38304 11.5256C1.44892 11.5556 1.52044 11.5708 1.59267 11.57C1.66489 11.5693 1.73609 11.5526 1.80135 11.5213C1.86661 11.49 1.92437 11.4447 1.97065 11.3885C2.01692 11.3323 2.05061 11.2667 2.06937 11.196C2.08957 11.1091 2.09894 11.0199 2.09726 10.9306C2.09893 9.76783 2.10116 8.60538 2.09726 7.44265C2.09726 7.20796 2.15666 7.0145 2.36108 6.88967C2.70884 6.67757 3.15394 6.91508 3.16175 7.32657C3.17318 7.9383 3.16844 8.55031 3.16844 9.16232C3.16844 10.2166 3.16677 11.2709 3.16844 12.3254C3.16844 12.6528 3.32852 12.8646 3.60182 12.9115C3.87512 12.9584 4.14397 12.7875 4.17548 12.5076C4.20671 12.2334 4.19416 11.9541 4.20058 11.6767C4.2095 11.2813 4.53663 11.0384 4.90782 11.1492C5.00825 11.1812 5.09652 11.2437 5.16063 11.3283C5.22474 11.4129 5.2616 11.5154 5.26618 11.6219C5.27678 11.8761 5.26618 12.1303 5.27483 12.3845C5.28654 12.7426 5.55733 12.9711 5.8853 12.9086C5.98692 12.8916 6.08043 12.8418 6.15204 12.7668C6.22364 12.6918 6.26955 12.5955 6.28298 12.4921C6.29525 12.4036 6.30113 12.3143 6.30055 12.2249C6.30055 11.0625 6.29832 9.9 6.30055 8.73727C6.29702 8.63439 6.31272 8.53177 6.34685 8.4348C6.4492 8.18401 6.69489 8.06934 6.96624 8.12668C7.19464 8.17497 7.36895 8.39554 7.3695 8.65368C7.37136 9.65627 7.37136 10.6588 7.3695 11.6612L7.37006 11.6606Z" fill="#CFE9BC"/>
<path d="M23.2682 12.2246C23.2682 11.0761 23.2682 9.92758 23.2682 8.77907C23.2682 8.44524 23.4857 8.21224 23.7933 8.2066C24.0819 8.20123 24.3232 8.41248 24.3279 8.70507C24.3385 9.42016 24.3346 10.1355 24.3363 10.8515C24.3363 10.9927 24.3338 11.1339 24.3363 11.2751C24.3444 11.6109 24.5547 11.834 24.8584 11.8326C25.1545 11.8312 25.3603 11.6087 25.3681 11.2788C25.3715 11.1424 25.3681 11.006 25.3709 10.8696C25.3744 10.7331 25.4289 10.6031 25.5234 10.5058C25.6178 10.4084 25.7452 10.351 25.8798 10.345C26.0144 10.339 26.1463 10.3849 26.2488 10.4735C26.3513 10.5621 26.4168 10.6868 26.4321 10.8224C26.4469 10.9667 26.441 11.1136 26.443 11.2593C26.4477 11.6053 26.6435 11.8289 26.9449 11.8321C27.2537 11.8354 27.4673 11.6109 27.4684 11.2633C27.4717 10.2234 27.4684 9.18349 27.4684 8.14362C27.4684 7.96936 27.4731 7.79511 27.4684 7.62113C27.4575 7.26415 27.7671 7.06166 27.996 7.0625C28.2992 7.0625 28.5337 7.29776 28.5365 7.62424C28.5415 8.21733 28.5365 8.81041 28.5401 9.4035C28.5424 9.72857 28.7434 9.95225 29.0307 9.96157C29.3071 9.97061 29.526 9.78364 29.5583 9.50574C29.5681 9.42101 29.5634 9.33628 29.5664 9.25156C29.5767 8.96207 29.8018 8.72908 30.079 8.7206C30.3674 8.71157 30.603 8.9135 30.6309 9.20609C30.6449 9.35069 30.6398 9.49755 30.6398 9.64328C30.6398 10.3068 30.6398 10.9703 30.6398 11.6338C30.6398 11.8597 30.5428 12.0331 30.3389 12.1348C30.1465 12.2308 29.9596 12.2108 29.7865 12.0859C29.6445 11.9834 29.5765 11.8369 29.5698 11.6623C29.5647 11.5307 29.5698 11.3988 29.5659 11.2669C29.555 10.9498 29.3428 10.7235 29.055 10.7275C28.8215 10.7309 28.5387 10.9136 28.5396 11.2805C28.542 12.3296 28.542 13.3789 28.5396 14.4284C28.5396 14.7368 28.3748 14.9441 28.1006 14.9949C27.7835 15.0542 27.4896 14.837 27.479 14.5111C27.4648 14.0739 27.474 13.6356 27.4715 13.1984C27.4715 12.9815 27.4179 12.7892 27.2163 12.6683C27.1449 12.6233 27.0634 12.5971 26.9794 12.5923C26.8954 12.5875 26.8116 12.6041 26.7356 12.6406C26.6596 12.6772 26.5939 12.7325 26.5445 12.8015C26.4951 12.8705 26.4636 12.9509 26.453 13.0355C26.4407 13.1236 26.4474 13.2142 26.4404 13.3032C26.4181 13.5978 26.1761 13.8288 25.8972 13.8237C25.6133 13.8186 25.3866 13.5856 25.3723 13.2871C25.3719 13.1838 25.3626 13.0808 25.3444 12.9792C25.3195 12.8681 25.2577 12.7689 25.1693 12.6984C25.0808 12.6279 24.9712 12.5902 24.8586 12.5918C24.7462 12.5908 24.6366 12.6278 24.5472 12.6969C24.4578 12.766 24.3936 12.8632 24.3647 12.9733C24.3462 13.0558 24.3377 13.1403 24.3394 13.225C24.3371 14.0346 24.3371 14.8442 24.3394 15.6538C24.3394 15.884 24.2696 16.0698 24.0627 16.183C23.7057 16.3785 23.2857 16.1494 23.2749 15.7385C23.2601 15.1737 23.2682 14.6088 23.2673 14.044C23.2673 13.4368 23.2673 12.8298 23.2673 12.2229L23.2682 12.2246Z" fill="#CFE9BC"/>
<path d="M11.033 17.083C10.7171 16.7745 10.4352 16.4322 10.1924 16.0621C9.63189 15.2191 9.29156 14.2459 9.20322 13.2336C9.16781 12.8317 9.18426 12.4253 9.17534 12.0209C9.17394 11.9477 9.20685 11.9226 9.27685 11.9229C9.64386 11.9243 10.0106 11.9254 10.3776 11.9209C10.4791 11.9209 10.4869 11.9734 10.4891 12.0539C10.4997 12.4112 10.505 12.769 10.5304 13.1254C10.5951 14.0371 10.9016 14.8581 11.4627 15.5771C11.5213 15.6523 11.5336 15.7167 11.5001 15.8076C11.3537 16.2044 11.2145 16.6037 11.0723 17.0017C11.0606 17.0295 11.0475 17.0566 11.033 17.083Z" fill="#0D6B68"/>
<path d="M15.3209 5.36236C15.3488 5.36182 15.3764 5.36699 15.4022 5.37758C15.4281 5.38816 15.4515 5.40393 15.4711 5.42394C15.4907 5.44395 15.5062 5.46778 15.5164 5.49399C15.5267 5.5202 15.5316 5.54824 15.5309 5.57644C15.5324 5.60539 15.528 5.63435 15.5182 5.66158C15.5084 5.68881 15.4933 5.71377 15.4738 5.73498C15.4542 5.75619 15.4307 5.77322 15.4046 5.78505C15.3785 5.79688 15.3502 5.80328 15.3216 5.80387C15.293 5.80445 15.2645 5.79922 15.238 5.78846C15.2114 5.77771 15.1872 5.76166 15.1668 5.74127C15.1465 5.72088 15.1304 5.69655 15.1195 5.66975C15.1086 5.64294 15.1031 5.61418 15.1034 5.58519C15.1024 5.55587 15.1073 5.52666 15.1179 5.49934C15.1284 5.47201 15.1444 5.44716 15.1647 5.4263C15.1851 5.40543 15.2095 5.389 15.2363 5.37801C15.2632 5.36701 15.292 5.36169 15.3209 5.36236Z" fill="#CFE9BC"/>
<path d="M12.9043 5.57619C12.9046 5.54694 12.9107 5.51805 12.9223 5.49128C12.934 5.4645 12.9508 5.4404 12.9719 5.42043C12.993 5.40046 13.0179 5.38504 13.0451 5.37511C13.0722 5.36519 13.1011 5.36096 13.13 5.36268C13.1848 5.36726 13.2359 5.39292 13.2727 5.4344C13.3094 5.47588 13.3291 5.53004 13.3278 5.58577C13.3264 5.6415 13.304 5.69458 13.2652 5.73413C13.2264 5.77368 13.1741 5.79669 13.1191 5.79846C13.0902 5.79936 13.0615 5.79419 13.0347 5.78327C13.008 5.77236 12.9837 5.75593 12.9635 5.73504C12.9434 5.71415 12.9277 5.68925 12.9175 5.66191C12.9073 5.63456 12.9028 5.60538 12.9043 5.57619Z" fill="#CFE9BC"/>
<path d="M16.0484 6.5671C16.0205 6.5686 15.9925 6.56413 15.9663 6.55398C15.9401 6.54383 15.9164 6.52822 15.8966 6.50817C15.8767 6.48812 15.8613 6.46407 15.8512 6.43759C15.8412 6.41111 15.8367 6.38278 15.8382 6.35444C15.8374 6.32491 15.8427 6.29555 15.8538 6.26821C15.8648 6.24087 15.8814 6.21616 15.9023 6.19563C15.9233 6.1751 15.9483 6.15922 15.9756 6.14897C16.003 6.13873 16.0321 6.13436 16.0613 6.13613C16.1154 6.13708 16.167 6.15946 16.2051 6.19847C16.2431 6.23747 16.2646 6.29001 16.2648 6.34484C16.267 6.37432 16.2629 6.40393 16.2528 6.43168C16.2428 6.45943 16.227 6.48467 16.2065 6.50572C16.186 6.52677 16.1613 6.54314 16.134 6.55373C16.1068 6.56432 16.0776 6.56887 16.0484 6.5671Z" fill="#CFE9BC"/>
<path d="M16.7755 8.88667C16.657 8.88525 16.5736 8.79431 16.5745 8.66779C16.5753 8.54126 16.6598 8.45202 16.7789 8.45117C16.9091 8.45117 16.9967 8.53901 16.9953 8.67005C16.9965 8.69933 16.9916 8.72854 16.9809 8.75577C16.9702 8.783 16.954 8.80765 16.9332 8.82809C16.9125 8.84853 16.8877 8.86431 16.8605 8.87441C16.8334 8.8845 16.8044 8.88868 16.7755 8.88667Z" fill="#CFE9BC"/>
<path d="M16.9948 9.43605C16.9965 9.56907 16.9112 9.65859 16.7787 9.65888C16.6585 9.65888 16.5737 9.56907 16.5737 9.44141C16.5724 9.41316 16.5768 9.38493 16.5868 9.35849C16.5967 9.33205 16.6119 9.30796 16.6314 9.28772C16.6509 9.26748 16.6743 9.25152 16.7002 9.24084C16.7261 9.23016 16.7538 9.22499 16.7818 9.22564C16.9075 9.22621 16.9931 9.31065 16.9948 9.43605Z" fill="#CFE9BC"/>
<path d="M15.5307 6.34684C15.5329 6.47873 15.447 6.5677 15.3165 6.56713C15.2888 6.56873 15.261 6.56451 15.235 6.55474C15.2089 6.54496 15.1852 6.52984 15.1652 6.51033C15.1452 6.49081 15.1294 6.46732 15.1187 6.44132C15.1081 6.41533 15.1029 6.3874 15.1035 6.35927C15.1022 6.33003 15.1069 6.30085 15.1173 6.27352C15.1276 6.2462 15.1434 6.2213 15.1636 6.20037C15.1838 6.17944 15.208 6.16292 15.2347 6.15183C15.2614 6.14074 15.2901 6.13531 15.319 6.13587C15.3468 6.13487 15.3745 6.13961 15.4004 6.14982C15.4263 6.16002 15.4499 6.17547 15.4697 6.19521C15.4895 6.21496 15.5052 6.23859 15.5156 6.26466C15.5261 6.29073 15.5313 6.3187 15.5307 6.34684Z" fill="#CFE9BC"/>
<path d="M18.2568 8.45121C18.2845 8.4507 18.312 8.4559 18.3377 8.46651C18.3633 8.47711 18.3866 8.4929 18.406 8.5129C18.4255 8.5329 18.4407 8.55671 18.4507 8.58286C18.4608 8.60901 18.4655 8.63696 18.4645 8.66501C18.4658 8.69417 18.4611 8.72327 18.4507 8.75049C18.4403 8.77771 18.4244 8.80246 18.4041 8.82318C18.3838 8.8439 18.3595 8.86014 18.3327 8.87087C18.3059 8.88161 18.2772 8.88662 18.2484 8.88558C18.1915 8.88446 18.1374 8.8605 18.098 8.81897C18.0585 8.77745 18.037 8.72176 18.0381 8.66416C18.0392 8.60656 18.0629 8.55176 18.1039 8.51183C18.1449 8.47189 18.1999 8.45009 18.2568 8.45121Z" fill="#CFE9BC"/>
<path d="M16.0586 8.45118C16.0863 8.45116 16.1137 8.45679 16.1392 8.46773C16.1647 8.47867 16.1878 8.49469 16.2071 8.51485C16.2264 8.53501 16.2415 8.55888 16.2514 8.58506C16.2614 8.61124 16.2661 8.63918 16.2652 8.66723C16.266 8.69648 16.2609 8.72559 16.2502 8.75275C16.2394 8.7799 16.2232 8.80453 16.2027 8.82508C16.1821 8.84564 16.1576 8.86169 16.1306 8.87224C16.1037 8.88279 16.0749 8.88761 16.046 8.88639C15.9898 8.88353 15.937 8.85849 15.8989 8.81665C15.8607 8.77481 15.8402 8.71949 15.8419 8.66256C15.8435 8.60563 15.8671 8.55162 15.9076 8.5121C15.9481 8.47259 16.0023 8.45072 16.0586 8.45118Z" fill="#CFE9BC"/>
<path d="M16.7887 6.9084C16.8176 6.90769 16.8464 6.91322 16.873 6.92463C16.8997 6.93604 16.9236 6.95306 16.9433 6.97456C16.9629 6.99607 16.9778 7.02157 16.987 7.04936C16.9962 7.07715 16.9994 7.1066 16.9965 7.13575C16.9906 7.26764 16.9042 7.34531 16.7684 7.34051C16.6487 7.33627 16.5709 7.24561 16.5756 7.11626C16.5755 7.08824 16.5809 7.06048 16.5917 7.03466C16.6024 7.00883 16.6182 6.98549 16.6382 6.96605C16.6581 6.94661 16.6817 6.93147 16.7076 6.92156C16.7335 6.91165 16.7611 6.90718 16.7887 6.9084Z" fill="#CFE9BC"/>
<path d="M18.4645 7.11935C18.4676 7.25152 18.3825 7.34049 18.2526 7.34133C18.1226 7.34218 18.0434 7.26141 18.0395 7.13488C18.0376 7.10567 18.0418 7.07639 18.0517 7.0489C18.0616 7.0214 18.0771 6.9963 18.0971 6.97518C18.1171 6.95407 18.1412 6.9374 18.168 6.92624C18.1947 6.91508 18.2234 6.90967 18.2523 6.91036C18.28 6.90912 18.3076 6.91363 18.3336 6.92362C18.3595 6.93361 18.3831 6.94886 18.403 6.96844C18.4228 6.98801 18.4386 7.0115 18.4491 7.03745C18.4597 7.0634 18.465 7.09127 18.4645 7.11935Z" fill="#CFE9BC"/>
<path d="M16.0374 5.79802C15.9951 5.79561 15.9544 5.7806 15.9205 5.75489C15.8866 5.72918 15.8609 5.69391 15.8467 5.65348C15.8325 5.61306 15.8304 5.56929 15.8406 5.52765C15.8508 5.48601 15.873 5.44836 15.9043 5.41941C15.9355 5.39046 15.9746 5.3715 16.0164 5.3649C16.0583 5.3583 16.1011 5.36436 16.1396 5.38232C16.1781 5.40028 16.2105 5.42934 16.2328 5.46586C16.255 5.50237 16.2661 5.54473 16.2647 5.58762C16.2645 5.61689 16.2583 5.6458 16.2466 5.67255C16.2348 5.69929 16.2177 5.72329 16.1964 5.74304C16.1751 5.7628 16.1499 5.77787 16.1226 5.78733C16.0952 5.79679 16.0662 5.80043 16.0374 5.79802Z" fill="#CFE9BC"/>
<path d="M14.0644 6.3477C14.0665 6.37595 14.0627 6.40432 14.0533 6.43102C14.044 6.45772 14.0293 6.48216 14.0101 6.50279C13.9909 6.52342 13.9677 6.5398 13.942 6.55087C13.9162 6.56195 13.8885 6.56749 13.8605 6.56714C13.7278 6.57138 13.6374 6.48439 13.6399 6.35165C13.6393 6.32333 13.6443 6.29517 13.6546 6.26885C13.665 6.24253 13.6805 6.21858 13.7001 6.19844C13.7198 6.17831 13.7433 6.16239 13.7692 6.15164C13.7951 6.14089 13.8228 6.13553 13.8508 6.13588C13.8787 6.13484 13.9066 6.13958 13.9327 6.1498C13.9588 6.16002 13.9825 6.17551 14.0025 6.19532C14.0225 6.21514 14.0383 6.23887 14.0489 6.26507C14.0596 6.29126 14.0648 6.31938 14.0644 6.3477Z" fill="#CFE9BC"/>
<path d="M16.9956 6.35211C16.9956 6.48626 16.9119 6.56732 16.7775 6.56732C16.6551 6.56732 16.5747 6.48259 16.5745 6.35352C16.5742 6.22446 16.6581 6.13747 16.7775 6.13577C16.9083 6.1338 16.9961 6.22276 16.9956 6.35211Z" fill="#CFE9BC"/>
<path d="M13.1237 6.13588C13.1517 6.13569 13.1794 6.14129 13.2051 6.15233C13.2309 6.16337 13.2541 6.17962 13.2734 6.20009C13.2928 6.22056 13.3078 6.24482 13.3175 6.27136C13.3272 6.29791 13.3315 6.32619 13.3301 6.35448C13.3313 6.38281 13.3268 6.4111 13.3166 6.43753C13.3064 6.46396 13.2909 6.48794 13.2711 6.50795C13.2512 6.52795 13.2275 6.54352 13.2013 6.55367C13.1752 6.56381 13.1472 6.5683 13.1192 6.56686C13.0902 6.56862 13.061 6.56403 13.0339 6.5534C13.0067 6.54276 12.9821 6.52633 12.9618 6.50522C12.9414 6.48411 12.9258 6.45881 12.916 6.43105C12.9061 6.40328 12.9023 6.3737 12.9048 6.34431C12.9055 6.31602 12.9117 6.28816 12.9232 6.26233C12.9346 6.23651 12.9509 6.21323 12.9713 6.19385C12.9917 6.17446 13.0156 6.15936 13.0418 6.14941C13.0679 6.13946 13.0958 6.13486 13.1237 6.13588Z" fill="#CFE9BC"/>
<path d="M17.5229 5.36144C17.5507 5.3611 17.5782 5.36651 17.6039 5.37735C17.6295 5.38818 17.6527 5.4042 17.672 5.42444C17.6913 5.44467 17.7063 5.46868 17.7161 5.495C17.7259 5.52132 17.7303 5.54939 17.729 5.57749C17.7293 5.60572 17.724 5.63372 17.7136 5.6599C17.7032 5.68608 17.6878 5.70993 17.6683 5.73009C17.6488 5.75024 17.6255 5.7663 17.5999 5.77736C17.5743 5.78842 17.5467 5.79425 17.5188 5.79453C17.491 5.79481 17.4633 5.78953 17.4375 5.77898C17.4116 5.76844 17.3881 5.75284 17.3682 5.73308C17.3483 5.71332 17.3324 5.68978 17.3215 5.66381C17.3106 5.63784 17.3048 5.60995 17.3045 5.58173C17.3037 5.5525 17.3088 5.52342 17.3195 5.49626C17.3302 5.46911 17.3463 5.44446 17.3667 5.42382C17.3872 5.40319 17.4116 5.38701 17.4384 5.37628C17.4653 5.36555 17.494 5.3605 17.5229 5.36144Z" fill="#CFE9BC"/>
<path d="M15.3225 7.34188C15.1911 7.34442 15.1024 7.25715 15.1033 7.12667C15.1028 7.06997 15.1246 7.01539 15.1638 6.9749C15.203 6.9344 15.2564 6.91129 15.3124 6.91062C15.3402 6.90873 15.368 6.91261 15.3942 6.92201C15.4205 6.93141 15.4445 6.94613 15.4649 6.96528C15.4853 6.98443 15.5016 7.00759 15.5128 7.03335C15.5241 7.05912 15.53 7.08693 15.5302 7.11509C15.5361 7.2467 15.4513 7.33934 15.3225 7.34188Z" fill="#CFE9BC"/>
<path d="M15.5304 8.67637C15.5297 8.70491 15.5233 8.73302 15.5118 8.75907C15.5002 8.78512 15.4837 8.80859 15.4631 8.82814C15.4426 8.84769 15.4184 8.86293 15.392 8.87297C15.3656 8.88301 15.3375 8.88766 15.3094 8.88666C15.2812 8.88565 15.2535 8.87901 15.2279 8.8671C15.2022 8.8552 15.1792 8.83828 15.16 8.81731C15.1409 8.79635 15.126 8.77175 15.1163 8.74494C15.1066 8.71814 15.1023 8.68965 15.1035 8.66112C15.1042 8.63188 15.1108 8.60309 15.1228 8.57651C15.1349 8.54993 15.1522 8.52612 15.1736 8.50653C15.1951 8.48695 15.2203 8.472 15.2476 8.46259C15.275 8.45319 15.3039 8.44953 15.3327 8.45185C15.3605 8.45271 15.3878 8.45929 15.413 8.47119C15.4382 8.48309 15.4607 8.50006 15.4792 8.52107C15.4977 8.54208 15.5118 8.56668 15.5206 8.59338C15.5294 8.62008 15.5328 8.64832 15.5304 8.67637Z" fill="#CFE9BC"/>
<path d="M14.5841 8.88651C14.5561 8.88747 14.5282 8.88256 14.5022 8.87209C14.4761 8.86162 14.4525 8.84581 14.4327 8.82566C14.413 8.80551 14.3976 8.78145 14.3874 8.75499C14.3773 8.72852 14.3727 8.70023 14.3738 8.67187C14.3723 8.64237 14.3768 8.61286 14.3873 8.58529C14.3978 8.55772 14.4139 8.53271 14.4346 8.5119C14.4553 8.49109 14.4802 8.47496 14.5075 8.46456C14.5348 8.45416 14.5639 8.44974 14.593 8.45158C14.716 8.4544 14.7977 8.54365 14.7952 8.67243C14.7963 8.70081 14.7915 8.7291 14.7813 8.75554C14.7711 8.78197 14.7556 8.80599 14.7358 8.82608C14.7159 8.84617 14.6923 8.86191 14.6662 8.87231C14.6401 8.8827 14.6121 8.88754 14.5841 8.88651Z" fill="#CFE9BC"/>
<path d="M13.8502 8.8861C13.8075 8.88643 13.7657 8.87387 13.7301 8.85003C13.6945 8.82618 13.6667 8.79214 13.6503 8.75223C13.6339 8.71233 13.6296 8.66838 13.638 8.62599C13.6463 8.5836 13.667 8.54471 13.6973 8.51426C13.7276 8.48382 13.7662 8.46321 13.8081 8.45507C13.85 8.44692 13.8934 8.45162 13.9326 8.46855C13.9719 8.48548 14.0053 8.51388 14.0286 8.55012C14.0518 8.58636 14.0639 8.6288 14.0632 8.67202C14.0635 8.70034 14.0581 8.72842 14.0474 8.75461C14.0368 8.7808 14.0211 8.80456 14.0012 8.82451C13.9814 8.84446 13.9578 8.86018 13.9318 8.87076C13.9059 8.88133 13.8781 8.88655 13.8502 8.8861Z" fill="#CFE9BC"/>
<path d="M13.3303 8.66241C13.3312 8.70516 13.3195 8.74721 13.2967 8.78321C13.2739 8.81922 13.2411 8.84754 13.2023 8.86457C13.1636 8.88161 13.1208 8.88659 13.0792 8.87889C13.0377 8.87118 12.9994 8.85113 12.9691 8.8213C12.9389 8.79146 12.9181 8.75319 12.9094 8.71134C12.9007 8.6695 12.9044 8.62598 12.9202 8.58632C12.936 8.54667 12.9631 8.51266 12.998 8.48864C13.033 8.46462 13.0742 8.45167 13.1164 8.45144C13.1444 8.44999 13.1724 8.45442 13.1986 8.46443C13.2248 8.47445 13.2487 8.48984 13.2688 8.50964C13.2889 8.52945 13.3047 8.55324 13.3153 8.57953C13.3259 8.60582 13.331 8.63403 13.3303 8.66241Z" fill="#CFE9BC"/>
<path d="M14.5807 7.67823C14.6086 7.67624 14.6367 7.68022 14.663 7.68991C14.6894 7.6996 14.7135 7.71479 14.7336 7.73449C14.7538 7.75419 14.7697 7.77797 14.7803 7.80428C14.7908 7.83059 14.7958 7.85885 14.7948 7.88723C14.7973 8.01658 14.7179 8.10695 14.596 8.11316C14.5677 8.11432 14.5395 8.10982 14.513 8.0999C14.4864 8.08999 14.4621 8.07486 14.4413 8.0554C14.4206 8.03593 14.4039 8.0125 14.3921 7.98646C14.3803 7.96041 14.3737 7.93227 14.3727 7.90364C14.3717 7.87502 14.3763 7.84647 14.3862 7.81964C14.3961 7.79282 14.4112 7.76824 14.4305 7.74732C14.4498 7.7264 14.473 7.70955 14.4988 7.69774C14.5246 7.68594 14.5524 7.6794 14.5807 7.67852V7.67823Z" fill="#CFE9BC"/>
<path d="M15.5306 9.44573C15.5314 9.47415 15.5265 9.50244 15.5161 9.52886C15.5057 9.55527 15.4901 9.57923 15.4701 9.59926C15.4502 9.61928 15.4264 9.63494 15.4003 9.64526C15.3741 9.65558 15.3461 9.66034 15.3181 9.65924C15.2889 9.66032 15.2598 9.65515 15.2327 9.64405C15.2057 9.63296 15.1812 9.6162 15.161 9.59486C15.1408 9.57353 15.1252 9.54811 15.1154 9.52026C15.1056 9.49242 15.1016 9.46279 15.1039 9.4333C15.1046 9.40496 15.111 9.37706 15.1225 9.35124C15.1341 9.32542 15.1506 9.30221 15.1712 9.28297C15.1918 9.26373 15.2159 9.24885 15.2422 9.23921C15.2686 9.22957 15.2965 9.22537 15.3245 9.22685C15.3525 9.22649 15.3803 9.23198 15.4061 9.24299C15.432 9.25399 15.4553 9.27027 15.4746 9.29081C15.494 9.31135 15.5089 9.33571 15.5185 9.36237C15.5282 9.38902 15.5323 9.4174 15.5306 9.44573Z" fill="#CFE9BC"/>
<path d="M15.3132 8.11226C15.2842 8.11248 15.2555 8.10659 15.229 8.09496C15.2024 8.08333 15.1785 8.06622 15.1588 8.04473C15.1391 8.02323 15.1241 7.99782 15.1147 7.97011C15.1052 7.94239 15.1016 7.91299 15.104 7.88378C15.105 7.85569 15.1114 7.82807 15.1229 7.8025C15.1345 7.77693 15.1509 7.75392 15.1712 7.73479C15.1916 7.71566 15.2154 7.70079 15.2415 7.69103C15.2675 7.68126 15.2952 7.6768 15.3229 7.6779C15.3507 7.6775 15.3782 7.68281 15.4039 7.69351C15.4296 7.7042 15.4528 7.72006 15.4723 7.74013C15.4917 7.7602 15.507 7.78405 15.5171 7.81024C15.5271 7.83644 15.5319 7.86444 15.531 7.89254C15.5323 7.92183 15.5276 7.95109 15.5171 7.97843C15.5067 8.00576 15.4906 8.03058 15.4701 8.05128C15.4496 8.07197 15.425 8.08809 15.398 8.09859C15.371 8.1091 15.3421 8.11375 15.3132 8.11226Z" fill="#CFE9BC"/>
<path d="M12.3808 8.88617C12.3528 8.88651 12.3251 8.88105 12.2993 8.87012C12.2735 8.8592 12.2501 8.84304 12.2307 8.82264C12.2113 8.80224 12.1962 8.77804 12.1864 8.75152C12.1766 8.72499 12.1722 8.69671 12.1736 8.66842C12.1726 8.63889 12.1777 8.60947 12.1887 8.58209C12.1996 8.55471 12.2162 8.52999 12.2373 8.50954C12.2583 8.48909 12.2834 8.47338 12.3109 8.46343C12.3384 8.45348 12.3676 8.44952 12.3967 8.4518C12.5186 8.45632 12.5994 8.54754 12.595 8.67548C12.5955 8.70381 12.5902 8.73195 12.5795 8.75814C12.5689 8.78434 12.553 8.80804 12.5329 8.82779C12.5129 8.84753 12.489 8.8629 12.4628 8.87294C12.4367 8.88298 12.4087 8.88748 12.3808 8.88617Z" fill="#CFE9BC"/>
<path d="M13.3304 7.89163C13.3307 7.93438 13.3184 7.97627 13.2952 8.01196C13.272 8.04765 13.2388 8.07553 13.1998 8.09206C13.1609 8.10858 13.118 8.11301 13.0766 8.10477C13.0351 8.09654 12.9971 8.07601 12.9672 8.0458C12.9373 8.01559 12.917 7.97706 12.9088 7.93512C12.9006 7.89318 12.905 7.84972 12.9212 7.81028C12.9375 7.77083 12.965 7.73717 13.0002 7.71359C13.0354 7.69 13.0767 7.67756 13.119 7.67784C13.1469 7.67694 13.1748 7.68185 13.2008 7.69227C13.2269 7.70269 13.2505 7.71841 13.2703 7.73844C13.2901 7.75847 13.3057 7.78239 13.316 7.80874C13.3263 7.83509 13.3312 7.8633 13.3304 7.89163Z" fill="#CFE9BC"/>
<path d="M14.5936 6.90864C14.716 6.91232 14.7983 7.00269 14.7949 7.13063C14.7916 7.25857 14.7113 7.34103 14.5833 7.34019C14.4552 7.33934 14.368 7.25009 14.3738 7.11425C14.3742 7.08591 14.3803 7.05795 14.3917 7.03207C14.4031 7.00618 14.4196 6.98292 14.4401 6.96369C14.4607 6.94445 14.4849 6.92966 14.5113 6.9202C14.5376 6.91073 14.5656 6.9068 14.5936 6.90864Z" fill="#CFE9BC"/>
<path d="M13.3307 7.12352C13.3326 7.15182 13.3286 7.18021 13.319 7.20687C13.3095 7.23353 13.2945 7.25787 13.2751 7.27834C13.2557 7.2988 13.2323 7.31495 13.2064 7.32573C13.1805 7.33652 13.1526 7.34172 13.1246 7.34098C12.9927 7.34409 12.9015 7.25485 12.9049 7.12352C12.9049 7.09524 12.9105 7.06725 12.9213 7.04117C12.9321 7.0151 12.9479 6.99145 12.9678 6.97162C12.9877 6.95178 13.0113 6.93614 13.0372 6.92562C13.0631 6.91509 13.0909 6.90988 13.1188 6.91029C13.1468 6.90927 13.1747 6.91408 13.2007 6.92442C13.2268 6.93476 13.2505 6.9504 13.2704 6.97039C13.2902 6.99038 13.3059 7.01428 13.3162 7.04062C13.3266 7.06696 13.3315 7.09517 13.3307 7.12352Z" fill="#CFE9BC"/>
<path d="M13.3303 9.43857C13.331 9.48135 13.3192 9.52338 13.2962 9.5593C13.2733 9.59522 13.2403 9.62341 13.2014 9.64028C13.1626 9.65715 13.1197 9.66192 13.0782 9.65401C13.0367 9.64609 12.9984 9.62583 12.9683 9.59582C12.9382 9.5658 12.9176 9.52739 12.9091 9.48547C12.9006 9.44356 12.9047 9.40003 12.9207 9.36045C12.9367 9.32087 12.9641 9.28701 12.9992 9.2632C13.0343 9.23939 13.0756 9.2267 13.1178 9.22675C13.1458 9.22554 13.1737 9.23016 13.1998 9.24034C13.2259 9.25051 13.2496 9.26601 13.2695 9.28588C13.2895 9.30574 13.3052 9.32955 13.3156 9.35582C13.3261 9.38209 13.3311 9.41026 13.3303 9.43857Z" fill="#CFE9BC"/>
<path d="M14.5906 9.22692C14.7139 9.22861 14.7967 9.31701 14.7948 9.44467C14.7928 9.57232 14.7083 9.65931 14.5862 9.65959C14.4573 9.65959 14.37 9.56724 14.3736 9.43365C14.3737 9.40541 14.3795 9.37748 14.3906 9.35157C14.4017 9.32566 14.4178 9.30231 14.4382 9.28296C14.4585 9.26361 14.4825 9.24866 14.5087 9.23902C14.5349 9.22938 14.5628 9.22527 14.5906 9.22692Z" fill="#CFE9BC"/>
<path d="M14.7953 6.34404C14.7984 6.47508 14.7208 6.56122 14.5959 6.5663C14.4612 6.57195 14.3745 6.48864 14.3728 6.35364C14.3715 6.32533 14.3759 6.29704 14.3857 6.2705C14.3955 6.24397 14.4106 6.21974 14.43 6.19931C14.4494 6.17888 14.4727 6.16266 14.4985 6.15166C14.5243 6.14066 14.552 6.1351 14.58 6.13533C14.608 6.13321 14.6362 6.13709 14.6626 6.14671C14.6891 6.15632 14.7132 6.17146 14.7335 6.19114C14.7538 6.21082 14.7698 6.2346 14.7805 6.26094C14.7911 6.28728 14.7962 6.31559 14.7953 6.34404Z" fill="#CFE9BC"/>
<path d="M18.2576 9.22675C18.2855 9.22621 18.3132 9.23149 18.339 9.24226C18.3648 9.25302 18.3882 9.26905 18.4076 9.28934C18.427 9.30962 18.4422 9.33374 18.452 9.36019C18.4618 9.38664 18.4662 9.41486 18.4648 9.44308C18.4658 9.47138 18.461 9.49958 18.4509 9.52595C18.4407 9.55233 18.4253 9.57633 18.4057 9.59649C18.3861 9.61666 18.3626 9.63256 18.3367 9.64323C18.3108 9.65391 18.2831 9.65913 18.2551 9.65857C18.2265 9.65944 18.1979 9.65445 18.1712 9.6439C18.1445 9.63336 18.1202 9.61748 18.0997 9.5972C18.0792 9.57693 18.0629 9.55268 18.0519 9.5259C18.0408 9.49912 18.0352 9.47036 18.0354 9.44134C18.0356 9.41232 18.0415 9.38363 18.0529 9.35699C18.0642 9.33035 18.0808 9.30629 18.1015 9.28626C18.1222 9.26623 18.1468 9.25064 18.1736 9.24042C18.2004 9.23019 18.229 9.22554 18.2576 9.22675Z" fill="#CFE9BC"/>
<path d="M16.9956 5.57449C16.9956 5.70779 16.9119 5.79619 16.7814 5.7976C16.6598 5.7976 16.5767 5.71287 16.5745 5.58381C16.5723 5.45474 16.6632 5.35787 16.7873 5.36041C16.8151 5.35973 16.8427 5.36483 16.8685 5.37539C16.8943 5.38595 16.9177 5.40175 16.9372 5.42181C16.9567 5.44187 16.972 5.46576 16.982 5.49202C16.9921 5.51828 16.9967 5.54635 16.9956 5.57449Z" fill="#CFE9BC"/>
<path d="M14.5894 5.79914C14.5617 5.80117 14.5339 5.79736 14.5077 5.78795C14.4815 5.77855 14.4575 5.76375 14.4372 5.74448C14.4169 5.72522 14.4008 5.70192 14.3898 5.67603C14.3789 5.65015 14.3734 5.62226 14.3736 5.5941C14.3707 5.56491 14.3739 5.53543 14.3829 5.50755C14.392 5.47968 14.4067 5.45403 14.4261 5.43225C14.4455 5.41047 14.4692 5.39303 14.4956 5.38107C14.5221 5.36911 14.5507 5.36289 14.5797 5.3628C14.6074 5.36084 14.6352 5.36473 14.6614 5.37423C14.6876 5.38373 14.7115 5.39863 14.7317 5.41799C14.7519 5.43734 14.7679 5.46073 14.7787 5.48667C14.7895 5.51261 14.7948 5.54054 14.7944 5.56868C14.7992 5.70255 14.7172 5.79462 14.5894 5.79914Z" fill="#CFE9BC"/>
<path d="M16.7883 7.67605C16.8172 7.67531 16.846 7.68085 16.8727 7.6923C16.8993 7.70375 16.9233 7.72084 16.9428 7.74242C16.9624 7.76401 16.9773 7.78959 16.9863 7.81745C16.9953 7.84532 16.9984 7.87481 16.9952 7.90396C16.9891 8.03359 16.8962 8.11776 16.7665 8.11098C16.6497 8.10505 16.5699 8.01072 16.5747 7.88334C16.5744 7.85529 16.5799 7.82748 16.5906 7.80163C16.6014 7.77577 16.6173 7.75243 16.6373 7.73301C16.6573 7.7136 16.681 7.69853 16.707 7.68874C16.7329 7.67894 16.7606 7.67462 16.7883 7.67605Z" fill="#CFE9BC"/>
<path d="M18.4643 7.89649C18.4649 7.92581 18.4595 7.95494 18.4484 7.98201C18.4372 8.00907 18.4206 8.03348 18.3996 8.05367C18.3786 8.07385 18.3537 8.08936 18.3264 8.09921C18.2991 8.10906 18.2701 8.11303 18.2412 8.11085C18.2134 8.11071 18.186 8.10483 18.1605 8.09357C18.1351 8.08231 18.1121 8.06591 18.0932 8.04537C18.0742 8.02482 18.0595 8.00057 18.0501 7.9741C18.0407 7.94763 18.0368 7.91949 18.0385 7.89141C18.0379 7.86212 18.0434 7.83302 18.0545 7.80599C18.0657 7.77896 18.0823 7.75458 18.1033 7.73443C18.1243 7.71428 18.1492 7.69879 18.1765 7.68896C18.2037 7.67912 18.2327 7.67517 18.2616 7.67734C18.2893 7.6776 18.3167 7.68355 18.3421 7.69483C18.3674 7.70612 18.3903 7.7225 18.4093 7.74299C18.4282 7.76347 18.4429 7.78764 18.4523 7.81402C18.4618 7.84041 18.4659 7.86847 18.4643 7.89649Z" fill="#CFE9BC"/>
<path d="M15.8383 7.88877C15.8382 7.85948 15.8441 7.83048 15.8557 7.8036C15.8672 7.77673 15.8841 7.75255 15.9052 7.73261C15.9264 7.71266 15.9515 7.69737 15.9788 7.68769C16.0061 7.67802 16.0351 7.67417 16.0639 7.67639C16.0917 7.67702 16.119 7.68332 16.1442 7.69489C16.1695 7.70647 16.1922 7.7231 16.211 7.74377C16.2298 7.76445 16.2442 7.78874 16.2535 7.81521C16.2628 7.84168 16.2667 7.86978 16.265 7.89781C16.2651 7.92708 16.2592 7.95606 16.2477 7.98291C16.2362 8.00977 16.2193 8.03393 16.1982 8.05387C16.177 8.07381 16.152 8.08911 16.1247 8.0988C16.0974 8.10849 16.0685 8.11237 16.0397 8.11019C16.0119 8.10968 15.9845 8.10347 15.9592 8.09193C15.9338 8.0804 15.9111 8.06378 15.8922 8.04308C15.8734 8.02239 15.8589 7.99805 15.8497 7.97152C15.8404 7.945 15.8365 7.91685 15.8383 7.88877Z" fill="#CFE9BC"/>
<path d="M17.5246 6.91036C17.5526 6.91021 17.5803 6.91585 17.606 6.92694C17.6318 6.93804 17.655 6.95435 17.6743 6.97487C17.6936 6.9954 17.7086 7.01971 17.7183 7.0463C17.728 7.0729 17.7322 7.10122 17.7307 7.12952C17.7281 7.26198 17.6372 7.34699 17.505 7.34106C17.4771 7.34099 17.4494 7.33501 17.4238 7.32349C17.3982 7.31198 17.3753 7.29518 17.3565 7.27418C17.3377 7.25318 17.3235 7.22843 17.3147 7.20153C17.3059 7.17463 17.3027 7.14616 17.3054 7.11794C17.306 7.08964 17.3122 7.06176 17.3236 7.03593C17.3351 7.01009 17.3515 6.98682 17.3719 6.96749C17.3923 6.94816 17.4163 6.93314 17.4425 6.92333C17.4688 6.91353 17.4966 6.90912 17.5246 6.91036Z" fill="#CFE9BC"/>
<path d="M13.8477 5.36257C13.8754 5.36115 13.9032 5.36546 13.9292 5.37521C13.9553 5.38497 13.9791 5.39998 13.9993 5.41934C14.0194 5.43869 14.0355 5.46199 14.0465 5.48781C14.0575 5.51364 14.0632 5.54146 14.0633 5.56958C14.0655 5.59871 14.0618 5.628 14.0523 5.65561C14.0429 5.68321 14.0279 5.70855 14.0084 5.73004C13.9888 5.75154 13.9651 5.76872 13.9387 5.78052C13.9123 5.79232 13.8838 5.79848 13.855 5.79863C13.8273 5.8002 13.7995 5.79604 13.7735 5.78639C13.7474 5.77675 13.7235 5.76182 13.7034 5.74252C13.6832 5.72323 13.6671 5.69997 13.6561 5.67417C13.6451 5.64836 13.6394 5.62056 13.6394 5.59246C13.637 5.56325 13.6406 5.53386 13.65 5.50613C13.6594 5.4784 13.6743 5.45294 13.6939 5.43135C13.7134 5.40976 13.7372 5.3925 13.7637 5.38066C13.7902 5.36882 13.8188 5.36266 13.8477 5.36257Z" fill="#CFE9BC"/>
<path d="M16.2651 4.80707C16.2655 4.8366 16.2598 4.86588 16.2483 4.89304C16.2369 4.9202 16.2199 4.94464 16.1986 4.96479C16.1773 4.98495 16.1521 5.00037 16.1245 5.01007C16.097 5.01978 16.0677 5.02355 16.0387 5.02115C15.997 5.0186 15.9569 5.00373 15.9235 4.97837C15.89 4.95301 15.8647 4.91827 15.8505 4.87846C15.8364 4.83864 15.8341 4.7955 15.8439 4.75437C15.8537 4.71325 15.8752 4.67594 15.9057 4.64706C15.9363 4.61819 15.9745 4.59902 16.0157 4.59193C16.0569 4.58484 16.0992 4.59013 16.1375 4.60716C16.1757 4.62419 16.2082 4.65221 16.2309 4.68774C16.2536 4.72327 16.2655 4.76476 16.2651 4.80707Z" fill="#CFE9BC"/>
<path d="M15.311 5.02184C15.283 5.02165 15.2554 5.01571 15.2297 5.00438C15.204 4.99305 15.1809 4.97657 15.1616 4.95593C15.1424 4.93528 15.1275 4.91091 15.1179 4.88428C15.1083 4.85765 15.104 4.82931 15.1055 4.80099C15.1056 4.77147 15.1118 4.74231 15.1236 4.71533C15.1355 4.68836 15.1527 4.66418 15.1743 4.64432C15.1958 4.62445 15.2212 4.60934 15.2488 4.59995C15.2765 4.59055 15.3057 4.58707 15.3348 4.58974C15.3626 4.59053 15.3901 4.59713 15.4153 4.60911C15.4406 4.6211 15.4631 4.63822 15.4816 4.65942C15.5 4.68061 15.5139 4.70542 15.5225 4.7323C15.5311 4.75918 15.5341 4.78756 15.5314 4.81567C15.5312 4.84416 15.5253 4.87231 15.5139 4.89838C15.5026 4.92444 15.4861 4.94787 15.4654 4.9672C15.4447 4.98654 15.4204 5.00136 15.3938 5.01076C15.3673 5.02016 15.3391 5.02393 15.311 5.02184Z" fill="#CFE9BC"/>
<path d="M14.7949 4.80915C14.7916 4.93596 14.7059 5.0221 14.5838 5.02182C14.4555 5.02182 14.3682 4.92692 14.3738 4.79588C14.3739 4.76759 14.3798 4.73963 14.3911 4.71375C14.4024 4.68787 14.4188 4.66462 14.4393 4.64544C14.4599 4.62626 14.4841 4.61156 14.5105 4.60227C14.5369 4.59297 14.5649 4.58927 14.5927 4.59141C14.7163 4.59282 14.798 4.6815 14.7949 4.80915Z" fill="#CFE9BC"/>
<path d="M17.522 7.67781C17.5788 7.67781 17.6333 7.70066 17.6735 7.74134C17.7136 7.78202 17.7362 7.83718 17.7362 7.89471C17.7362 7.95224 17.7136 8.00741 17.6735 8.04808C17.6333 8.08876 17.5788 8.11161 17.522 8.11161C17.4929 8.11295 17.4638 8.10804 17.4366 8.09721C17.4095 8.08638 17.3849 8.06986 17.3645 8.04875C17.3441 8.02763 17.3284 8.00239 17.3183 7.97468C17.3081 7.94697 17.3039 7.91741 17.3059 7.88793C17.3063 7.85971 17.3122 7.83185 17.3233 7.80597C17.3344 7.78008 17.3505 7.75669 17.3706 7.73714C17.3907 7.7176 17.4144 7.70229 17.4404 7.6921C17.4664 7.68192 17.4942 7.67706 17.522 7.67781Z" fill="#CFE9BC"/>
<path d="M16.0591 6.90846C16.0868 6.9086 16.1142 6.91436 16.1397 6.92541C16.1652 6.93645 16.1883 6.95256 16.2076 6.97277C16.2268 6.99299 16.2419 7.0169 16.2519 7.04311C16.2619 7.06932 16.2666 7.09728 16.2657 7.12536C16.2657 7.25556 16.1748 7.34255 16.0448 7.34C16.0171 7.3409 15.9894 7.33595 15.9637 7.32547C15.9379 7.31498 15.9145 7.29919 15.8951 7.27909C15.8757 7.25899 15.8606 7.23502 15.8508 7.20871C15.841 7.18239 15.8367 7.1543 15.8382 7.12621C15.8375 7.09693 15.8428 7.06783 15.8538 7.04072C15.8647 7.01361 15.8811 6.98907 15.9018 6.96864C15.9225 6.94821 15.9472 6.93233 15.9742 6.92197C16.0013 6.91162 16.0302 6.90702 16.0591 6.90846Z" fill="#CFE9BC"/>
<path d="M17.7298 8.6719C17.7287 8.71449 17.7151 8.75578 17.6907 8.79052C17.6663 8.82526 17.6323 8.85188 17.593 8.86701C17.5537 8.88214 17.5108 8.88509 17.4698 8.87549C17.4288 8.86588 17.3916 8.84416 17.3628 8.81307C17.334 8.78198 17.315 8.74294 17.3082 8.70089C17.3014 8.65885 17.3071 8.6157 17.3245 8.57694C17.342 8.53817 17.3704 8.50553 17.4062 8.48317C17.4421 8.4608 17.4836 8.44972 17.5257 8.45133C17.5537 8.45122 17.5814 8.45696 17.6071 8.46819C17.6328 8.47942 17.656 8.4959 17.6752 8.51659C17.6943 8.53729 17.709 8.56176 17.7185 8.58848C17.7279 8.6152 17.7317 8.6436 17.7298 8.6719Z" fill="#CFE9BC"/>
<path d="M17.7292 6.357C17.7259 6.48917 17.635 6.57305 17.5022 6.56656C17.4742 6.566 17.4466 6.55957 17.4212 6.54768C17.3958 6.53578 17.3731 6.51868 17.3545 6.49746C17.3359 6.47623 17.3219 6.45133 17.3133 6.42434C17.3047 6.39735 17.3017 6.36884 17.3045 6.34062C17.3056 6.31235 17.3122 6.28458 17.3239 6.2589C17.3356 6.23323 17.3523 6.21017 17.3729 6.19105C17.3935 6.17193 17.4176 6.15714 17.4439 6.14752C17.4701 6.1379 17.498 6.13365 17.5259 6.13501C17.554 6.1351 17.5817 6.14102 17.6074 6.15241C17.6331 6.16381 17.6562 6.18043 17.6752 6.20125C17.6943 6.22208 17.7089 6.24665 17.7182 6.27344C17.7275 6.30023 17.7313 6.32868 17.7292 6.357Z" fill="#CFE9BC"/>
<path d="M16.0474 9.22599C16.0753 9.22422 16.1033 9.22826 16.1296 9.23786C16.1559 9.24745 16.1801 9.26241 16.2005 9.28181C16.2209 9.3012 16.2371 9.32462 16.2483 9.35063C16.2594 9.37663 16.2651 9.40467 16.2652 9.43301C16.2672 9.46135 16.2636 9.48981 16.2545 9.51669C16.2454 9.54357 16.231 9.5683 16.2122 9.58941C16.1934 9.61052 16.1706 9.62756 16.1452 9.63951C16.1197 9.65146 16.0921 9.65807 16.0641 9.65895C16.035 9.66182 16.0057 9.65837 15.978 9.64884C15.9504 9.6393 15.9251 9.6239 15.9038 9.60367C15.8824 9.58343 15.8657 9.55882 15.8545 9.53149C15.8433 9.50415 15.8381 9.47472 15.839 9.44515C15.8379 9.41676 15.8425 9.38842 15.8524 9.36186C15.8624 9.33529 15.8776 9.31104 15.897 9.29056C15.9165 9.27009 15.9398 9.25381 15.9657 9.24272C15.9915 9.23162 16.0193 9.22593 16.0474 9.22599Z" fill="#CFE9BC"/>
<path d="M17.73 9.44328C17.7306 9.4722 17.7256 9.50097 17.7151 9.52786C17.7045 9.55475 17.6888 9.57922 17.6687 9.59982C17.6487 9.62041 17.6247 9.6367 17.5983 9.64773C17.5719 9.65875 17.5436 9.66427 17.515 9.66397C17.4864 9.66366 17.4582 9.65754 17.432 9.64596C17.4059 9.63438 17.3823 9.61758 17.3626 9.59657C17.343 9.57555 17.3278 9.55075 17.3178 9.52364C17.3078 9.49653 17.3034 9.46766 17.3047 9.43877C17.3048 9.41049 17.3105 9.38253 17.3215 9.35654C17.3325 9.33055 17.3486 9.30706 17.3687 9.28747C17.3888 9.26787 17.4126 9.25257 17.4387 9.24246C17.4648 9.23236 17.4926 9.22766 17.5205 9.22864C17.5484 9.22785 17.5762 9.23287 17.6022 9.24341C17.6281 9.25395 17.6516 9.26977 17.6713 9.2899C17.6909 9.31003 17.7062 9.33403 17.7163 9.36042C17.7264 9.3868 17.7311 9.41501 17.73 9.44328Z" fill="#CFE9BC"/>
<path d="M13.8492 7.67794C13.8772 7.67667 13.9051 7.6812 13.9313 7.69125C13.9575 7.7013 13.9813 7.71666 14.0014 7.73639C14.0215 7.75612 14.0375 7.7798 14.0482 7.80598C14.059 7.83215 14.0643 7.86028 14.0639 7.88863C14.0655 7.91693 14.0615 7.94526 14.052 7.97194C14.0425 7.99862 14.0279 8.0231 14.0089 8.04392C13.9899 8.06473 13.9669 8.08147 13.9414 8.09312C13.9159 8.10477 13.8883 8.11111 13.8604 8.11174C13.8313 8.11411 13.802 8.11016 13.7745 8.10016C13.747 8.09017 13.722 8.07435 13.701 8.05377C13.6801 8.03319 13.6637 8.00831 13.653 7.98081C13.6423 7.95331 13.6375 7.92381 13.6389 7.89428C13.6382 7.86596 13.6431 7.83778 13.6534 7.81143C13.6637 7.78508 13.6791 7.7611 13.6987 7.74091C13.7183 7.72072 13.7418 7.70474 13.7676 7.69392C13.7935 7.6831 13.8212 7.67767 13.8492 7.67794Z" fill="#CFE9BC"/>
<path d="M12.5946 7.88579C12.5974 8.01429 12.5176 8.10495 12.3963 8.11173C12.3395 8.11383 12.2843 8.093 12.2427 8.05383C12.2011 8.01467 12.1765 7.96037 12.1745 7.90288C12.1724 7.84539 12.193 7.78942 12.2316 7.74729C12.2703 7.70516 12.3239 7.68031 12.3807 7.67821C12.4085 7.67627 12.4364 7.68025 12.4627 7.68987C12.4889 7.6995 12.5128 7.71456 12.533 7.73411C12.5531 7.75365 12.569 7.77724 12.5796 7.80336C12.5902 7.82948 12.5953 7.85756 12.5946 7.88579Z" fill="#CFE9BC"/>
<path d="M13.8453 7.34153C13.8173 7.34256 13.7894 7.3376 13.7634 7.32699C13.7375 7.31638 13.714 7.30034 13.6946 7.27994C13.6751 7.25953 13.6601 7.2352 13.6506 7.20854C13.6411 7.18188 13.6372 7.15348 13.6392 7.1252C13.6387 7.0957 13.6443 7.06642 13.6557 7.03925C13.667 7.01208 13.6839 6.98761 13.7051 6.96742C13.7264 6.94723 13.7516 6.93177 13.7791 6.92203C13.8066 6.91228 13.8358 6.90847 13.8648 6.91084C13.8928 6.9117 13.9202 6.91832 13.9456 6.93029C13.9709 6.94227 13.9936 6.95935 14.0122 6.98049C14.0308 7.00164 14.045 7.0264 14.0538 7.05327C14.0627 7.08014 14.066 7.10855 14.0636 7.13678C14.0572 7.26415 13.9722 7.34407 13.8453 7.34153Z" fill="#CFE9BC"/>
<path d="M12.3857 7.3414C12.2591 7.3414 12.1762 7.26006 12.1737 7.13241C12.172 7.10298 12.1763 7.07351 12.1866 7.04592C12.1968 7.01833 12.2127 6.99324 12.2332 6.97229C12.2537 6.95134 12.2783 6.935 12.3054 6.92434C12.3326 6.91368 12.3616 6.90894 12.3907 6.91042C12.5126 6.91212 12.5965 7.00221 12.5946 7.1293C12.5926 7.25639 12.512 7.34055 12.3857 7.3414Z" fill="#CFE9BC"/>
<path d="M12.5948 9.44452C12.5925 9.57189 12.5086 9.65831 12.3861 9.65888C12.2581 9.65888 12.17 9.56596 12.1745 9.43294C12.1745 9.4047 12.1802 9.37676 12.1913 9.35084C12.2023 9.32492 12.2185 9.30155 12.2388 9.28217C12.2591 9.26279 12.2831 9.24781 12.3093 9.23814C12.3355 9.22847 12.3633 9.22431 12.3912 9.22593C12.5139 9.22875 12.597 9.31743 12.5948 9.44452Z" fill="#CFE9BC"/>
<path d="M13.8602 9.22601C13.9027 9.22736 13.9437 9.24148 13.9782 9.26657C14.0127 9.29166 14.039 9.32658 14.0538 9.36687C14.0685 9.40716 14.0711 9.451 14.0612 9.4928C14.0513 9.53459 14.0293 9.57245 13.9981 9.60154C13.9668 9.63062 13.9277 9.64962 13.8857 9.6561C13.8438 9.66258 13.8009 9.65626 13.7625 9.63794C13.7241 9.61961 13.6919 9.59012 13.6701 9.55322C13.6484 9.51632 13.6379 9.47369 13.6402 9.43077C13.6408 9.4025 13.647 9.37464 13.6585 9.34888C13.67 9.32311 13.6865 9.29997 13.7071 9.28084C13.7276 9.26171 13.7518 9.24699 13.7781 9.23757C13.8044 9.22814 13.8324 9.22421 13.8602 9.22601Z" fill="#CFE9BC"/>
<path d="M18.4096 12.9072C18.3928 13.0128 18.3842 13.1004 18.3641 13.1851C17.9226 15.0593 15.9588 16.1223 14.1882 15.4162C13.1318 14.9952 12.487 14.1908 12.2513 13.0589C12.2259 12.936 12.2575 12.8973 12.3785 12.9052C12.5218 12.9143 12.7012 12.8589 12.7999 12.9273C12.8933 12.9925 12.9042 13.1814 12.9491 13.3164C13.4647 14.8624 15.3648 15.5092 16.697 14.5964C17.2547 14.2148 17.6131 13.6988 17.7654 13.0371C17.7871 12.9428 17.8211 12.9001 17.9207 12.9049C18.0769 12.9126 18.2336 12.9072 18.4096 12.9072Z" fill="#CFE9BC"/>
<path d="M13.5039 12.909C13.6899 12.909 13.8745 12.9047 14.0583 12.9132C14.0901 12.9146 14.1303 12.9643 14.1481 13.0011C14.4566 13.6396 15.1011 13.9178 15.7592 13.6882C15.9164 13.6349 16.0608 13.5489 16.1833 13.4358C16.3057 13.3226 16.4035 13.1849 16.4704 13.0313C16.5153 12.933 16.5691 12.8999 16.6703 12.9047C16.8223 12.9118 16.9751 12.9064 17.1285 12.9064C17.0769 13.5199 16.3806 14.3547 15.3716 14.3849C14.3626 14.4151 13.5962 13.615 13.5039 12.909Z" fill="#CFE9BC"/>
</g>
<path fill-rule="evenodd" clip-rule="evenodd" d="M49.454 12.4395C49.6579 12.7117 49.7599 13.1435 49.7599 13.7349V17.8747H51.623V13.2703C51.623 12.9135 51.5906 12.5615 51.5257 12.2142C51.4701 11.8669 51.3635 11.5571 51.2059 11.2849C51.0576 11.0032 50.8351 10.7826 50.5385 10.6231C50.2511 10.4541 49.8804 10.3696 49.4262 10.3696C49.009 10.3696 48.6104 10.4306 48.2304 10.5527C47.8596 10.6653 47.5305 10.8343 47.2432 11.0596C46.9558 11.2755 46.7195 11.543 46.5341 11.8622V10.4963H44.8517V17.8747H46.7148V13.5659C46.8075 13.2656 46.9558 13.0027 47.1598 12.7774C47.3637 12.5427 47.5908 12.3597 47.8411 12.2283C48.1006 12.0969 48.3555 12.0311 48.6058 12.0311C48.9673 12.0311 49.25 12.1673 49.454 12.4395ZM54.7586 17.6353C55.1665 17.823 55.6114 17.9169 56.0935 17.9169C56.5847 17.9169 57.0482 17.8043 57.4839 17.579C57.9288 17.3443 58.2718 17.0157 58.5128 16.5933V17.5226C58.5128 18.0014 58.4108 18.391 58.2069 18.6913C58.0122 19.0011 57.7481 19.2264 57.4144 19.3672C57.0899 19.5174 56.7284 19.5925 56.3298 19.5925C55.8571 19.5925 55.4075 19.4939 54.9811 19.2968C54.564 19.0997 54.2164 18.8275 53.9383 18.4801L52.9233 19.4799C53.3126 19.968 53.7807 20.3435 54.3276 20.6063C54.8745 20.8786 55.5419 21.0147 56.3298 21.0147C57.1085 21.0147 57.8037 20.8739 58.4155 20.5922C59.0272 20.32 59.5046 19.9211 59.8476 19.3954C60.1998 18.8791 60.3759 18.2548 60.3759 17.5226V10.4963H58.7492V11.7918C58.4711 11.36 58.1188 11.0173 57.6924 10.7639C57.266 10.501 56.7701 10.3696 56.2047 10.3696C55.7041 10.3696 55.2453 10.4682 54.8282 10.6653C54.4203 10.8531 54.0634 11.1253 53.7575 11.482C53.4609 11.8293 53.2292 12.233 53.0623 12.6929C52.8955 13.1529 52.8121 13.6504 52.8121 14.1855C52.8121 14.6924 52.8909 15.1712 53.0484 15.6217C53.206 16.0723 53.4285 16.4713 53.7158 16.8186C54.0125 17.1659 54.3601 17.4382 54.7586 17.6353ZM57.3031 16.3117C57.1177 16.3774 56.9231 16.4103 56.7191 16.4103C56.4411 16.4103 56.1769 16.3539 55.9266 16.2413C55.6856 16.1286 55.4724 15.9738 55.287 15.7766C55.1109 15.5795 54.9718 15.3495 54.8699 15.0867C54.7679 14.8238 54.7169 14.5422 54.7169 14.2418C54.7169 13.9508 54.7586 13.6739 54.8421 13.4111C54.9348 13.1388 55.0645 12.8948 55.2314 12.6789C55.3982 12.4536 55.5975 12.2799 55.8293 12.1579C56.061 12.0358 56.3206 11.9748 56.6079 11.9748C56.8767 11.9748 57.1316 12.0358 57.3726 12.1579C57.6229 12.2705 57.8454 12.4348 58.04 12.6507C58.244 12.8666 58.4016 13.1201 58.5128 13.4111V15.1712C58.4479 15.3307 58.3552 15.4903 58.2347 15.6499C58.1142 15.8001 57.9752 15.9315 57.8176 16.0442C57.66 16.1568 57.4885 16.246 57.3031 16.3117ZM63.8213 17.7198C64.294 17.9169 64.827 18.0155 65.4203 18.0155C66.0135 18.0155 66.5465 17.9169 67.0193 17.7198C67.492 17.5133 67.8906 17.2316 68.215 16.8749C68.5487 16.5182 68.799 16.1099 68.9659 15.6499C69.142 15.1899 69.23 14.7065 69.23 14.1996C69.23 13.6833 69.142 13.1952 68.9659 12.7352C68.799 12.2752 68.5487 11.8669 68.215 11.5102C67.8813 11.1534 67.4781 10.8765 67.0054 10.6794C66.5419 10.4729 66.0135 10.3696 65.4203 10.3696C64.827 10.3696 64.294 10.4729 63.8213 10.6794C63.3486 10.8765 62.9453 11.1534 62.6116 11.5102C62.2872 11.8669 62.0369 12.2752 61.8608 12.7352C61.6847 13.1952 61.5966 13.6833 61.5966 14.1996C61.5966 14.7065 61.6847 15.1899 61.8608 15.6499C62.0369 16.1099 62.2872 16.5182 62.6116 16.8749C62.9453 17.2316 63.3486 17.5133 63.8213 17.7198ZM63.7657 15.3542C63.5988 15.0163 63.5154 14.6314 63.5154 14.1996C63.5154 13.7678 63.5988 13.3876 63.7657 13.059C63.9325 12.7211 64.1596 12.4583 64.447 12.2705C64.7343 12.0734 65.0588 11.9748 65.4203 11.9748C65.7725 11.9748 66.0923 12.0687 66.3797 12.2564C66.667 12.4442 66.8941 12.707 67.061 13.045C67.2371 13.3829 67.3252 13.7631 67.3252 14.1855C67.3252 14.6173 67.2371 15.0022 67.061 15.3401C66.8941 15.6687 66.667 15.9315 66.3797 16.1286C66.0923 16.3164 65.7725 16.4103 65.4203 16.4103C65.0588 16.4103 64.7343 16.3164 64.447 16.1286C64.1596 15.9409 63.9325 15.6828 63.7657 15.3542ZM79.5285 10.2288C79.7046 10.3415 79.8251 10.4306 79.89 10.4963L80.7382 8.9193C80.4508 8.72216 80.1264 8.53911 79.7649 8.37015C79.4034 8.20118 79.0141 8.06506 78.5969 7.9618C78.1891 7.85854 77.7534 7.80691 77.29 7.80691C76.6226 7.80691 76.0154 7.92895 75.4685 8.17301C74.9216 8.40769 74.4859 8.75971 74.1615 9.22907C73.8463 9.68904 73.6888 10.2617 73.6888 10.9469C73.6888 11.4538 73.7907 11.8763 73.9947 12.2142C74.1986 12.5521 74.5091 12.8337 74.9262 13.059C75.3434 13.2749 75.8625 13.4721 76.4835 13.6504C77.0026 13.8006 77.4522 13.9414 77.8322 14.0729C78.2123 14.1949 78.5089 14.3404 78.7221 14.5094C78.9353 14.6783 79.0419 14.913 79.0419 15.2134C79.0419 15.5419 78.9075 15.7954 78.6387 15.9738C78.3698 16.1521 77.9759 16.2413 77.4568 16.2413C77.086 16.2413 76.7199 16.1944 76.3584 16.1005C75.9969 16.0066 75.6632 15.894 75.3573 15.7625C75.0514 15.6217 74.7918 15.4856 74.5786 15.3542C74.3654 15.2134 74.2171 15.1008 74.1337 15.0163L73.2855 16.6919C73.6656 16.9641 74.0827 17.1988 74.5369 17.3959C74.9911 17.5837 75.4639 17.7292 75.9551 17.8324C76.4464 17.9357 76.9377 17.9873 77.429 17.9873C77.9203 17.9873 78.3837 17.9357 78.8194 17.8324C79.2551 17.7198 79.6444 17.5461 79.9874 17.3114C80.3303 17.0768 80.5992 16.7717 80.7938 16.3962C80.9885 16.0113 81.0858 15.5513 81.0858 15.0163C81.0858 14.4061 80.956 13.918 80.6965 13.5519C80.4462 13.1764 80.0801 12.876 79.598 12.6507C79.1253 12.416 78.5645 12.2189 77.9156 12.0593C77.4151 11.9279 76.998 11.8059 76.6643 11.6932C76.3306 11.5806 76.0803 11.4444 75.9134 11.2849C75.7466 11.1253 75.6632 10.9094 75.6632 10.6371C75.6632 10.2804 75.7929 10.0035 76.0525 9.80638C76.3213 9.60925 76.7152 9.51069 77.2343 9.51069C77.531 9.51069 77.8229 9.55293 78.1103 9.63741C78.3977 9.71251 78.6618 9.80169 78.9028 9.90495C79.1531 10.0082 79.3617 10.1162 79.5285 10.2288ZM85.1785 17.6353C85.6142 17.8887 86.1147 18.0155 86.6802 18.0155C87.3012 18.0155 87.8481 17.8465 88.3209 17.5086C88.8029 17.1612 89.1783 16.6966 89.4471 16.1146C89.7252 15.5326 89.8642 14.8848 89.8642 14.1714C89.8642 13.6457 89.7762 13.1576 89.6 12.707C89.4332 12.247 89.1968 11.8434 88.8909 11.4961C88.585 11.1394 88.2235 10.8624 87.8064 10.6653C87.3985 10.4682 86.949 10.3696 86.4577 10.3696C85.9108 10.3696 85.4241 10.4963 84.9977 10.7498C84.5714 10.9939 84.2191 11.3318 83.941 11.7636V10.4963H82.3142V20.8739H84.1774V16.5792C84.4184 17.0204 84.7521 17.3724 85.1785 17.6353ZM86.8331 16.2272C86.6014 16.3492 86.3418 16.4103 86.0545 16.4103C85.7949 16.4103 85.54 16.3492 85.2897 16.2272C85.0395 16.0958 84.817 15.9174 84.6223 15.6921C84.4369 15.4669 84.2886 15.2181 84.1774 14.9459V13.2139C84.233 13.0356 84.3211 12.8713 84.4416 12.7211C84.5714 12.5709 84.7197 12.4395 84.8865 12.3268C85.0534 12.2142 85.2248 12.1297 85.401 12.0734C85.5864 12.0077 85.7671 11.9748 85.9432 11.9748C86.2306 11.9748 86.4948 12.0311 86.7358 12.1438C86.986 12.2564 87.2039 12.416 87.3893 12.6225C87.5747 12.8197 87.7137 13.0497 87.8064 13.3125C87.9084 13.5753 87.9593 13.8616 87.9593 14.1714C87.9593 14.4624 87.913 14.744 87.8203 15.0163C87.7369 15.2791 87.6071 15.5185 87.431 15.7344C87.2641 15.9409 87.0648 16.1052 86.8331 16.2272ZM95.7011 12.4536C95.9236 12.7352 96.0348 13.1623 96.0348 13.7349V17.8747H97.8979V13.2703C97.8979 12.9042 97.8655 12.5521 97.8006 12.2142C97.7357 11.8669 97.6199 11.5571 97.453 11.2849C97.2862 11.0032 97.0544 10.7826 96.7578 10.6231C96.4612 10.4541 96.0765 10.3696 95.6038 10.3696C95.0569 10.3696 94.5517 10.501 94.0882 10.7639C93.6247 11.0267 93.2586 11.3928 92.9898 11.8622V7.5957H91.1266V17.8747H92.9898V13.5659C93.0825 13.2656 93.2261 13.0027 93.4208 12.7774C93.6247 12.5427 93.8518 12.3597 94.1021 12.2283C94.3524 12.0969 94.5888 12.0311 94.8112 12.0311C95.1913 12.0311 95.4879 12.172 95.7011 12.4536ZM101.312 17.7198C101.784 17.9169 102.313 18.0155 102.897 18.0155C103.434 18.0155 103.926 17.9357 104.371 17.7761C104.816 17.6071 105.2 17.3771 105.525 17.0861C105.858 16.7951 106.113 16.4619 106.289 16.0864L104.69 15.6358C104.57 15.9362 104.343 16.1803 104.009 16.368C103.685 16.5464 103.337 16.6356 102.966 16.6356C102.642 16.6356 102.336 16.5652 102.049 16.4243C101.771 16.2741 101.539 16.0582 101.353 15.7766C101.177 15.495 101.071 15.1665 101.034 14.791H106.665C106.674 14.7159 106.683 14.622 106.693 14.5094C106.702 14.3873 106.707 14.27 106.707 14.1573C106.707 13.4908 106.554 12.8713 106.248 12.2987C105.951 11.7167 105.52 11.252 104.955 10.9047C104.389 10.548 103.708 10.3696 102.911 10.3696C102.123 10.3696 101.437 10.548 100.853 10.9047C100.278 11.252 99.8332 11.7167 99.518 12.2987C99.2121 12.8807 99.0592 13.5237 99.0592 14.2277C99.0592 14.7347 99.1472 15.2181 99.3234 15.6781C99.5088 16.1286 99.7683 16.5323 100.102 16.889C100.436 17.2363 100.839 17.5133 101.312 17.7198ZM104.482 12.6225C104.658 12.8948 104.765 13.2186 104.802 13.5941H100.992C101.029 13.2186 101.131 12.8948 101.298 12.6225C101.474 12.3409 101.696 12.125 101.965 11.9748C102.243 11.8152 102.549 11.7354 102.883 11.7354C103.226 11.7354 103.536 11.8152 103.814 11.9748C104.093 12.125 104.315 12.3409 104.482 12.6225ZM110.664 12.4676C111.109 12.2424 111.614 12.1297 112.18 12.1297V10.4119C112.143 10.4025 112.096 10.3978 112.041 10.3978H111.804C111.359 10.4259 110.938 10.5855 110.539 10.8765C110.14 11.1675 109.811 11.5665 109.552 12.0734V10.4963H107.842V17.8747H109.705V13.4111C109.899 12.998 110.219 12.6836 110.664 12.4676ZM114.917 17.7198C115.39 17.9169 115.918 18.0155 116.502 18.0155C117.04 18.0155 117.531 17.9357 117.976 17.7761C118.421 17.6071 118.806 17.3771 119.13 17.0861C119.464 16.7951 119.719 16.4619 119.895 16.0864L118.296 15.6358C118.175 15.9362 117.948 16.1803 117.615 16.368C117.29 16.5464 116.943 16.6356 116.572 16.6356C116.247 16.6356 115.941 16.5652 115.654 16.4243C115.376 16.2741 115.144 16.0582 114.959 15.7766C114.783 15.495 114.676 15.1665 114.639 14.791H120.27C120.28 14.7159 120.289 14.622 120.298 14.5094C120.307 14.3873 120.312 14.27 120.312 14.1573C120.312 13.4908 120.159 12.8713 119.853 12.2987C119.557 11.7167 119.126 11.252 118.56 10.9047C117.995 10.548 117.313 10.3696 116.516 10.3696C115.728 10.3696 115.042 10.548 114.458 10.9047C113.884 11.252 113.439 11.7167 113.124 12.2987C112.818 12.8807 112.665 13.5237 112.665 14.2277C112.665 14.7347 112.753 15.2181 112.929 15.6781C113.114 16.1286 113.374 16.5323 113.708 16.889C114.041 17.2363 114.444 17.5133 114.917 17.7198ZM118.087 12.6225C118.263 12.8948 118.37 13.2186 118.407 13.5941H114.597C114.634 13.2186 114.736 12.8948 114.903 12.6225C115.079 12.3409 115.302 12.125 115.571 11.9748C115.849 11.8152 116.155 11.7354 116.488 11.7354C116.831 11.7354 117.142 11.8152 117.42 11.9748C117.698 12.125 117.92 12.3409 118.087 12.6225ZM33.3687 7.87732V17.8747H40.3208V16.1709H35.2874V7.87732H33.3687ZM41.3077 10.4963V17.8747H43.1709V10.4963H41.3077ZM41.3077 7.5957V9.46844H43.1709V7.5957H41.3077Z" fill="#0F0F0F"/>
<defs>
<clipPath id="clip0_4429_9547">
<rect width="30.6415" height="24.8916" fill="white" transform="translate(0 2.07129)"/>
</clipPath>
</defs>
</svg>
