<svg width="65" height="64" viewBox="0 0 65 64" fill="none" xmlns="http://www.w3.org/2000/svg">
<g clip-path="url(#clip0_4227_8362)">
<path d="M60.6667 22C60.3007 22 59.9617 22.106 59.6667 22.277V29.722C59.9617 29.894 60.3007 30 60.6667 30C61.7717 30 62.6667 29.105 62.6667 28V24C62.6667 22.895 61.7717 22 60.6667 22Z" fill="#0D6B68"/>
<path d="M26.6667 24V28C26.6667 29.105 27.5617 30 28.6667 30C29.0327 30 29.3717 29.894 29.6667 29.723V22.278C29.3717 22.106 29.0327 22 28.6667 22C27.5617 22 26.6667 22.895 26.6667 24Z" fill="#0D6B68"/>
<path d="M36.3667 49L34.1847 55H39.1487L36.9667 49H36.3667Z" fill="#0D6B68"/>
<path d="M52.6667 43H49.6667V39.414C49.6667 38.083 48.5837 37 47.2527 37C46.6167 37 45.9947 37.258 45.5457 37.707L40.2527 43H30.6667C27.9097 43 25.6667 45.243 25.6667 48V58C25.6667 60.757 27.9097 63 30.6667 63H52.6667C55.4237 63 57.6667 60.757 57.6667 58V48C57.6667 45.243 55.4237 43 52.6667 43ZM40.7277 59.342L39.8757 57H33.4577L32.6057 59.342L30.7267 58.658L34.9667 47H38.3667L42.6057 58.658L40.7277 59.342ZM45.6667 54H43.6667V52H45.6667V54ZM49.6667 54H47.6667V52H49.6667V54ZM53.6667 54H51.6667V52H53.6667V54Z" fill="#0D6B68"/>
<path d="M20.6667 49H19.6667H17.6667H16.6667C16.1147 49 15.6667 49.448 15.6667 50V58C15.6667 59.654 17.0127 61 18.6667 61C20.3207 61 21.6667 59.654 21.6667 58V50C21.6667 49.448 21.2187 49 20.6667 49Z" fill="#0D6B68"/>
<path d="M13.6667 25H15.6667V27H13.6667V25Z" fill="#0D6B68"/>
<path d="M9.66669 25H11.6667V27H9.66669V25Z" fill="#0D6B68"/>
<path d="M17.6667 25H19.6667V27H17.6667V25Z" fill="#0D6B68"/>
<path d="M21.6667 25H23.6667V27H21.6667V25Z" fill="#0D6B68"/>
<path d="M31.2497 34.166C30.2937 33.434 29.6667 32.294 29.6667 31V30.781C27.8177 35.027 23.5927 38 18.6667 38C12.0397 38 6.66669 32.627 6.66669 26C6.66669 19.373 12.0397 14 18.6667 14C22.2527 14 25.4677 15.577 27.6667 18.071V14.013C25.0567 12.048 21.9587 11 18.6667 11C10.3957 11 3.66669 17.729 3.66669 26C3.66669 34.271 10.3957 41 18.6667 41C23.7567 41 28.4937 38.404 31.2497 34.166Z" fill="#0D6B68"/>
<path d="M16.6667 42.8721V46.0001C16.6667 46.5521 17.1147 47.0001 17.6667 47.0001H19.6667C20.2187 47.0001 20.6667 46.5521 20.6667 46.0001V42.8751C20.0067 42.9531 19.3407 43.0001 18.6667 43.0001C17.9887 43.0001 17.3237 42.9491 16.6667 42.8721Z" fill="#0D6B68"/>
<path d="M35.6667 31V21C35.6667 19.897 34.7697 19 33.6667 19C32.5637 19 31.6667 19.897 31.6667 21V31C31.6667 32.103 32.5637 33 33.6667 33C34.7697 33 35.6667 32.103 35.6667 31Z" fill="#0D6B68"/>
<path d="M55.6667 19C54.5637 19 53.6667 19.897 53.6667 21V31C53.6667 32.103 54.5637 33 55.6667 33C56.7697 33 57.6667 32.103 57.6667 31V21C57.6667 19.897 56.7697 19 55.6667 19Z" fill="#0D6B68"/>
<path d="M51.6667 26C51.6667 22.141 48.5257 19 44.6667 19C40.8077 19 37.6667 22.141 37.6667 26C37.6667 29.859 40.8077 33 44.6667 33C48.5257 33 51.6667 29.859 51.6667 26ZM43.6667 27.764C43.6667 28.908 43.0307 29.936 42.0087 30.448L41.1137 30.895L40.2187 29.106L41.1137 28.659C41.4547 28.488 41.6667 28.146 41.6667 27.764V21H47.6667V29C47.6667 30.654 46.3207 32 44.6667 32V30C45.2187 30 45.6667 29.552 45.6667 29V27H43.6667V27.764Z" fill="#0D6B68"/>
<path d="M59.6667 14C59.6667 7.935 54.7317 3 48.6667 3H40.6667C34.6017 3 29.6667 7.935 29.6667 14V21C29.6667 19.526 30.4767 18.25 31.6667 17.556V14C31.6667 9.037 35.7037 5 40.6667 5H48.6667C53.6297 5 57.6667 9.037 57.6667 14V17.556C58.8567 18.25 59.6667 19.526 59.6667 21V14Z" fill="#0D6B68"/>
<path d="M43.6667 23H45.6667V25H43.6667V23Z" fill="#0D6B68"/>
</g>
<defs>
<clipPath id="clip0_4227_8362">
<rect width="64" height="64" fill="white" transform="translate(0.666687)"/>
</clipPath>
</defs>
</svg>
