<svg width="64" height="64" viewBox="0 0 64 64" fill="none" xmlns="http://www.w3.org/2000/svg">
<path d="M55.7867 40.2243C56.2091 42.0772 56.4484 43.9672 56.5014 45.8669H61.8101C61.6665 43.7637 61.0759 41.7153 60.0779 39.8584C58.6667 40.0067 57.2352 40.1251 55.7867 40.2243Z" fill="#0D6B68"/>
<path d="M61.8123 48H56.5035C56.45 49.9004 56.2107 51.791 55.7888 53.6448C57.2363 53.7429 58.6688 53.8581 60.08 54.0085C61.078 52.1516 61.6686 50.1032 61.8123 48Z" fill="#0D6B68"/>
<path d="M52.6336 33.1357C53.7551 34.6455 54.6174 36.3315 55.1851 38.1245C56.3876 38.0463 57.5769 37.9521 58.7531 37.8419C57.1589 35.766 55.0492 34.1435 52.6336 33.1357Z" fill="#0D6B68"/>
<path d="M55.1851 55.7422C54.6174 57.5352 53.7551 59.2212 52.6336 60.731C55.0492 59.7232 57.1589 58.1007 58.7531 56.0249C57.5755 55.9139 56.3861 55.8197 55.1851 55.7422Z" fill="#0D6B68"/>
<path d="M48 61.6881C50.0096 61.0822 51.7845 58.8081 52.9536 55.6166C51.3109 55.5413 49.6597 55.4972 48 55.4844V61.6881Z" fill="#0D6B68"/>
<path d="M48 53.3515C49.8752 53.3664 51.7461 53.4144 53.6 53.5083C54.0491 51.7042 54.3079 49.858 54.3723 48H48V53.3515Z" fill="#0D6B68"/>
<path d="M48 32.1777V38.3815C49.6576 38.3687 51.3088 38.3246 52.9536 38.2492C51.7845 35.0535 50.0096 32.7836 48 32.1777Z" fill="#0D6B68"/>
<path d="M45.8667 40.5192C43.984 40.5043 42.1131 40.4552 40.2656 40.3613C39.8173 42.1644 39.5588 44.0095 39.4944 45.8664H45.8667V40.5192Z" fill="#0D6B68"/>
<path d="M41.2331 33.1357C38.8175 34.1435 36.7077 35.766 35.1136 37.8419C36.2912 37.9528 37.4805 38.047 38.6816 38.1245C39.2493 36.3315 40.1116 34.6455 41.2331 33.1357Z" fill="#0D6B68"/>
<path d="M20.2667 18.1336C20.2694 18.7931 20.4758 19.4356 20.8577 19.9733C21.2396 20.511 21.7782 20.9175 22.4 21.1373V15.1299C21.7782 15.3497 21.2396 15.7563 20.8577 16.2939C20.4758 16.8316 20.2694 17.4741 20.2667 18.1336Z" fill="#0D6B68"/>
<path d="M24.5333 29.6706C25.1568 29.4533 25.6973 29.0475 26.0797 28.5092C26.4622 27.971 26.6677 27.3271 26.6677 26.6668C26.6677 26.0065 26.4622 25.3626 26.0797 24.8244C25.6973 24.2862 25.1568 23.8803 24.5333 23.6631V29.6706Z" fill="#0D6B68"/>
<path d="M42.6667 30.4293V3.20046C42.6667 2.91756 42.5543 2.64625 42.3543 2.44621C42.1542 2.24617 41.8829 2.13379 41.6 2.13379H6.40002V49.0671H30.015C29.4653 44.9487 30.4514 40.7721 32.785 37.3344C35.1186 33.8967 38.6362 31.4386 42.6667 30.4293ZM28.8 26.6671C28.7985 27.8961 28.3733 29.0871 27.5961 30.0391C26.8189 30.9912 25.7372 31.6462 24.5334 31.8938V32.0005C24.5334 32.2834 24.421 32.5547 24.2209 32.7547C24.0209 32.9547 23.7496 33.0671 23.4667 33.0671C23.1838 33.0671 22.9125 32.9547 22.7124 32.7547C22.5124 32.5547 22.4 32.2834 22.4 32.0005V31.8938C21.1962 31.6462 20.1145 30.9912 19.3373 30.0391C18.5601 29.0871 18.1349 27.8961 18.1334 26.6671C18.1334 26.3842 18.2457 26.1129 18.4458 25.9129C18.6458 25.7128 18.9171 25.6005 19.2 25.6005C19.4829 25.6005 19.7542 25.7128 19.9543 25.9129C20.1543 26.1129 20.2667 26.3842 20.2667 26.6671C20.2694 27.3266 20.4758 27.9691 20.8577 28.5068C21.2396 29.0445 21.7783 29.451 22.4 29.6709V23.3605C21.1944 23.1156 20.1105 22.4615 19.3319 21.509C18.5533 20.5565 18.128 19.364 18.128 18.1338C18.128 16.9035 18.5533 15.7111 19.3319 14.7586C20.1105 13.806 21.1944 13.1519 22.4 12.9071V12.8005C22.4 12.5176 22.5124 12.2462 22.7124 12.0462C22.9125 11.8462 23.1838 11.7338 23.4667 11.7338C23.7496 11.7338 24.0209 11.8462 24.2209 12.0462C24.421 12.2462 24.5334 12.5176 24.5334 12.8005V12.9071C25.7372 13.1547 26.8189 13.8097 27.5961 14.7618C28.3733 15.7139 28.7985 16.9048 28.8 18.1338C28.8 18.4167 28.6876 18.688 28.4876 18.888C28.2876 19.0881 28.0163 19.2005 27.7334 19.2005C27.4505 19.2005 27.1791 19.0881 26.9791 18.888C26.7791 18.688 26.6667 18.4167 26.6667 18.1338C26.664 17.4743 26.4575 16.8318 26.0757 16.2941C25.6938 15.7564 25.1551 15.3499 24.5334 15.1301V21.4405C25.7372 21.688 26.8189 22.343 27.5961 23.2951C28.3733 24.2472 28.7985 25.4381 28.8 26.6671Z" fill="#0D6B68"/>
<path d="M38.08 53.6448C37.6574 51.7911 37.4173 49.9005 37.3632 48H32.0544C32.1981 50.1032 32.7886 52.1516 33.7866 54.0085C35.2 53.8667 36.6304 53.7429 38.08 53.6448Z" fill="#0D6B68"/>
<path d="M32.0544 45.8669H37.3632C37.4161 43.9672 37.6555 42.0772 38.0779 40.2243C36.6315 40.1251 35.1978 40.0109 33.7866 39.8584C32.7886 41.7153 32.1981 43.7637 32.0544 45.8669Z" fill="#0D6B68"/>
<path d="M45.8667 48H39.4944C39.5587 49.858 39.8176 51.7042 40.2667 53.5083C42.1205 53.4144 43.9915 53.3664 45.8667 53.3515V48Z" fill="#0D6B68"/>
<path d="M45.8667 32.1777C43.8571 32.7836 42.0822 35.0577 40.9131 38.2492C42.5558 38.3246 44.207 38.3687 45.8667 38.3815V32.1777Z" fill="#0D6B68"/>
<path d="M2.13336 50.1338C2.76563 49.6641 3.49426 49.3406 4.2667 49.1866V2.33008C3.64493 2.5499 3.10626 2.95646 2.72439 3.49413C2.34252 4.03181 2.1361 4.67433 2.13336 5.33381V50.1338Z" fill="#0D6B68"/>
<path d="M45.8667 61.6881V55.4844C44.2091 55.4972 42.5579 55.5413 40.9131 55.6166C42.0822 58.8124 43.8571 61.0822 45.8667 61.6881Z" fill="#0D6B68"/>
<path d="M48 45.8664H54.3723C54.3078 44.0095 54.0493 42.1644 53.6011 40.3613C51.7536 40.4552 49.8827 40.5043 48 40.5192V45.8664Z" fill="#0D6B68"/>
<path d="M41.2331 60.731C40.1116 59.2212 39.2493 57.5352 38.6816 55.7422C37.4791 55.8204 36.2898 55.9146 35.1136 56.0249C36.7077 58.1007 38.8175 59.7232 41.2331 60.731Z" fill="#0D6B68"/>
<path d="M5.33336 57.6002H33.632C33.0938 56.9266 32.6071 56.2135 32.176 55.4669H28.8C28.5171 55.4669 28.2458 55.3545 28.0458 55.1544C27.8457 54.9544 27.7334 54.6831 27.7334 54.4002C27.7334 54.1173 27.8457 53.846 28.0458 53.6459C28.2458 53.4459 28.5171 53.3335 28.8 53.3335H31.1232C30.8451 52.6385 30.6131 51.9258 30.4288 51.2002H5.33336C4.48467 51.2002 3.67074 51.5373 3.07062 52.1375C2.4705 52.7376 2.13336 53.5515 2.13336 54.4002C2.13336 55.2489 2.4705 56.0628 3.07062 56.6629C3.67074 57.2631 4.48467 57.6002 5.33336 57.6002ZM9.60003 53.3335H24.5334C24.8163 53.3335 25.0876 53.4459 25.2876 53.6459C25.4876 53.846 25.6 54.1173 25.6 54.4002C25.6 54.6831 25.4876 54.9544 25.2876 55.1544C25.0876 55.3545 24.8163 55.4669 24.5334 55.4669H9.60003C9.31713 55.4669 9.04582 55.3545 8.84578 55.1544C8.64574 54.9544 8.53336 54.6831 8.53336 54.4002C8.53336 54.1173 8.64574 53.846 8.84578 53.6459C9.04582 53.4459 9.31713 53.3335 9.60003 53.3335Z" fill="#0D6B68"/>
</svg>
