<svg width="65" height="64" viewBox="0 0 65 64" fill="none" xmlns="http://www.w3.org/2000/svg">
<g clip-path="url(#clip0_4227_8348)">
<path d="M26.6409 62.561L28.7134 63.9997H2.81217C1.90467 63.9997 1.16467 63.2597 1.16467 62.3522V30.1997C1.16467 29.2922 1.90467 28.5522 2.81217 28.5522H4.21217V57.5647C4.21217 59.9497 6.15342 61.8872 8.53842 61.8872H24.4872C25.3084 61.8872 25.9684 62.0935 26.6409 62.561ZM61.8509 28.5522H60.4509V57.5647C60.4509 59.9497 58.5122 61.8872 56.1284 61.8872H40.1759C39.3572 61.8872 38.6984 62.0922 38.0247 62.561L35.9534 63.9997H61.8509C62.7584 63.9997 63.5022 63.2597 63.5022 62.3522V30.1997C63.5022 29.2922 62.7584 28.5522 61.8509 28.5522ZM36.8459 60.8672L33.3659 63.2835V27.9747C34.3547 26.6072 35.9634 25.7147 37.7734 25.7147H56.1284C57.3722 25.7147 58.3884 26.7285 58.3884 27.9747V57.5647C58.3884 58.8085 57.3709 59.8247 56.1284 59.8247H40.1759C38.9359 59.8247 37.8659 60.1585 36.8459 60.8672ZM37.2634 31.4085C37.2634 31.9785 37.7247 32.4397 38.2947 32.4397H52.4259C52.9959 32.4397 53.4572 31.9785 53.4572 31.4085C53.4572 30.8385 52.9959 30.3772 52.4259 30.3772H38.2947C37.7247 30.3772 37.2634 30.8372 37.2634 31.4085ZM37.2634 36.9635C37.2634 37.5335 37.7247 37.9947 38.2947 37.9947H52.4259C52.9959 37.9947 53.4572 37.5335 53.4572 36.9635C53.4572 36.3935 52.9959 35.9322 52.4259 35.9322H38.2947C37.7247 35.9322 37.2634 36.3935 37.2634 36.9635ZM37.2634 42.5197C37.2634 43.0897 37.7247 43.551 38.2947 43.551H52.4259C52.9959 43.551 53.4572 43.0897 53.4572 42.5197C53.4572 41.9497 52.9959 41.4885 52.4259 41.4885H38.2947C37.7247 41.4885 37.2634 41.9497 37.2634 42.5197ZM37.2634 48.076C37.2634 48.646 37.7247 49.1072 38.2947 49.1072H52.4259C52.9959 49.1072 53.4572 48.646 53.4572 48.076C53.4572 47.506 52.9959 47.0447 52.4259 47.0447H38.2947C37.7247 47.0447 37.2634 47.5047 37.2634 48.076ZM37.2634 53.6322C37.2634 54.2022 37.7247 54.6635 38.2947 54.6635H52.4259C52.9959 54.6635 53.4572 54.2022 53.4572 53.6322C53.4572 53.0622 52.9959 52.601 52.4259 52.601H38.2947C37.7247 52.601 37.2634 53.061 37.2634 53.6322ZM31.3009 27.9747V63.2835L27.8184 60.8672C26.7984 60.1585 25.7309 59.826 24.4872 59.826H8.53842C7.29092 59.826 6.27717 58.8085 6.27717 57.566V27.9747C6.27717 26.7272 7.29092 25.7147 8.53842 25.7147H26.8897C28.6997 25.7135 30.3084 26.6072 31.3009 27.9747ZM27.4034 53.6322C27.4034 53.0622 26.9397 52.601 26.3684 52.601H12.2409C11.6709 52.601 11.2059 53.0622 11.2059 53.6322C11.2059 54.2022 11.6697 54.6635 12.2409 54.6635H26.3684C26.9384 54.6622 27.4034 54.2022 27.4034 53.6322ZM27.4034 48.076C27.4034 47.506 26.9397 47.0447 26.3684 47.0447H12.2409C11.6709 47.0447 11.2059 47.506 11.2059 48.076C11.2059 48.646 11.6697 49.1072 12.2409 49.1072H26.3684C26.9384 49.1072 27.4034 48.646 27.4034 48.076ZM27.4034 42.5197C27.4034 41.9497 26.9397 41.4885 26.3684 41.4885H12.2409C11.6709 41.4885 11.2059 41.9497 11.2059 42.5197C11.2059 43.0897 11.6697 43.551 12.2409 43.551H26.3684C26.9384 43.551 27.4034 43.0897 27.4034 42.5197ZM27.4034 36.9635C27.4034 36.3935 26.9397 35.9322 26.3684 35.9322H12.2409C11.6709 35.9322 11.2059 36.3935 11.2059 36.9635C11.2059 37.5335 11.6697 37.9947 12.2409 37.9947H26.3684C26.9384 37.9947 27.4034 37.5347 27.4034 36.9635ZM27.4034 31.4085C27.4034 30.8385 26.9397 30.3772 26.3684 30.3772H12.2409C11.6709 30.3772 11.2059 30.8385 11.2059 31.4085C11.2059 31.9785 11.6697 32.4397 12.2409 32.4397H26.3684C26.9384 32.4385 27.4034 31.9785 27.4034 31.4085ZM35.1447 14.6835V1.72598C35.1447 0.775977 35.9209 0.000976562 36.8697 0.000976562H53.8497C54.7997 0.000976562 55.5747 0.777227 55.5747 1.72598V14.6835C55.5747 15.636 54.7984 16.4122 53.8497 16.4122H49.7959C49.4484 16.4122 49.1509 16.5822 48.9772 16.8835L46.1784 21.731C46.0047 22.0322 45.7072 22.206 45.3597 22.206C45.0122 22.206 44.7147 22.0322 44.5409 21.731L41.7422 16.8835C41.5684 16.5822 41.2709 16.4122 40.9234 16.4122H36.8709C35.9209 16.4122 35.1447 15.6372 35.1447 14.6835ZM41.2359 13.121C41.7534 13.3585 42.3622 13.1322 42.6034 12.6147L43.3834 10.9322H47.3372L48.1172 12.6147C48.3584 13.1322 48.9672 13.3585 49.4847 13.121C50.0022 12.8797 50.2284 12.271 49.9884 11.7535L46.2959 3.79473C46.1972 3.58223 46.0234 3.39848 45.7934 3.29098C45.2759 3.05348 44.6634 3.27723 44.4259 3.79473L40.7334 11.7535C40.4922 12.271 40.7184 12.8797 41.2359 13.121ZM45.3609 6.67598L44.3434 8.86598H46.3772L45.3609 6.67598ZM9.08717 14.6835V1.72598C9.08717 0.775977 9.86342 0.000976562 10.8159 0.000976562H27.7922C28.7447 0.000976562 29.5209 0.777227 29.5209 1.72598V14.6835C29.5209 15.636 28.7447 16.4122 27.7922 16.4122H23.7422C23.3947 16.4122 23.0972 16.5822 22.9234 16.8835L20.1247 21.731C19.9509 22.0322 19.6497 22.206 19.3059 22.206C18.9584 22.206 18.6572 22.0322 18.4834 21.731L15.6847 16.8835C15.5109 16.5822 15.2134 16.4122 14.8659 16.4122H10.8159C9.86342 16.4122 9.08717 15.6372 9.08717 14.6835ZM14.8247 5.64473C14.8247 6.21223 15.2884 6.67598 15.8597 6.67598H19.3034H20.1647C19.9522 7.43473 19.6622 8.10348 19.3072 8.69973C19.2109 8.53973 19.1197 8.37723 19.0347 8.20723C18.7797 7.70098 18.1597 7.49473 17.6522 7.75348C17.1459 8.00848 16.9397 8.62848 17.1947 9.13598C17.4184 9.57223 17.6622 9.97973 17.9347 10.3622C17.5384 10.7197 17.1022 11.0385 16.6347 11.3222C16.1497 11.6197 15.9972 12.2547 16.2909 12.7397C16.5884 13.2247 17.2234 13.3772 17.7084 13.0835C18.2784 12.7322 18.8134 12.3397 19.3034 11.896C19.7959 12.3385 20.3309 12.7322 20.9009 13.0835C21.3859 13.3772 22.0209 13.2247 22.3184 12.7397C22.6122 12.2547 22.4597 11.6197 21.9747 11.3222C21.5034 11.0385 21.0709 10.716 20.6747 10.3585C20.7134 10.3022 20.7559 10.2447 20.7947 10.1847C21.4684 9.19223 21.9747 8.03348 22.2859 6.67723H22.7497C23.3197 6.67723 23.7809 6.21348 23.7809 5.64598C23.7809 5.07598 23.3197 4.61098 22.7497 4.61098H20.3372V4.21098C20.3372 3.64098 19.8734 3.17973 19.3022 3.17973C18.7347 3.17973 18.2709 3.64098 18.2709 4.21098V4.61098H15.8584C15.2884 4.60973 14.8247 5.07473 14.8247 5.64473Z" fill="#0D6B68"/>
</g>
<defs>
<clipPath id="clip0_4227_8348">
<rect width="64" height="64" fill="white" transform="translate(0.333374)"/>
</clipPath>
</defs>
</svg>
