<svg width="25" height="24" viewBox="0 0 25 24" fill="none" xmlns="http://www.w3.org/2000/svg">
<g clip-path="url(#clip0_4100_2193)">
<path fill-rule="evenodd" clip-rule="evenodd" d="M21.5282 8.96973C23.1628 8.96973 24.5 10.3072 24.5 11.9415C24.5 13.5762 23.1628 14.9134 21.5282 14.9134C15.5096 14.9134 9.49026 14.9134 3.47159 14.9134C1.8372 14.9134 0.5 13.5762 0.5 11.9415C0.5 10.3072 1.8372 8.96973 3.47159 8.96973H21.5282Z" fill="#383838"/>
<path fill-rule="evenodd" clip-rule="evenodd" d="M9.52832 2.97181C9.52832 1.3372 10.8657 0 12.5001 0C14.1348 0 15.472 1.3372 15.472 2.97181V21.0284C15.472 22.6628 14.1348 24 12.5001 24C10.8657 24 9.52832 22.6628 9.52832 21.0284C9.52832 15.0098 9.52832 8.99053 9.52832 2.97181Z" fill="#383838"/>
</g>
<defs>
<clipPath id="clip0_4100_2193">
<rect width="24" height="24" fill="white" transform="translate(0.5)"/>
</clipPath>
</defs>
</svg>
