<svg width="25" height="24" viewBox="0 0 25 24" fill="none" xmlns="http://www.w3.org/2000/svg">
<g clip-path="url(#clip0_4183_6048)">
<g clip-path="url(#clip1_4183_6048)">
<path fill-rule="evenodd" clip-rule="evenodd" d="M12.328 20.1776V21.3736C12.328 22.3328 11.85 23.1608 11.0193 23.6404C10.6196 23.8711 10.1736 23.9998 9.71109 24C9.2482 24.0003 8.80228 23.8713 8.40234 23.6404L3.08409 20.5699C2.25333 20.0903 1.77539 19.2624 1.77539 18.3031V2.61741C1.77539 1.17408 2.94952 0 4.3928 0H16.1055C17.5489 0 18.7231 1.17398 18.7231 2.61741V5.92392C18.7231 6.39825 18.338 6.78338 17.8636 6.78338C17.3892 6.78338 17.0044 6.3983 17.0044 5.92392V2.61741C17.0044 2.1218 16.6011 1.71853 16.1055 1.71853H5.84212L11.0193 4.70808C11.8497 5.18761 12.328 6.01542 12.328 6.97434V18.4589H16.1055C16.6011 18.4589 17.0044 18.0558 17.0044 17.5602V14.6616C17.0044 14.187 17.3889 13.8022 17.8636 13.8022C18.3382 13.8022 18.7231 14.187 18.7231 14.6616V17.5602C18.7231 19.0036 17.5489 20.1776 16.1055 20.1776H12.328ZM20.2913 10.948L19.3448 11.8945C19.0092 12.2301 19.0093 12.7741 19.3448 13.1097C19.5063 13.2713 19.724 13.3612 19.9524 13.3612C20.1811 13.3612 20.3985 13.2716 20.5603 13.1097L22.9734 10.6962C23.3089 10.3607 23.3089 9.81694 22.9734 9.48141L20.5603 7.06828C20.2247 6.73266 19.6806 6.7328 19.3448 7.06823C19.0094 7.40348 19.0095 7.94775 19.3448 8.28309L20.2913 9.22931H13.9509C13.4761 9.22931 13.0917 9.61406 13.0917 10.0888C13.0917 10.5636 13.4762 10.9481 13.9509 10.9481H20.2913V10.948Z" fill="#0D6B68"/>
</g>
</g>
<defs>
<clipPath id="clip0_4183_6048">
<rect width="24" height="24" fill="white" transform="translate(0.5)"/>
</clipPath>
<clipPath id="clip1_4183_6048">
<rect width="24" height="24" fill="white" transform="translate(0.5)"/>
</clipPath>
</defs>
</svg>
