<svg width="243" height="74" viewBox="0 0 243 74" fill="none" xmlns="http://www.w3.org/2000/svg">
<path d="M230.732 25.3874C230.732 11.9186 219.813 1 206.344 1V36.2976H230.732V25.3874Z" fill="white" stroke="white"/>
<rect width="24.3874" height="1.40483" transform="matrix(-1 0 0 1 230.732 36.2979)" fill="white" stroke="white"/>
<path fill-rule="evenodd" clip-rule="evenodd" d="M230.289 53.2617C230.579 51.7567 230.732 50.2023 230.732 48.6123V37.7022H206.344V72.9998C212.25 72.9998 217.665 70.9007 221.885 67.4078C226.094 70.2123 232.845 72.8781 241 71.3953C238.754 70.4327 230.09 64.6567 230.411 53.1048C230.372 53.1583 230.331 53.2106 230.289 53.2617Z" fill="white"/>
<path d="M230.289 53.2617L230.674 53.5802L229.798 53.167L230.289 53.2617ZM230.732 37.7022V37.2022H231.232V37.7022H230.732ZM206.344 37.7022H205.844V37.2022H206.344V37.7022ZM206.344 72.9998V73.4998H205.844V72.9998H206.344ZM221.885 67.4078L221.566 67.0227L221.852 66.7855L222.162 66.9917L221.885 67.4078ZM241 71.3953L241.197 70.9358L242.724 71.5901L241.089 71.8873L241 71.3953ZM230.411 53.1048L230.006 52.8107L230.955 51.5058L230.911 53.1187L230.411 53.1048ZM231.232 48.6123C231.232 50.2342 231.076 51.8204 230.78 53.3565L229.798 53.167C230.083 51.693 230.232 50.1703 230.232 48.6123H231.232ZM231.232 37.7022V48.6123H230.232V37.7022H231.232ZM206.344 37.2022H230.732V38.2022H206.344V37.2022ZM205.844 72.9998V37.7022H206.844V72.9998H205.844ZM222.204 67.793C217.898 71.3573 212.37 73.4998 206.344 73.4998V72.4998C212.129 72.4998 217.433 70.444 221.566 67.0227L222.204 67.793ZM241.089 71.8873C232.775 73.399 225.895 70.68 221.607 67.824L222.162 66.9917C226.294 69.7446 232.914 72.3572 240.911 70.9034L241.089 71.8873ZM230.911 53.1187C230.754 58.7566 232.787 62.9761 235.133 65.9087C237.489 68.8536 240.15 70.4873 241.197 70.9358L240.803 71.8549C239.603 71.3408 236.81 69.6051 234.352 66.5334C231.885 63.4494 229.747 59.0049 229.911 53.0909L230.911 53.1187ZM229.903 52.9433C229.939 52.9 229.974 52.8558 230.006 52.8107L230.815 53.3989C230.77 53.4609 230.723 53.5213 230.674 53.5802L229.903 52.9433Z" fill="white"/>
<rect width="180.957" height="72" transform="matrix(-1 0 0 1 206.344 1)" fill="white"/>
<rect width="180.957" height="72" transform="matrix(-1 0 0 1 206.344 1)" stroke="white"/>
<path d="M1 25.3874C1 11.9186 11.9186 1 25.3874 1V36.2976H1V25.3874Z" fill="white" stroke="white"/>
<rect x="1" y="36.2979" width="24.3874" height="1.40483" fill="white" stroke="white"/>
<path d="M1 48.6126C1 62.0814 11.9186 73 25.3874 73V37.7024H1V48.6126Z" fill="white" stroke="white"/>
</svg>
