<svg width="243" height="74" viewBox="0 0 243 74" fill="none" xmlns="http://www.w3.org/2000/svg">
<path d="M12.2683 25.3874C12.2683 11.9186 23.1869 1 36.6557 1V36.2976H12.2683V25.3874Z" fill="#F6F6F6" stroke="#F6F6F6"/>
<rect x="12.2683" y="36.2979" width="24.3874" height="1.40483" fill="#F6F6F6" stroke="#F6F6F6"/>
<path fill-rule="evenodd" clip-rule="evenodd" d="M12.7111 53.2617C12.4206 51.7567 12.2684 50.2023 12.2684 48.6123V37.7022H36.6558V72.9998C30.7502 72.9998 25.3349 70.9007 21.1153 67.4078C16.9056 70.2123 10.1554 72.8781 2.00003 71.3953C4.24624 70.4327 12.9102 64.6567 12.5893 53.1048C12.6282 53.1583 12.6689 53.2106 12.7111 53.2617Z" fill="#F6F6F6"/>
<path d="M12.7111 53.2617L12.3256 53.5802L13.202 53.167L12.7111 53.2617ZM12.2684 37.7022V37.2022H11.7684V37.7022H12.2684ZM36.6558 37.7022H37.1558V37.2022H36.6558V37.7022ZM36.6558 72.9998V73.4998H37.1558V72.9998H36.6558ZM21.1153 67.4078L21.4341 67.0227L21.1476 66.7855L20.8381 66.9917L21.1153 67.4078ZM2.00003 71.3953L1.80307 70.9358L0.276242 71.5901L1.91059 71.8873L2.00003 71.3953ZM12.5893 53.1048L12.9937 52.8107L12.0447 51.5058L12.0895 53.1187L12.5893 53.1048ZM11.7684 48.6123C11.7684 50.2342 11.9236 51.8204 12.2202 53.3565L13.202 53.167C12.9175 51.693 12.7684 50.1703 12.7684 48.6123H11.7684ZM11.7684 37.7022V48.6123H12.7684V37.7022H11.7684ZM36.6558 37.2022H12.2684V38.2022H36.6558V37.2022ZM37.1558 72.9998V37.7022H36.1558V72.9998H37.1558ZM20.7965 67.793C25.1025 71.3573 30.6296 73.4998 36.6558 73.4998V72.4998C30.8709 72.4998 25.5674 70.444 21.4341 67.0227L20.7965 67.793ZM1.91059 71.8873C10.2252 73.399 17.1054 70.68 21.3925 67.824L20.8381 66.9917C16.7059 69.7446 10.0856 72.3572 2.08947 70.9034L1.91059 71.8873ZM12.0895 53.1187C12.2461 58.7566 10.213 62.9761 7.86689 65.9087C5.51097 68.8536 2.84958 70.4873 1.80307 70.9358L2.19699 71.8549C3.39669 71.3408 6.19038 69.6051 8.64776 66.5334C11.115 63.4494 13.2534 59.0049 13.0891 53.0909L12.0895 53.1187ZM13.0965 52.9433C13.0608 52.9 13.0265 52.8558 12.9937 52.8107L12.1849 53.3989C12.23 53.4609 12.277 53.5213 12.3256 53.5802L13.0965 52.9433Z" fill="#F6F6F6"/>
<rect x="36.6558" y="1" width="180.957" height="72" fill="#F6F6F6"/>
<rect x="36.6558" y="1" width="180.957" height="72" stroke="#F6F6F6"/>
<path d="M242 25.3874C242 11.9186 231.081 1 217.613 1V36.2976H242V25.3874Z" fill="#F6F6F6" stroke="#F6F6F6"/>
<rect width="24.3874" height="1.40483" transform="matrix(-1 0 0 1 242 36.2979)" fill="#F6F6F6" stroke="#F6F6F6"/>
<path d="M242 48.6126C242 62.0814 231.081 73 217.613 73V37.7024H242V48.6126Z" fill="#F6F6F6" stroke="#F6F6F6"/>
</svg>
