<svg width="24" height="25" viewBox="0 0 24 25" fill="none" xmlns="http://www.w3.org/2000/svg">
<g clip-path="url(#clip0_3961_7694)">
<g clip-path="url(#clip1_3961_7694)">
<path d="M12 24.5C18.6274 24.5 24 19.1274 24 12.5C24 5.87258 18.6274 0.5 12 0.5C5.37258 0.5 0 5.87258 0 12.5C0 19.1274 5.37258 24.5 12 24.5Z" fill="white"/>
<path d="M19.3507 10.0389C20.0069 9.38281 20.0069 8.31902 19.3507 7.66297C18.6947 7.00688 17.6309 7.00688 16.9749 7.66297L10.0853 14.5525L7.07304 11.5402C6.41694 10.8841 5.35323 10.8841 4.69714 11.5402C4.04108 12.1963 4.04105 13.2601 4.6971 13.9161C4.69772 13.9168 4.69844 13.9173 4.69906 13.9179L9.29869 18.5215C9.7321 18.9549 10.4348 18.9549 10.8682 18.5214L19.3489 10.0407C19.3495 10.0401 19.3501 10.0394 19.3507 10.0389Z" fill="#0F0F0F"/>
</g>
</g>
<defs>
<clipPath id="clip0_3961_7694">
<rect width="24" height="24" fill="white" transform="translate(0 0.5)"/>
</clipPath>
<clipPath id="clip1_3961_7694">
<rect width="24" height="24" fill="white" transform="translate(0 0.5)"/>
</clipPath>
</defs>
</svg>
