<svg width="24" height="24" viewBox="0 0 24 24" fill="none" xmlns="http://www.w3.org/2000/svg">
<g clip-path="url(#clip0_3965_7767)">
<path d="M1.5 19.1362C1.49994 19.3332 1.53871 19.5283 1.61407 19.7103C1.68943 19.8924 1.79992 20.0577 1.93922 20.197C2.07851 20.3363 2.2439 20.4468 2.42591 20.5222C2.60792 20.5975 2.803 20.6363 3 20.6362H18.7762C19.1739 20.6357 19.5551 20.4775 19.8363 20.1963C20.1175 19.9151 20.2757 19.5339 20.2762 19.1362V10.875H1.5V19.1362ZM14.625 16.875C14.6256 16.6763 14.7048 16.4858 14.8453 16.3453C14.9858 16.2048 15.1763 16.1256 15.375 16.125H17.625C17.8237 16.1256 18.0142 16.2048 18.1547 16.3453C18.2952 16.4858 18.3744 16.6763 18.375 16.875V17.625C18.3744 17.8237 18.2952 18.0142 18.1547 18.1547C18.0142 18.2952 17.8237 18.3744 17.625 18.375H15.375C15.1763 18.3744 14.9858 18.2952 14.8453 18.1547C14.7048 18.0142 14.6256 17.8237 14.625 17.625V16.875Z" fill="#0D6B68"/>
<path d="M18.7762 7.87109H3C2.803 7.87104 2.60792 7.9098 2.42591 7.98516C2.2439 8.06052 2.07851 8.17101 1.93922 8.31031C1.79992 8.44961 1.68943 8.61499 1.61407 8.797C1.53871 8.97902 1.49994 9.1741 1.5 9.37109V10.1248H20.2762V9.37109C20.2757 8.97343 20.1175 8.5922 19.8363 8.31101C19.5551 8.02982 19.1739 7.87162 18.7762 7.87109Z" fill="#0D6B68"/>
<path d="M20.9999 3.36328H5.22738C4.82933 3.36366 4.44763 3.5217 4.16582 3.80282C3.884 4.08393 3.72501 4.46523 3.72363 4.86328V7.12078H18.7761C19.3727 7.12125 19.9447 7.35846 20.3666 7.78031C20.7885 8.20217 21.0257 8.77419 21.0261 9.37078V16.1283C21.4193 16.121 21.7939 15.9598 22.0694 15.6793C22.345 15.3989 22.4995 15.0215 22.4999 14.6283V4.86328C22.4987 4.46581 22.3403 4.08496 22.0593 3.80391C21.7782 3.52285 21.3973 3.36444 20.9999 3.36328Z" fill="#0D6B68"/>
<path d="M15.375 16.875H17.625V17.625H15.375V16.875Z" fill="#0D6B68"/>
</g>
<defs>
<clipPath id="clip0_3965_7767">
<rect width="24" height="24" fill="white"/>
</clipPath>
</defs>
</svg>
